# Blender v2.78 (sub 0) OBJ File: ''
# www.blender.org
mtllib BBLilyPad.mtl
o BBLilyPad
v -2.133333 1.337658 2.133333
v -2.133333 0.337659 -1.866667
v -2.133333 0.337658 2.133333
v -2.133333 1.337659 -1.866667
v -1.133333 2.337658 1.133333
v -1.133333 1.337659 -0.866667
v -1.133333 1.337658 1.133333
v -1.133333 2.337659 -0.866667
v 0.866667 0.337659 -0.866667
v 0.866667 0.337659 -1.866667
v 0.866667 1.337659 -0.866667
v 0.866667 1.337659 -1.866667
v 0.866667 1.337658 1.133333
v 0.866667 2.337658 1.133333
v 0.866667 2.337659 -0.866667
v 1.866667 0.337658 2.133333
v 1.866667 0.337659 -0.866667
v 1.866667 1.337658 2.133333
v 1.866667 1.337659 -0.866667
v 1.866667 0.337658 2.133333
v -2.133333 1.337658 2.133333
v -2.133333 0.337658 2.133333
v 1.866667 1.337658 2.133333
v 0.866667 1.337658 1.133333
v -1.133333 2.337658 1.133333
v -1.133333 1.337658 1.133333
v 0.866667 2.337658 1.133333
v -1.133333 1.337659 -0.866667
v -1.133333 2.337659 -0.866667
v 0.866667 1.337659 -0.866667
v 0.866667 2.337659 -0.866667
v 0.866667 0.337659 -0.866667
v 1.866667 0.337659 -0.866667
v 1.866667 1.337659 -0.866667
v -2.133333 0.337659 -1.866667
v -2.133333 1.337659 -1.866667
v 0.866667 0.337659 -1.866667
v 0.866667 1.337659 -1.866667
v -1.133333 0.337658 1.133333
v 1.866667 0.337658 2.133333
v -2.133333 0.337658 2.133333
v 0.866667 0.337658 1.133333
v -1.133333 0.337659 -0.866667
v 0.866667 0.337659 -0.866667
v 1.866667 0.337659 -0.866667
v -2.133333 0.337659 -1.866667
v 0.866667 0.337659 -1.866667
v -2.133333 1.337658 2.133333
v 1.866667 1.337658 2.133333
v -1.133333 1.337658 1.133333
v 0.866667 1.337658 1.133333
v -1.133333 1.337659 -0.866667
v 0.866667 1.337659 -0.866667
v 1.866667 1.337659 -0.866667
v -2.133333 1.337659 -1.866667
v 0.866667 1.337659 -1.866667
v -1.133333 2.337658 1.133333
v 0.866667 2.337658 1.133333
v -1.133333 2.337659 -0.866667
v 0.866667 2.337659 -0.866667
vt 0.8379 0.5000
vt 0.8379 0.5000
vt 0.8379 0.5000
vt 0.8379 0.5000
vt 0.6816 0.5000
vt 0.6816 0.5000
vt 0.6816 0.5000
vt 0.6816 0.5000
vt 0.8379 0.5000
vt 0.8379 0.5000
vt 0.8379 0.5000
vt 0.8379 0.5000
vt 0.6816 0.5000
vt 0.6816 0.5000
vt 0.6816 0.5000
vt 0.6816 0.5000
vt 0.8379 0.5000
vt 0.8379 0.5000
vt 0.8379 0.5000
vt 0.8379 0.5000
vt 0.8379 0.5000
vt 0.8379 0.5000
vt 0.8379 0.5000
vt 0.8379 0.5000
vt 0.6816 0.5000
vt 0.6816 0.5000
vt 0.6816 0.5000
vt 0.6816 0.5000
vt 0.6816 0.5000
vt 0.6816 0.5000
vt 0.6816 0.5000
vt 0.6816 0.5000
vt 0.8379 0.5000
vt 0.8379 0.5000
vt 0.8379 0.5000
vt 0.8379 0.5000
vt 0.8379 0.5000
vt 0.8379 0.5000
vt 0.8379 0.5000
vt 0.8379 0.5000
vt 0.8379 0.5000
vt 0.8379 0.5000
vt 0.8379 0.5000
vt 0.8379 0.5000
vt 0.8379 0.5000
vt 0.6816 0.5000
vt 0.6816 0.5000
vt 0.6816 0.5000
vt 0.8379 0.5000
vt 0.6816 0.5000
vt 0.8379 0.5000
vt 0.8379 0.5000
vt 0.8379 0.5000
vt 0.8379 0.5000
vt 0.8379 0.5000
vt 0.8379 0.5000
vt 0.8379 0.5000
vt 0.8379 0.5000
vt 0.8379 0.5000
vt 0.8379 0.5000
vt 0.8379 0.5000
vt 0.8379 0.5000
vt 0.6816 0.5000
vt 0.6816 0.5000
vt 0.6816 0.5000
vt 0.6816 0.5000
vn -1.0000 0.0000 0.0000
vn 1.0000 0.0000 0.0000
vn 0.0000 0.0000 1.0000
vn 0.0000 0.0000 -1.0000
vn -0.0000 -1.0000 -0.0000
vn -0.0000 1.0000 0.0000
usemtl palette.002
s 1
f 1/1/1 2/2/1 3/3/1
f 4/4/1 2/2/1 1/1/1
f 5/5/1 6/6/1 7/7/1
f 8/8/1 6/6/1 5/5/1
f 9/9/2 10/10/2 11/11/2
f 11/11/2 10/10/2 12/12/2
f 13/13/2 11/14/2 14/15/2
f 14/15/2 11/14/2 15/16/2
f 16/17/2 17/18/2 18/19/2
f 18/19/2 17/18/2 19/20/2
f 20/21/3 21/22/3 22/23/3
f 23/24/3 21/22/3 20/21/3
f 24/25/3 25/26/3 26/27/3
f 27/28/3 25/26/3 24/25/3
f 28/29/4 29/30/4 30/31/4
f 30/31/4 29/30/4 31/32/4
f 32/33/4 30/34/4 33/35/4
f 33/35/4 30/34/4 34/36/4
f 35/37/4 36/38/4 37/39/4
f 37/39/4 36/38/4 38/40/4
f 39/41/5 40/42/5 41/43/5
f 42/44/5 40/42/5 39/41/5
f 43/45/5 39/41/5 41/43/5
f 43/46/5 42/47/5 39/48/5
f 44/49/5 40/42/5 42/44/5
f 44/50/5 42/47/5 43/46/5
f 45/51/5 40/42/5 44/49/5
f 46/52/5 43/45/5 41/43/5
f 46/52/5 44/49/5 43/45/5
f 47/53/5 44/49/5 46/52/5
f 48/54/6 49/55/6 50/56/6
f 50/56/6 49/55/6 51/57/6
f 48/54/6 50/56/6 52/58/6
f 51/57/6 49/55/6 53/59/6
f 53/59/6 49/55/6 54/60/6
f 48/54/6 52/58/6 55/61/6
f 52/58/6 53/59/6 55/61/6
f 55/61/6 53/59/6 56/62/6
f 57/63/6 58/64/6 59/65/6
f 59/65/6 58/64/6 60/66/6
