# Blender v2.78 (sub 0) OBJ File: ''
# www.blender.org
mtllib Light Green Road Tile.mtl
o Light_Green_Road_Tile
v -63.417912 6.388130 4.000000
v -63.417912 0.388132 -4.000001
v -63.417912 0.388131 3.999999
v -63.417912 6.388132 -4.000000
v -63.417912 8.388130 4.000000
v -63.417912 8.388132 -4.000000
v 62.582088 0.388131 3.999999
v 62.582088 0.388132 -4.000001
v 62.582088 6.388130 4.000000
v 62.582088 6.388132 -4.000000
v 62.582088 8.388130 4.000000
v 62.582088 8.388132 -4.000000
v 62.582088 0.388131 3.999999
v -63.417912 6.388130 4.000000
v -63.417912 0.388131 3.999999
v 62.582088 6.388130 4.000000
v -63.417912 8.388130 4.000000
v 62.582088 8.388130 4.000000
v -63.417912 0.388132 -4.000001
v -63.417912 6.388132 -4.000000
v 62.582088 0.388132 -4.000001
v -63.417912 8.388132 -4.000000
v 62.582088 6.388132 -4.000000
v 62.582088 8.388132 -4.000000
v -63.417912 0.388132 -4.000001
v 62.582088 0.388131 3.999999
v -63.417912 0.388131 3.999999
v 62.582088 0.388132 -4.000001
v -63.417912 8.388130 4.000000
v 62.582088 8.388130 4.000000
v -53.417912 8.388130 2.000000
v -52.417912 8.388130 2.000000
v -28.417910 8.388130 2.000000
v -27.417910 8.388130 2.000000
v 1.582090 8.388130 2.000000
v 2.582090 8.388130 2.000000
v 27.582090 8.388130 2.000000
v 28.582090 8.388130 2.000000
v 51.582088 8.388130 2.000000
v 52.582088 8.388130 2.000000
v -54.417912 8.388131 0.000000
v -53.417912 8.388131 0.000000
v -52.417912 8.388131 0.000000
v -28.417910 8.388131 0.000000
v -27.417910 8.388131 0.000000
v -26.417910 8.388131 0.000000
v 1.582090 8.388131 0.000000
v 2.582090 8.388131 0.000000
v 3.582090 8.388131 0.000000
v 26.582090 8.388131 0.000000
v 27.582090 8.388131 0.000000
v 28.582090 8.388131 0.000000
v 51.582088 8.388131 0.000000
v 52.582088 8.388131 0.000000
v 53.582088 8.388131 0.000000
v -54.417912 8.388131 -2.000000
v -53.417912 8.388131 -2.000000
v -27.417910 8.388131 -2.000000
v -26.417910 8.388131 -2.000000
v 2.582090 8.388131 -2.000000
v 3.582090 8.388131 -2.000000
v 26.582090 8.388131 -2.000000
v 27.582090 8.388131 -2.000000
v 52.582088 8.388131 -2.000000
v 53.582088 8.388131 -2.000000
v -63.417912 8.388132 -4.000000
v 62.582088 8.388132 -4.000000
vt 0.6777 0.5000
vt 0.6777 0.5000
vt 0.6777 0.5000
vt 0.6777 0.5000
vt 0.7480 0.5000
vt 0.7480 0.5000
vt 0.7480 0.5000
vt 0.7480 0.5000
vt 0.6777 0.5000
vt 0.6777 0.5000
vt 0.6777 0.5000
vt 0.6777 0.5000
vt 0.7480 0.5000
vt 0.7480 0.5000
vt 0.7480 0.5000
vt 0.7480 0.5000
vt 0.6777 0.5000
vt 0.6777 0.5000
vt 0.6777 0.5000
vt 0.7480 0.5000
vt 0.7480 0.5000
vt 0.7480 0.5000
vt 0.6777 0.5000
vt 0.7480 0.5000
vt 0.6777 0.5000
vt 0.6777 0.5000
vt 0.6777 0.5000
vt 0.7480 0.5000
vt 0.7480 0.5000
vt 0.7480 0.5000
vt 0.6777 0.5000
vt 0.7480 0.5000
vt 0.6777 0.5000
vt 0.6777 0.5000
vt 0.6777 0.5000
vt 0.6777 0.5000
vt 0.7480 0.5000
vt 0.7480 0.5000
vt 0.7480 0.5000
vt 0.7480 0.5000
vt 0.7480 0.5000
vt 0.7480 0.5000
vt 0.7480 0.5000
vt 0.7480 0.5000
vt 0.7480 0.5000
vt 0.7480 0.5000
vt 0.7480 0.5000
vt 0.7480 0.5000
vt 0.7480 0.5000
vt 0.8887 0.5000
vt 0.8887 0.5000
vt 0.8887 0.5000
vt 0.7480 0.5000
vt 0.7480 0.5000
vt 0.8887 0.5000
vt 0.8887 0.5000
vt 0.8887 0.5000
vt 0.8887 0.5000
vt 0.7480 0.5000
vt 0.7480 0.5000
vt 0.8887 0.5000
vt 0.7480 0.5000
vt 0.8887 0.5000
vt 0.8887 0.5000
vt 0.8887 0.5000
vt 0.7480 0.5000
vt 0.7480 0.5000
vt 0.8887 0.5000
vt 0.7480 0.5000
vt 0.7480 0.5000
vt 0.8887 0.5000
vt 0.8887 0.5000
vt 0.8887 0.5000
vt 0.7480 0.5000
vt 0.7480 0.5000
vt 0.8887 0.5000
vt 0.8887 0.5000
vt 0.8887 0.5000
vt 0.8887 0.5000
vt 0.7480 0.5000
vt 0.7480 0.5000
vt 0.8887 0.5000
vt 0.7480 0.5000
vt 0.7480 0.5000
vt 0.8887 0.5000
vt 0.8887 0.5000
vt 0.7480 0.5000
vt 0.8887 0.5000
vt 0.8887 0.5000
vt 0.8887 0.5000
vt 0.7480 0.5000
vt 0.7480 0.5000
vt 0.8887 0.5000
vt 0.8887 0.5000
vt 0.8887 0.5000
vt 0.7480 0.5000
vt 0.7480 0.5000
vt 0.8887 0.5000
vt 0.8887 0.5000
vt 0.8887 0.5000
vt 0.7480 0.5000
vt 0.7480 0.5000
vt 0.8887 0.5000
vt 0.8887 0.5000
vt 0.8887 0.5000
vt 0.7480 0.5000
vt 0.7480 0.5000
vt 0.8887 0.5000
vt 0.7480 0.5000
vt 0.7480 0.5000
vn -1.0000 0.0000 0.0000
vn 1.0000 0.0000 0.0000
vn 0.0000 -0.0000 1.0000
vn 0.0000 0.0000 -1.0000
vn 0.0000 -1.0000 -0.0000
vn 0.0000 1.0000 0.0000
usemtl palette.018
s 1
f 1/1/1 2/2/1 3/3/1
f 4/4/1 2/2/1 1/1/1
f 5/5/1 4/6/1 1/7/1
f 6/8/1 4/6/1 5/5/1
f 7/9/2 8/10/2 9/11/2
f 9/11/2 8/10/2 10/12/2
f 9/13/2 10/14/2 11/15/2
f 11/15/2 10/14/2 12/16/2
f 13/17/3 14/18/3 15/19/3
f 16/20/3 17/21/3 14/22/3
f 16/23/3 14/18/3 13/17/3
f 18/24/3 17/21/3 16/20/3
f 19/25/4 20/26/4 21/27/4
f 20/28/4 22/29/4 23/30/4
f 21/27/4 20/26/4 23/31/4
f 23/30/4 22/29/4 24/32/4
f 25/33/5 26/34/5 27/35/5
f 28/36/5 26/34/5 25/33/5
f 29/37/6 30/38/6 31/39/6
f 31/39/6 30/38/6 32/40/6
f 32/40/6 30/38/6 33/41/6
f 33/41/6 30/38/6 34/42/6
f 34/42/6 30/38/6 35/43/6
f 35/43/6 30/38/6 36/44/6
f 36/44/6 30/38/6 37/45/6
f 37/45/6 30/38/6 38/46/6
f 38/46/6 30/38/6 39/47/6
f 39/47/6 30/38/6 40/48/6
f 29/37/6 31/39/6 41/49/6
f 31/50/6 32/51/6 42/52/6
f 41/49/6 31/39/6 42/53/6
f 32/40/6 33/41/6 43/54/6
f 42/52/6 32/51/6 43/55/6
f 33/56/6 34/57/6 44/58/6
f 43/54/6 33/41/6 44/59/6
f 34/42/6 35/43/6 45/60/6
f 44/58/6 34/57/6 45/61/6
f 45/60/6 35/43/6 46/62/6
f 35/63/6 36/64/6 47/65/6
f 46/62/6 35/43/6 47/66/6
f 36/44/6 37/45/6 48/67/6
f 47/65/6 36/64/6 48/68/6
f 48/67/6 37/45/6 49/69/6
f 49/69/6 37/45/6 50/70/6
f 37/71/6 38/72/6 51/73/6
f 50/70/6 37/45/6 51/74/6
f 38/46/6 39/47/6 52/75/6
f 51/73/6 38/72/6 52/76/6
f 39/77/6 40/78/6 53/79/6
f 52/75/6 39/47/6 53/80/6
f 40/48/6 30/38/6 54/81/6
f 53/79/6 40/78/6 54/82/6
f 54/81/6 30/38/6 55/83/6
f 29/37/6 41/49/6 56/84/6
f 41/85/6 42/52/6 56/86/6
f 42/53/6 43/54/6 57/87/6
f 56/86/6 42/52/6 57/88/6
f 43/54/6 44/59/6 57/87/6
f 44/59/6 45/60/6 57/87/6
f 45/61/6 46/89/6 58/90/6
f 57/87/6 45/60/6 58/91/6
f 46/62/6 47/66/6 59/92/6
f 58/90/6 46/89/6 59/93/6
f 47/66/6 48/67/6 59/92/6
f 48/68/6 49/94/6 60/95/6
f 59/92/6 48/67/6 60/96/6
f 49/69/6 50/70/6 61/97/6
f 60/95/6 49/94/6 61/98/6
f 50/99/6 51/73/6 62/100/6
f 61/97/6 50/70/6 62/101/6
f 52/75/6 53/80/6 63/102/6
f 62/100/6 51/73/6 63/103/6
f 53/80/6 54/81/6 63/102/6
f 51/74/6 52/75/6 63/102/6
f 54/82/6 55/104/6 64/105/6
f 63/102/6 54/81/6 64/106/6
f 55/83/6 30/38/6 65/107/6
f 64/105/6 55/104/6 65/108/6
f 61/97/6 62/101/6 66/109/6
f 63/102/6 64/106/6 66/109/6
f 64/106/6 65/107/6 66/109/6
f 60/96/6 61/97/6 66/109/6
f 59/92/6 60/96/6 66/109/6
f 57/87/6 58/91/6 66/109/6
f 56/84/6 57/87/6 66/109/6
f 58/91/6 59/92/6 66/109/6
f 29/37/6 56/84/6 66/109/6
f 62/101/6 63/102/6 66/109/6
f 65/107/6 30/38/6 67/110/6
f 66/109/6 65/107/6 67/110/6
