# MagicaVoxel @ Ephtracy

# material
mtllib deadlog.mtl
usemtl palette

# normals
vn -1 0 0
vn 1 0 0
vn 0 0 1
vn 0 0 -1
vn 0 -1 0
vn 0 1 0

# texcoords
vt 0.0332031 0.5
vt 0.306641 0.5
vt 0.537109 0.5

# verts
v -12 10 20
v -12 10 -20
v -12 17 20
v -12 17 -20
v -11 8 20
v -11 8 -20
v -11 10 20
v -11 10 -20
v -11 17 20
v -11 17 -20
v -11 19 20
v -11 19 -20
v -10 7 20
v -10 7 -20
v -10 8 20
v -10 8 -20
v -10 19 20
v -10 19 -20
v -10 20 20
v -10 20 -20
v -9 6 20
v -9 6 -20
v -9 7 20
v -9 7 -20
v -9 20 20
v -9 20 -20
v -9 21 20
v -9 21 -20
v -8 5 20
v -8 5 -20
v -8 6 20
v -8 6 -20
v -8 21 20
v -8 21 -20
v -8 22 20
v -8 22 -20
v -6 4 20
v -6 4 -20
v -6 5 20
v -6 5 -20
v -6 22 20
v -6 22 -20
v -6 23 20
v -6 23 -20
v -3 23 14
v -3 23 10
v -3 24 14
v -3 24 10
v -2 23 15
v -2 23 14
v -2 23 10
v -2 23 9
v -2 24 15
v -2 24 14
v -2 24 13
v -2 24 10
v -2 24 9
v -2 24 8
v -2 25 13
v -2 25 10
v -2 25 8
v -2 25 4
v -2 25 3
v -2 26 10
v -2 26 6
v -2 26 5
v -2 26 4
v -2 26 3
v -2 30 6
v -2 30 5
v -2 30 4
v -2 30 3
v -2 31 5
v -2 31 4
v -2 32 4
v -2 32 3
v 13 13 -17
v 13 13 -18
v 13 15 -17
v 13 15 -18
v 14 13 -16
v 14 13 -17
v 14 15 -16
v 14 15 -17
v 15 13 -15
v 15 13 -16
v 15 15 -15
v 15 15 -16
v 16 13 -14
v 16 13 -15
v 16 15 -14
v 16 15 -15
v 19 13 -12
v 19 13 -14
v 19 13 -16
v 19 13 -17
v 19 15 -12
v 19 15 -14
v 19 15 -16
v 19 15 -17
v 2 23 15
v 2 23 14
v 2 23 10
v 2 23 9
v 2 24 15
v 2 24 14
v 2 24 13
v 2 24 10
v 2 24 9
v 2 24 8
v 2 25 13
v 2 25 10
v 2 25 8
v 2 25 4
v 2 25 3
v 2 26 10
v 2 26 6
v 2 26 5
v 2 26 4
v 2 26 3
v 2 30 6
v 2 30 5
v 2 30 4
v 2 30 3
v 2 31 5
v 2 31 4
v 2 32 4
v 2 32 3
v 3 23 14
v 3 23 10
v 3 24 14
v 3 24 10
v 6 4 20
v 6 4 -20
v 6 5 20
v 6 5 -20
v 6 22 20
v 6 22 -20
v 6 23 20
v 6 23 -20
v 8 5 20
v 8 5 -20
v 8 6 20
v 8 6 -20
v 8 21 20
v 8 21 -20
v 8 22 20
v 8 22 -20
v 9 6 20
v 9 6 -20
v 9 7 20
v 9 7 -20
v 9 20 20
v 9 20 -20
v 9 21 20
v 9 21 -20
v 10 7 20
v 10 7 -20
v 10 8 20
v 10 8 -20
v 10 19 20
v 10 19 -20
v 10 20 20
v 10 20 -20
v 11 8 20
v 11 8 -20
v 11 10 20
v 11 10 -20
v 11 17 20
v 11 17 -20
v 11 19 20
v 11 19 -20
v 12 10 20
v 12 10 -20
v 12 12 -9
v 12 12 -13
v 12 13 -7
v 12 13 -9
v 12 15 -7
v 12 15 -9
v 12 15 -12
v 12 15 -13
v 12 16 -9
v 12 16 -12
v 12 17 20
v 12 17 -20
v 13 12 -9
v 13 12 -13
v 13 13 -7
v 13 13 -8
v 13 13 -9
v 13 13 -12
v 13 15 -7
v 13 15 -8
v 13 15 -9
v 13 15 -12
v 13 15 -13
v 13 16 -9
v 13 16 -12
v 14 13 -8
v 14 13 -10
v 14 15 -8
v 14 15 -10
v 15 13 -17
v 15 13 -18
v 15 15 -17
v 15 15 -18
v 16 13 -10
v 16 13 -11
v 16 13 -16
v 16 13 -17
v 16 15 -10
v 16 15 -11
v 16 15 -16
v 16 15 -17
v 20 13 -11
v 20 13 -16
v 20 13 -17
v 20 15 -11
v 20 15 -16
v 20 15 -17
v -12 10 20
v -12 17 20
v -11 8 20
v -11 10 20
v -11 11 20
v -11 16 20
v -11 17 20
v -11 19 20
v -10 7 20
v -10 8 20
v -10 9 20
v -10 11 20
v -10 16 20
v -10 18 20
v -10 19 20
v -10 20 20
v -9 6 20
v -9 7 20
v -9 8 20
v -9 9 20
v -9 18 20
v -9 19 20
v -9 20 20
v -9 21 20
v -8 5 20
v -8 6 20
v -8 7 20
v -8 8 20
v -8 19 20
v -8 20 20
v -8 21 20
v -8 22 20
v -7 6 20
v -7 7 20
v -7 20 20
v -7 21 20
v -6 4 20
v -6 5 20
v -6 22 20
v -6 23 20
v -5 5 20
v -5 6 20
v -5 21 20
v -5 22 20
v 5 5 20
v 5 6 20
v 5 21 20
v 5 22 20
v 6 4 20
v 6 5 20
v 6 22 20
v 6 23 20
v 7 6 20
v 7 7 20
v 7 20 20
v 7 21 20
v 8 5 20
v 8 6 20
v 8 7 20
v 8 8 20
v 8 19 20
v 8 20 20
v 8 21 20
v 8 22 20
v 9 6 20
v 9 7 20
v 9 8 20
v 9 9 20
v 9 18 20
v 9 19 20
v 9 20 20
v 9 21 20
v 10 7 20
v 10 8 20
v 10 9 20
v 10 11 20
v 10 16 20
v 10 18 20
v 10 19 20
v 10 20 20
v 11 8 20
v 11 10 20
v 11 11 20
v 11 16 20
v 11 17 20
v 11 19 20
v 12 10 20
v 12 17 20
v -2 23 15
v -2 24 15
v 2 23 15
v 2 24 15
v -3 23 14
v -3 24 14
v -2 23 14
v -2 24 14
v 2 23 14
v 2 24 14
v 3 23 14
v 3 24 14
v -2 24 13
v -2 25 13
v 2 24 13
v 2 25 13
v -2 25 10
v -2 26 10
v 2 25 10
v 2 26 10
v -2 26 6
v -2 30 6
v 2 26 6
v 2 30 6
v -2 30 5
v -2 31 5
v 2 30 5
v 2 31 5
v -2 31 4
v -2 32 4
v 2 31 4
v 2 32 4
v 12 13 -7
v 12 15 -7
v 13 13 -7
v 13 15 -7
v 13 13 -8
v 13 15 -8
v 14 13 -8
v 14 15 -8
v 12 12 -9
v 12 13 -9
v 12 15 -9
v 12 16 -9
v 13 12 -9
v 13 13 -9
v 13 15 -9
v 13 16 -9
v 14 13 -10
v 14 15 -10
v 16 13 -10
v 16 15 -10
v 16 13 -11
v 16 15 -11
v 20 13 -11
v 20 15 -11
v 16 13 -14
v 16 15 -14
v 19 13 -14
v 19 15 -14
v 15 13 -15
v 15 15 -15
v 16 13 -15
v 16 15 -15
v 14 13 -16
v 14 15 -16
v 15 13 -16
v 15 15 -16
v 13 13 -17
v 13 15 -17
v 14 13 -17
v 14 15 -17
v -3 23 10
v -3 24 10
v -2 23 10
v -2 24 10
v 2 23 10
v 2 24 10
v 3 23 10
v 3 24 10
v -2 23 9
v -2 24 9
v 2 23 9
v 2 24 9
v -2 24 8
v -2 25 8
v 2 24 8
v 2 25 8
v -2 26 4
v -2 30 4
v 2 26 4
v 2 30 4
v -2 25 3
v -2 26 3
v -2 30 3
v -2 32 3
v 2 25 3
v 2 26 3
v 2 30 3
v 2 32 3
v 12 15 -12
v 12 16 -12
v 13 13 -12
v 13 15 -12
v 13 16 -12
v 19 13 -12
v 19 15 -12
v 12 12 -13
v 12 15 -13
v 13 12 -13
v 13 15 -13
v 16 13 -16
v 16 15 -16
v 19 13 -16
v 19 15 -16
v 15 13 -17
v 15 15 -17
v 16 13 -17
v 16 15 -17
v 19 13 -17
v 19 15 -17
v 20 13 -17
v 20 15 -17
v 13 13 -18
v 13 15 -18
v 15 13 -18
v 15 15 -18
v -12 10 -20
v -12 17 -20
v -11 8 -20
v -11 10 -20
v -11 11 -20
v -11 16 -20
v -11 17 -20
v -11 19 -20
v -10 7 -20
v -10 8 -20
v -10 9 -20
v -10 11 -20
v -10 16 -20
v -10 18 -20
v -10 19 -20
v -10 20 -20
v -9 6 -20
v -9 7 -20
v -9 8 -20
v -9 9 -20
v -9 18 -20
v -9 19 -20
v -9 20 -20
v -9 21 -20
v -8 5 -20
v -8 6 -20
v -8 7 -20
v -8 8 -20
v -8 19 -20
v -8 20 -20
v -8 21 -20
v -8 22 -20
v -7 6 -20
v -7 7 -20
v -7 20 -20
v -7 21 -20
v -6 4 -20
v -6 5 -20
v -6 22 -20
v -6 23 -20
v -5 5 -20
v -5 6 -20
v -5 21 -20
v -5 22 -20
v 5 5 -20
v 5 6 -20
v 5 21 -20
v 5 22 -20
v 6 4 -20
v 6 5 -20
v 6 22 -20
v 6 23 -20
v 7 6 -20
v 7 7 -20
v 7 20 -20
v 7 21 -20
v 8 5 -20
v 8 6 -20
v 8 7 -20
v 8 8 -20
v 8 19 -20
v 8 20 -20
v 8 21 -20
v 8 22 -20
v 9 6 -20
v 9 7 -20
v 9 8 -20
v 9 9 -20
v 9 18 -20
v 9 19 -20
v 9 20 -20
v 9 21 -20
v 10 7 -20
v 10 8 -20
v 10 9 -20
v 10 11 -20
v 10 16 -20
v 10 18 -20
v 10 19 -20
v 10 20 -20
v 11 8 -20
v 11 10 -20
v 11 11 -20
v 11 16 -20
v 11 17 -20
v 11 19 -20
v 12 10 -20
v 12 17 -20
v -6 4 20
v 6 4 20
v -6 4 -20
v 6 4 -20
v -8 5 20
v -6 5 20
v 6 5 20
v 8 5 20
v -8 5 -20
v -6 5 -20
v 6 5 -20
v 8 5 -20
v -9 6 20
v -8 6 20
v 8 6 20
v 9 6 20
v -9 6 -20
v -8 6 -20
v 8 6 -20
v 9 6 -20
v -10 7 20
v -9 7 20
v 9 7 20
v 10 7 20
v -10 7 -20
v -9 7 -20
v 9 7 -20
v 10 7 -20
v -11 8 20
v -10 8 20
v 10 8 20
v 11 8 20
v -11 8 -20
v -10 8 -20
v 10 8 -20
v 11 8 -20
v -12 10 20
v -11 10 20
v 11 10 20
v 12 10 20
v -12 10 -20
v -11 10 -20
v 11 10 -20
v 12 10 -20
v 12 12 -9
v 13 12 -9
v 12 12 -13
v 13 12 -13
v 12 13 -7
v 13 13 -7
v 13 13 -8
v 14 13 -8
v 12 13 -9
v 13 13 -9
v 14 13 -10
v 16 13 -10
v 16 13 -11
v 20 13 -11
v 13 13 -12
v 19 13 -12
v 16 13 -14
v 19 13 -14
v 15 13 -15
v 16 13 -15
v 19 13 -15
v 14 13 -16
v 15 13 -16
v 16 13 -16
v 19 13 -16
v 20 13 -16
v 13 13 -17
v 14 13 -17
v 15 13 -17
v 16 13 -17
v 19 13 -17
v 20 13 -17
v 13 13 -18
v 15 13 -18
v -2 24 9
v 2 24 9
v -2 24 8
v 2 24 8
v -2 25 8
v 2 25 8
v -2 25 4
v 2 25 4
v -2 25 3
v 2 25 3
v -2 30 4
v 2 30 4
v -2 30 3
v 2 30 3
v 12 15 -7
v 13 15 -7
v 13 15 -8
v 14 15 -8
v 12 15 -9
v 13 15 -9
v 14 15 -10
v 16 15 -10
v 16 15 -11
v 20 15 -11
v 12 15 -12
v 13 15 -12
v 19 15 -12
v 12 15 -13
v 13 15 -13
v 16 15 -14
v 19 15 -14
v 15 15 -15
v 16 15 -15
v 19 15 -15
v 14 15 -16
v 15 15 -16
v 16 15 -16
v 19 15 -16
v 20 15 -16
v 13 15 -17
v 14 15 -17
v 15 15 -17
v 16 15 -17
v 19 15 -17
v 20 15 -17
v 13 15 -18
v 15 15 -18
v 12 16 -9
v 13 16 -9
v 12 16 -12
v 13 16 -12
v -12 17 20
v -11 17 20
v 11 17 20
v 12 17 20
v -12 17 -20
v -11 17 -20
v 11 17 -20
v 12 17 -20
v -11 19 20
v -10 19 20
v 10 19 20
v 11 19 20
v -11 19 -20
v -10 19 -20
v 10 19 -20
v 11 19 -20
v -10 20 20
v -9 20 20
v 9 20 20
v 10 20 20
v -10 20 -20
v -9 20 -20
v 9 20 -20
v 10 20 -20
v -9 21 20
v -8 21 20
v 8 21 20
v 9 21 20
v -9 21 -20
v -8 21 -20
v 8 21 -20
v 9 21 -20
v -8 22 20
v -6 22 20
v 6 22 20
v 8 22 20
v -8 22 -20
v -6 22 -20
v 6 22 -20
v 8 22 -20
v -6 23 20
v 6 23 20
v -2 23 15
v 2 23 15
v -3 23 14
v -2 23 14
v 2 23 14
v 3 23 14
v -3 23 10
v -2 23 10
v 2 23 10
v 3 23 10
v -2 23 9
v 2 23 9
v -6 23 -20
v 6 23 -20
v -2 24 15
v 2 24 15
v -3 24 14
v -2 24 14
v 2 24 14
v 3 24 14
v -2 24 13
v 2 24 13
v -3 24 10
v -2 24 10
v 2 24 10
v 3 24 10
v -2 25 13
v 2 25 13
v -2 25 10
v 2 25 10
v -2 26 10
v 2 26 10
v -2 26 6
v 2 26 6
v -2 26 4
v 2 26 4
v -2 26 3
v 2 26 3
v -2 30 6
v 2 30 6
v -2 30 5
v 2 30 5
v -2 31 5
v 2 31 5
v -2 31 4
v 2 31 4
v -2 32 4
v 2 32 4
v -2 32 3
v 2 32 3

# faces
f 3/3/1 2/3/1 1/3/1
f 4/3/1 2/3/1 3/3/1
f 7/3/1 6/3/1 5/3/1
f 8/3/1 6/3/1 7/3/1
f 11/3/1 10/3/1 9/3/1
f 12/3/1 10/3/1 11/3/1
f 15/3/1 14/3/1 13/3/1
f 16/3/1 14/3/1 15/3/1
f 19/3/1 18/3/1 17/3/1
f 20/3/1 18/3/1 19/3/1
f 23/3/1 22/3/1 21/3/1
f 24/3/1 22/3/1 23/3/1
f 27/3/1 26/3/1 25/3/1
f 28/3/1 26/3/1 27/3/1
f 31/3/1 30/3/1 29/3/1
f 32/3/1 30/3/1 31/3/1
f 35/3/1 34/3/1 33/3/1
f 36/3/1 34/3/1 35/3/1
f 39/3/1 38/3/1 37/3/1
f 40/3/1 38/3/1 39/3/1
f 43/3/1 42/3/1 41/3/1
f 44/3/1 42/3/1 43/3/1
f 47/3/1 46/3/1 45/3/1
f 48/3/1 46/3/1 47/3/1
f 53/3/1 50/3/1 49/3/1
f 54/3/1 50/3/1 53/3/1
f 56/3/1 52/3/1 51/3/1
f 57/3/1 52/3/1 56/3/1
f 59/3/1 58/3/1 57/3/1
f 59/3/1 57/3/1 56/3/1
f 59/3/1 56/3/1 55/3/1
f 60/3/1 58/3/1 59/3/1
f 61/3/1 58/3/1 60/3/1
f 64/3/1 61/3/1 60/3/1
f 64/3/1 62/3/1 61/3/1
f 65/3/1 62/3/1 64/3/1
f 66/3/1 62/3/1 65/3/1
f 67/1/1 63/1/1 62/1/1
f 67/3/1 62/3/1 66/3/1
f 68/1/1 63/1/1 67/1/1
f 69/3/1 66/3/1 65/3/1
f 70/1/1 67/1/1 66/1/1
f 70/3/1 66/3/1 69/3/1
f 71/1/1 67/1/1 70/1/1
f 73/3/1 71/3/1 70/3/1
f 74/1/1 72/1/1 71/1/1
f 74/3/1 71/3/1 73/3/1
f 75/1/1 72/1/1 74/1/1
f 76/1/1 72/1/1 75/1/1
f 79/1/1 78/1/1 77/1/1
f 80/1/1 78/1/1 79/1/1
f 83/3/1 82/3/1 81/3/1
f 84/3/1 82/3/1 83/3/1
f 87/3/1 86/3/1 85/3/1
f 88/3/1 86/3/1 87/3/1
f 91/3/1 90/3/1 89/3/1
f 92/3/1 90/3/1 91/3/1
f 97/3/1 94/3/1 93/3/1
f 98/3/1 94/3/1 97/3/1
f 99/1/1 96/1/1 95/1/1
f 100/1/1 96/1/1 99/1/1
f 101/3/2 102/3/2 105/3/2
f 105/3/2 102/3/2 106/3/2
f 103/3/2 104/3/2 108/3/2
f 108/3/2 104/3/2 109/3/2
f 109/3/2 110/3/2 111/3/2
f 108/3/2 109/3/2 111/3/2
f 107/3/2 108/3/2 111/3/2
f 111/3/2 110/3/2 112/3/2
f 112/3/2 110/3/2 113/3/2
f 112/3/2 113/3/2 116/3/2
f 113/3/2 114/3/2 116/3/2
f 116/3/2 114/3/2 117/3/2
f 117/3/2 114/3/2 118/3/2
f 114/1/2 115/1/2 119/1/2
f 118/3/2 114/3/2 119/3/2
f 119/1/2 115/1/2 120/1/2
f 117/3/2 118/3/2 121/3/2
f 118/1/2 119/1/2 122/1/2
f 121/3/2 118/3/2 122/3/2
f 122/1/2 119/1/2 123/1/2
f 122/3/2 123/3/2 125/3/2
f 123/1/2 124/1/2 126/1/2
f 125/3/2 123/3/2 126/3/2
f 126/1/2 124/1/2 127/1/2
f 127/1/2 124/1/2 128/1/2
f 129/3/2 130/3/2 131/3/2
f 131/3/2 130/3/2 132/3/2
f 133/3/2 134/3/2 135/3/2
f 135/3/2 134/3/2 136/3/2
f 137/3/2 138/3/2 139/3/2
f 139/3/2 138/3/2 140/3/2
f 141/3/2 142/3/2 143/3/2
f 143/3/2 142/3/2 144/3/2
f 145/3/2 146/3/2 147/3/2
f 147/3/2 146/3/2 148/3/2
f 149/3/2 150/3/2 151/3/2
f 151/3/2 150/3/2 152/3/2
f 153/3/2 154/3/2 155/3/2
f 155/3/2 154/3/2 156/3/2
f 157/3/2 158/3/2 159/3/2
f 159/3/2 158/3/2 160/3/2
f 161/3/2 162/3/2 163/3/2
f 163/3/2 162/3/2 164/3/2
f 165/3/2 166/3/2 167/3/2
f 167/3/2 166/3/2 168/3/2
f 169/3/2 170/3/2 171/3/2
f 171/3/2 170/3/2 172/3/2
f 173/3/2 174/3/2 175/3/2
f 175/3/2 174/3/2 176/3/2
f 173/3/2 175/3/2 177/3/2
f 177/3/2 175/3/2 178/3/2
f 173/3/2 177/3/2 179/3/2
f 176/3/2 174/3/2 182/3/2
f 179/3/2 180/3/2 183/3/2
f 181/3/2 182/3/2 184/3/2
f 173/3/2 179/3/2 185/3/2
f 183/3/2 184/3/2 185/3/2
f 179/3/2 183/3/2 185/3/2
f 184/3/2 182/3/2 186/3/2
f 185/3/2 184/3/2 186/3/2
f 182/3/2 174/3/2 186/3/2
f 187/3/2 188/3/2 191/3/2
f 191/3/2 188/3/2 192/3/2
f 189/3/2 190/3/2 193/3/2
f 193/3/2 190/3/2 194/3/2
f 192/3/2 188/3/2 196/3/2
f 196/3/2 188/3/2 197/3/2
f 195/3/2 196/3/2 198/3/2
f 198/3/2 196/3/2 199/3/2
f 200/3/2 201/3/2 202/3/2
f 202/3/2 201/3/2 203/3/2
f 204/1/2 205/1/2 206/1/2
f 206/1/2 205/1/2 207/1/2
f 208/3/2 209/3/2 212/3/2
f 212/3/2 209/3/2 213/3/2
f 210/1/2 211/1/2 214/1/2
f 214/1/2 211/1/2 215/1/2
f 216/3/2 217/3/2 219/3/2
f 217/1/2 218/1/2 220/1/2
f 219/3/2 217/3/2 220/3/2
f 220/1/2 218/1/2 221/1/2
f 225/3/3 223/3/3 222/3/3
f 226/3/3 223/3/3 225/3/3
f 227/3/3 223/3/3 226/3/3
f 228/3/3 223/3/3 227/3/3
f 231/3/3 225/3/3 224/3/3
f 231/3/3 226/3/3 225/3/3
f 232/3/3 226/3/3 231/3/3
f 233/1/3 227/1/3 226/1/3
f 233/3/3 226/3/3 232/3/3
f 234/3/3 229/3/3 228/3/3
f 234/1/3 227/1/3 233/1/3
f 234/3/3 228/3/3 227/3/3
f 235/3/3 229/3/3 234/3/3
f 236/3/3 229/3/3 235/3/3
f 239/3/3 231/3/3 230/3/3
f 239/3/3 232/3/3 231/3/3
f 240/3/3 232/3/3 239/3/3
f 241/1/3 233/1/3 232/1/3
f 241/3/3 232/3/3 240/3/3
f 241/1/3 234/1/3 233/1/3
f 241/1/3 235/1/3 234/1/3
f 242/3/3 237/3/3 236/3/3
f 242/1/3 235/1/3 241/1/3
f 242/3/3 236/3/3 235/3/3
f 243/3/3 237/3/3 242/3/3
f 244/3/3 237/3/3 243/3/3
f 247/3/3 240/3/3 239/3/3
f 247/3/3 239/3/3 238/3/3
f 248/3/3 240/3/3 247/3/3
f 249/1/3 241/1/3 240/1/3
f 249/3/3 240/3/3 248/3/3
f 249/1/3 242/1/3 241/1/3
f 249/1/3 243/1/3 242/1/3
f 250/3/3 245/3/3 244/3/3
f 250/1/3 243/1/3 249/1/3
f 250/3/3 244/3/3 243/3/3
f 251/3/3 245/3/3 250/3/3
f 252/3/3 245/3/3 251/3/3
f 254/3/3 248/3/3 247/3/3
f 254/3/3 247/3/3 246/3/3
f 255/1/3 249/1/3 248/1/3
f 255/3/3 248/3/3 254/3/3
f 255/1/3 250/1/3 249/1/3
f 255/1/3 251/1/3 250/1/3
f 256/3/3 253/3/3 252/3/3
f 256/1/3 251/1/3 255/1/3
f 256/3/3 252/3/3 251/3/3
f 257/3/3 253/3/3 256/3/3
f 259/3/3 254/3/3 246/3/3
f 260/3/3 253/3/3 257/3/3
f 262/3/3 259/3/3 258/3/3
f 262/3/3 254/3/3 259/3/3
f 263/1/3 255/1/3 254/1/3
f 263/3/3 254/3/3 262/3/3
f 263/1/3 256/1/3 255/1/3
f 263/1/3 257/1/3 256/1/3
f 264/3/3 261/3/3 260/3/3
f 264/1/3 257/1/3 263/1/3
f 264/3/3 260/3/3 257/3/3
f 265/3/3 261/3/3 264/3/3
f 266/1/3 263/1/3 262/1/3
f 266/3/3 262/3/3 258/3/3
f 266/1/3 265/1/3 264/1/3
f 266/1/3 264/1/3 263/1/3
f 267/1/3 265/1/3 266/1/3
f 268/1/3 265/1/3 267/1/3
f 269/3/3 261/3/3 265/3/3
f 269/1/3 265/1/3 268/1/3
f 270/3/3 266/3/3 258/3/3
f 270/3/3 267/3/3 266/3/3
f 271/3/3 267/3/3 270/3/3
f 272/3/3 261/3/3 269/3/3
f 272/3/3 269/3/3 268/3/3
f 273/3/3 261/3/3 272/3/3
f 274/1/3 268/1/3 267/1/3
f 274/3/3 267/3/3 271/3/3
f 275/1/3 268/1/3 274/1/3
f 276/1/3 268/1/3 275/1/3
f 277/3/3 272/3/3 268/3/3
f 277/1/3 268/1/3 276/1/3
f 278/3/3 274/3/3 271/3/3
f 278/3/3 275/3/3 274/3/3
f 279/3/3 275/3/3 278/3/3
f 280/1/3 276/1/3 275/1/3
f 280/3/3 275/3/3 279/3/3
f 281/1/3 276/1/3 280/1/3
f 282/1/3 276/1/3 281/1/3
f 283/3/3 277/3/3 276/3/3
f 283/1/3 276/1/3 282/1/3
f 284/3/3 272/3/3 277/3/3
f 284/3/3 277/3/3 283/3/3
f 285/3/3 272/3/3 284/3/3
f 286/3/3 280/3/3 279/3/3
f 286/3/3 281/3/3 280/3/3
f 287/3/3 281/3/3 286/3/3
f 288/1/3 282/1/3 281/1/3
f 288/3/3 281/3/3 287/3/3
f 289/1/3 282/1/3 288/1/3
f 290/1/3 282/1/3 289/1/3
f 291/3/3 283/3/3 282/3/3
f 291/1/3 282/1/3 290/1/3
f 291/3/3 284/3/3 283/3/3
f 292/3/3 284/3/3 291/3/3
f 293/3/3 284/3/3 292/3/3
f 294/3/3 289/3/3 288/3/3
f 294/3/3 288/3/3 287/3/3
f 295/3/3 289/3/3 294/3/3
f 296/1/3 290/1/3 289/1/3
f 296/3/3 289/3/3 295/3/3
f 297/1/3 290/1/3 296/1/3
f 298/1/3 290/1/3 297/1/3
f 299/3/3 292/3/3 291/3/3
f 299/1/3 290/1/3 298/1/3
f 299/3/3 291/3/3 290/3/3
f 300/3/3 292/3/3 299/3/3
f 301/3/3 292/3/3 300/3/3
f 302/3/3 297/3/3 296/3/3
f 302/3/3 296/3/3 295/3/3
f 303/3/3 297/3/3 302/3/3
f 304/1/3 298/1/3 297/1/3
f 304/3/3 297/3/3 303/3/3
f 305/3/3 300/3/3 299/3/3
f 305/1/3 298/1/3 304/1/3
f 305/3/3 299/3/3 298/3/3
f 306/3/3 300/3/3 305/3/3
f 307/3/3 300/3/3 306/3/3
f 308/3/3 304/3/3 303/3/3
f 308/3/3 306/3/3 305/3/3
f 308/3/3 305/3/3 304/3/3
f 309/3/3 306/3/3 308/3/3
f 312/3/3 311/3/3 310/3/3
f 313/3/3 311/3/3 312/3/3
f 316/3/3 315/3/3 314/3/3
f 317/3/3 315/3/3 316/3/3
f 320/3/3 319/3/3 318/3/3
f 321/3/3 319/3/3 320/3/3
f 324/3/3 323/3/3 322/3/3
f 325/3/3 323/3/3 324/3/3
f 328/3/3 327/3/3 326/3/3
f 329/3/3 327/3/3 328/3/3
f 332/3/3 331/3/3 330/3/3
f 333/3/3 331/3/3 332/3/3
f 336/3/3 335/3/3 334/3/3
f 337/3/3 335/3/3 336/3/3
f 340/1/3 339/1/3 338/1/3
f 341/1/3 339/1/3 340/1/3
f 344/3/3 343/3/3 342/3/3
f 345/3/3 343/3/3 344/3/3
f 348/3/3 347/3/3 346/3/3
f 349/3/3 347/3/3 348/3/3
f 354/3/3 351/3/3 350/3/3
f 355/3/3 351/3/3 354/3/3
f 356/3/3 353/3/3 352/3/3
f 357/3/3 353/3/3 356/3/3
f 360/3/3 359/3/3 358/3/3
f 361/3/3 359/3/3 360/3/3
f 364/3/3 363/3/3 362/3/3
f 365/3/3 363/3/3 364/3/3
f 368/3/3 367/3/3 366/3/3
f 369/3/3 367/3/3 368/3/3
f 372/3/3 371/3/3 370/3/3
f 373/3/3 371/3/3 372/3/3
f 376/3/3 375/3/3 374/3/3
f 377/3/3 375/3/3 376/3/3
f 380/1/3 379/1/3 378/1/3
f 381/1/3 379/1/3 380/1/3
f 382/3/4 383/3/4 384/3/4
f 384/3/4 383/3/4 385/3/4
f 386/3/4 387/3/4 388/3/4
f 388/3/4 387/3/4 389/3/4
f 390/3/4 391/3/4 392/3/4
f 392/3/4 391/3/4 393/3/4
f 394/3/4 395/3/4 396/3/4
f 396/3/4 395/3/4 397/3/4
f 398/1/4 399/1/4 400/1/4
f 400/1/4 399/1/4 401/1/4
f 402/1/4 403/1/4 406/1/4
f 406/1/4 403/1/4 407/1/4
f 404/1/4 405/1/4 408/1/4
f 408/1/4 405/1/4 409/1/4
f 410/3/4 411/3/4 413/3/4
f 413/3/4 411/3/4 414/3/4
f 412/3/4 413/3/4 415/3/4
f 415/3/4 413/3/4 416/3/4
f 417/3/4 418/3/4 419/3/4
f 419/3/4 418/3/4 420/3/4
f 421/1/4 422/1/4 423/1/4
f 423/1/4 422/1/4 424/1/4
f 425/1/4 426/1/4 427/1/4
f 427/1/4 426/1/4 428/1/4
f 429/1/4 430/1/4 431/1/4
f 431/1/4 430/1/4 432/1/4
f 433/1/4 434/1/4 435/1/4
f 435/1/4 434/1/4 436/1/4
f 437/3/4 438/3/4 440/3/4
f 440/3/4 438/3/4 441/3/4
f 441/3/4 438/3/4 442/3/4
f 442/3/4 438/3/4 443/3/4
f 439/3/4 440/3/4 446/3/4
f 440/3/4 441/3/4 446/3/4
f 446/3/4 441/3/4 447/3/4
f 441/1/4 442/1/4 448/1/4
f 447/3/4 441/3/4 448/3/4
f 443/3/4 444/3/4 449/3/4
f 448/1/4 442/1/4 449/1/4
f 442/3/4 443/3/4 449/3/4
f 449/3/4 444/3/4 450/3/4
f 450/3/4 444/3/4 451/3/4
f 445/3/4 446/3/4 454/3/4
f 446/3/4 447/3/4 454/3/4
f 454/3/4 447/3/4 455/3/4
f 447/1/4 448/1/4 456/1/4
f 455/3/4 447/3/4 456/3/4
f 448/1/4 449/1/4 456/1/4
f 449/1/4 450/1/4 456/1/4
f 451/3/4 452/3/4 457/3/4
f 456/1/4 450/1/4 457/1/4
f 450/3/4 451/3/4 457/3/4
f 457/3/4 452/3/4 458/3/4
f 458/3/4 452/3/4 459/3/4
f 454/3/4 455/3/4 462/3/4
f 453/3/4 454/3/4 462/3/4
f 462/3/4 455/3/4 463/3/4
f 455/1/4 456/1/4 464/1/4
f 463/3/4 455/3/4 464/3/4
f 456/1/4 457/1/4 464/1/4
f 457/1/4 458/1/4 464/1/4
f 459/3/4 460/3/4 465/3/4
f 464/1/4 458/1/4 465/1/4
f 458/3/4 459/3/4 465/3/4
f 465/3/4 460/3/4 466/3/4
f 466/3/4 460/3/4 467/3/4
f 462/3/4 463/3/4 469/3/4
f 461/3/4 462/3/4 469/3/4
f 463/1/4 464/1/4 470/1/4
f 469/3/4 463/3/4 470/3/4
f 464/1/4 465/1/4 470/1/4
f 465/1/4 466/1/4 470/1/4
f 467/3/4 468/3/4 471/3/4
f 470/1/4 466/1/4 471/1/4
f 466/3/4 467/3/4 471/3/4
f 471/3/4 468/3/4 472/3/4
f 461/3/4 469/3/4 474/3/4
f 472/3/4 468/3/4 475/3/4
f 473/3/4 474/3/4 477/3/4
f 474/3/4 469/3/4 477/3/4
f 469/1/4 470/1/4 478/1/4
f 477/3/4 469/3/4 478/3/4
f 470/1/4 471/1/4 478/1/4
f 471/1/4 472/1/4 478/1/4
f 475/3/4 476/3/4 479/3/4
f 478/1/4 472/1/4 479/1/4
f 472/3/4 475/3/4 479/3/4
f 479/3/4 476/3/4 480/3/4
f 477/1/4 478/1/4 481/1/4
f 473/3/4 477/3/4 481/3/4
f 479/1/4 480/1/4 481/1/4
f 478/1/4 479/1/4 481/1/4
f 481/1/4 480/1/4 482/1/4
f 482/1/4 480/1/4 483/1/4
f 480/3/4 476/3/4 484/3/4
f 483/1/4 480/1/4 484/1/4
f 473/3/4 481/3/4 485/3/4
f 481/3/4 482/3/4 485/3/4
f 485/3/4 482/3/4 486/3/4
f 484/3/4 476/3/4 487/3/4
f 483/3/4 484/3/4 487/3/4
f 487/3/4 476/3/4 488/3/4
f 482/1/4 483/1/4 489/1/4
f 486/3/4 482/3/4 489/3/4
f 489/1/4 483/1/4 490/1/4
f 490/1/4 483/1/4 491/1/4
f 483/3/4 487/3/4 492/3/4
f 491/1/4 483/1/4 492/1/4
f 486/3/4 489/3/4 493/3/4
f 489/3/4 490/3/4 493/3/4
f 493/3/4 490/3/4 494/3/4
f 490/1/4 491/1/4 495/1/4
f 494/3/4 490/3/4 495/3/4
f 495/1/4 491/1/4 496/1/4
f 496/1/4 491/1/4 497/1/4
f 491/3/4 492/3/4 498/3/4
f 497/1/4 491/1/4 498/1/4
f 492/3/4 487/3/4 499/3/4
f 498/3/4 492/3/4 499/3/4
f 499/3/4 487/3/4 500/3/4
f 494/3/4 495/3/4 501/3/4
f 495/3/4 496/3/4 501/3/4
f 501/3/4 496/3/4 502/3/4
f 496/1/4 497/1/4 503/1/4
f 502/3/4 496/3/4 503/3/4
f 503/1/4 497/1/4 504/1/4
f 504/1/4 497/1/4 505/1/4
f 497/3/4 498/3/4 506/3/4
f 505/1/4 497/1/4 506/1/4
f 498/3/4 499/3/4 506/3/4
f 506/3/4 499/3/4 507/3/4
f 507/3/4 499/3/4 508/3/4
f 503/3/4 504/3/4 509/3/4
f 502/3/4 503/3/4 509/3/4
f 509/3/4 504/3/4 510/3/4
f 504/1/4 505/1/4 511/1/4
f 510/3/4 504/3/4 511/3/4
f 511/1/4 505/1/4 512/1/4
f 512/1/4 505/1/4 513/1/4
f 506/3/4 507/3/4 514/3/4
f 513/1/4 505/1/4 514/1/4
f 505/3/4 506/3/4 514/3/4
f 514/3/4 507/3/4 515/3/4
f 515/3/4 507/3/4 516/3/4
f 511/3/4 512/3/4 517/3/4
f 510/3/4 511/3/4 517/3/4
f 517/3/4 512/3/4 518/3/4
f 512/1/4 513/1/4 519/1/4
f 518/3/4 512/3/4 519/3/4
f 514/3/4 515/3/4 520/3/4
f 519/1/4 513/1/4 520/1/4
f 513/3/4 514/3/4 520/3/4
f 520/3/4 515/3/4 521/3/4
f 521/3/4 515/3/4 522/3/4
f 518/3/4 519/3/4 523/3/4
f 520/3/4 521/3/4 523/3/4
f 519/3/4 520/3/4 523/3/4
f 523/3/4 521/3/4 524/3/4
f 527/3/5 526/3/5 525/3/5
f 528/3/5 526/3/5 527/3/5
f 533/3/5 530/3/5 529/3/5
f 534/3/5 530/3/5 533/3/5
f 535/3/5 532/3/5 531/3/5
f 536/3/5 532/3/5 535/3/5
f 541/3/5 538/3/5 537/3/5
f 542/3/5 538/3/5 541/3/5
f 543/3/5 540/3/5 539/3/5
f 544/3/5 540/3/5 543/3/5
f 549/3/5 546/3/5 545/3/5
f 550/3/5 546/3/5 549/3/5
f 551/3/5 548/3/5 547/3/5
f 552/3/5 548/3/5 551/3/5
f 557/3/5 554/3/5 553/3/5
f 558/3/5 554/3/5 557/3/5
f 559/3/5 556/3/5 555/3/5
f 560/3/5 556/3/5 559/3/5
f 565/3/5 562/3/5 561/3/5
f 566/3/5 562/3/5 565/3/5
f 567/3/5 564/3/5 563/3/5
f 568/3/5 564/3/5 567/3/5
f 571/3/5 570/3/5 569/3/5
f 572/3/5 570/3/5 571/3/5
f 575/3/5 574/3/5 573/3/5
f 577/3/5 575/3/5 573/3/5
f 577/3/5 576/3/5 575/3/5
f 578/3/5 576/3/5 577/3/5
f 579/3/5 576/3/5 578/3/5
f 581/3/5 580/3/5 579/3/5
f 583/3/5 579/3/5 578/3/5
f 583/3/5 582/3/5 581/3/5
f 583/3/5 581/3/5 579/3/5
f 584/3/5 582/3/5 583/3/5
f 586/3/5 582/3/5 584/3/5
f 588/3/5 586/3/5 585/3/5
f 589/3/5 582/3/5 586/3/5
f 589/3/5 586/3/5 588/3/5
f 591/3/5 588/3/5 587/3/5
f 592/1/5 589/1/5 588/1/5
f 592/3/5 588/3/5 591/3/5
f 593/3/5 582/3/5 589/3/5
f 593/1/5 589/1/5 592/1/5
f 594/3/5 582/3/5 593/3/5
f 596/3/5 591/3/5 590/3/5
f 597/1/5 592/1/5 591/1/5
f 597/3/5 591/3/5 596/3/5
f 598/1/5 592/1/5 597/1/5
f 599/1/5 594/1/5 593/1/5
f 600/1/5 594/1/5 599/1/5
f 601/1/5 596/1/5 595/1/5
f 601/1/5 597/1/5 596/1/5
f 602/1/5 597/1/5 601/1/5
f 605/3/5 604/3/5 603/3/5
f 606/3/5 604/3/5 605/3/5
f 609/3/5 608/3/5 607/3/5
f 610/3/5 608/3/5 609/3/5
f 611/1/5 610/1/5 609/1/5
f 612/1/5 610/1/5 611/1/5
f 615/1/5 614/1/5 613/1/5
f 616/1/5 614/1/5 615/1/5
f 617/3/6 618/3/6 619/3/6
f 617/3/6 619/3/6 621/3/6
f 619/3/6 620/3/6 621/3/6
f 621/3/6 620/3/6 622/3/6
f 622/3/6 620/3/6 623/3/6
f 623/3/6 624/3/6 625/3/6
f 622/3/6 623/3/6 628/3/6
f 625/3/6 626/3/6 628/3/6
f 623/3/6 625/3/6 628/3/6
f 628/3/6 626/3/6 629/3/6
f 627/3/6 628/3/6 630/3/6
f 630/3/6 628/3/6 631/3/6
f 629/3/6 626/3/6 633/3/6
f 632/3/6 633/3/6 635/3/6
f 633/3/6 626/3/6 636/3/6
f 635/3/6 633/3/6 636/3/6
f 634/3/6 635/3/6 638/3/6
f 635/1/6 636/1/6 639/1/6
f 638/3/6 635/3/6 639/3/6
f 636/3/6 626/3/6 640/3/6
f 639/1/6 636/1/6 640/1/6
f 640/3/6 626/3/6 641/3/6
f 637/3/6 638/3/6 643/3/6
f 638/1/6 639/1/6 644/1/6
f 643/3/6 638/3/6 644/3/6
f 644/1/6 639/1/6 645/1/6
f 640/1/6 641/1/6 646/1/6
f 646/1/6 641/1/6 647/1/6
f 642/1/6 643/1/6 648/1/6
f 643/1/6 644/1/6 648/1/6
f 648/1/6 644/1/6 649/1/6
f 650/3/6 651/3/6 652/3/6
f 652/3/6 651/3/6 653/3/6
f 654/3/6 655/3/6 658/3/6
f 658/3/6 655/3/6 659/3/6
f 656/3/6 657/3/6 660/3/6
f 660/3/6 657/3/6 661/3/6
f 662/3/6 663/3/6 666/3/6
f 666/3/6 663/3/6 667/3/6
f 664/3/6 665/3/6 668/3/6
f 668/3/6 665/3/6 669/3/6
f 670/3/6 671/3/6 674/3/6
f 674/3/6 671/3/6 675/3/6
f 672/3/6 673/3/6 676/3/6
f 676/3/6 673/3/6 677/3/6
f 678/3/6 679/3/6 682/3/6
f 682/3/6 679/3/6 683/3/6
f 680/3/6 681/3/6 684/3/6
f 684/3/6 681/3/6 685/3/6
f 686/3/6 687/3/6 690/3/6
f 690/3/6 687/3/6 691/3/6
f 688/3/6 689/3/6 692/3/6
f 692/3/6 689/3/6 693/3/6
f 694/3/6 695/3/6 696/3/6
f 696/3/6 695/3/6 697/3/6
f 694/3/6 696/3/6 698/3/6
f 698/3/6 696/3/6 699/3/6
f 697/3/6 695/3/6 700/3/6
f 700/3/6 695/3/6 701/3/6
f 694/3/6 698/3/6 702/3/6
f 701/3/6 695/3/6 705/3/6
f 702/3/6 703/3/6 706/3/6
f 704/3/6 705/3/6 707/3/6
f 702/3/6 706/3/6 708/3/6
f 706/3/6 707/3/6 708/3/6
f 694/3/6 702/3/6 708/3/6
f 707/3/6 705/3/6 709/3/6
f 708/3/6 707/3/6 709/3/6
f 705/3/6 695/3/6 709/3/6
f 710/3/6 711/3/6 713/3/6
f 713/3/6 711/3/6 714/3/6
f 712/3/6 713/3/6 716/3/6
f 714/3/6 715/3/6 716/3/6
f 713/3/6 714/3/6 716/3/6
f 716/3/6 715/3/6 717/3/6
f 712/3/6 716/3/6 718/3/6
f 718/3/6 716/3/6 719/3/6
f 717/3/6 715/3/6 720/3/6
f 720/3/6 715/3/6 721/3/6
f 722/3/6 723/3/6 724/3/6
f 724/3/6 723/3/6 725/3/6
f 726/3/6 727/3/6 728/3/6
f 728/3/6 727/3/6 729/3/6
f 730/1/6 731/1/6 732/1/6
f 732/1/6 731/1/6 733/1/6
f 734/3/6 735/3/6 736/3/6
f 736/3/6 735/3/6 737/3/6
f 738/3/6 739/3/6 740/3/6
f 740/3/6 739/3/6 741/3/6
f 742/1/6 743/1/6 744/1/6
f 744/1/6 743/1/6 745/1/6
