# Blender v2.78 (sub 0) OBJ File: ''
# www.blender.org
mtllib Boulder.mtl
o Boulder
v -1.918919 2.712058 2.081083
v -1.918919 0.712059 -1.918917
v -1.918919 0.712058 2.081082
v -1.918919 2.712059 1.081083
v -1.918919 2.712059 -0.918917
v -1.918919 2.712059 -1.918917
v -1.918919 3.712059 1.081083
v -1.918919 3.712059 -0.918917
v -0.918919 3.712058 2.081083
v -0.918919 2.712059 1.081083
v -0.918919 2.712058 2.081083
v -0.918919 3.712059 1.081083
v -0.918919 3.712059 -0.918917
v -0.918919 2.712059 -1.918917
v -0.918919 2.712059 -0.918917
v -0.918919 3.712059 -1.918917
v -0.918919 4.712058 1.081083
v -0.918919 4.712059 -0.918917
v 0.081081 4.712058 2.081083
v 0.081081 3.712059 1.081083
v 0.081081 3.712058 2.081083
v 0.081081 4.712058 1.081083
v 1.081081 2.712059 -0.918917
v 1.081081 2.712059 -1.918917
v 1.081081 3.712059 -0.918917
v 1.081081 3.712059 -1.918917
v 1.081081 3.712059 0.081083
v 1.081081 4.712058 0.081083
v 1.081081 4.712059 -0.918917
v 2.081081 0.712058 2.081082
v 2.081081 0.712059 -1.918917
v 2.081081 2.712059 -0.918917
v 2.081081 2.712059 -1.918917
v 2.081081 3.712059 0.081083
v 2.081081 3.712059 -0.918917
v 2.081081 4.712058 2.081083
v 2.081081 4.712058 0.081083
v -0.918919 2.712058 2.081083
v -1.918919 2.712058 2.081083
v -1.918919 0.712058 2.081082
v 0.081081 3.712058 2.081083
v -0.918919 3.712058 2.081083
v 2.081081 0.712058 2.081082
v 0.081081 4.712058 2.081083
v 2.081081 4.712058 2.081083
v -0.918919 2.712059 1.081083
v -1.918919 3.712059 1.081083
v -1.918919 2.712059 1.081083
v -0.918919 3.712059 1.081083
v 0.081081 3.712059 1.081083
v -0.918919 4.712058 1.081083
v 0.081081 4.712058 1.081083
v 1.081081 3.712059 0.081083
v 1.081081 4.712058 0.081083
v 2.081081 3.712059 0.081083
v 2.081081 4.712058 0.081083
v -1.918919 2.712059 -0.918917
v -1.918919 3.712059 -0.918917
v -0.918919 2.712059 -0.918917
v -0.918919 3.712059 -0.918917
v -0.918919 4.712059 -0.918917
v 1.081081 3.712059 -0.918917
v 1.081081 4.712059 -0.918917
v 1.081081 2.712059 -0.918917
v 2.081081 2.712059 -0.918917
v 2.081081 3.712059 -0.918917
v -1.918919 0.712059 -1.918917
v -1.918919 2.712059 -1.918917
v -0.918919 2.712059 -1.918917
v 1.081081 2.712059 -1.918917
v -0.918919 3.712059 -1.918917
v 1.081081 3.712059 -1.918917
v 2.081081 0.712059 -1.918917
v 2.081081 2.712059 -1.918917
v -1.918919 0.712059 -1.918917
v 2.081081 0.712058 2.081082
v -1.918919 0.712058 2.081082
v 2.081081 0.712059 -1.918917
v -1.918919 2.712058 2.081083
v -0.918919 2.712058 2.081083
v -1.918919 2.712059 1.081083
v -0.918919 2.712059 1.081083
v -1.918919 2.712059 -0.918917
v -0.918919 2.712059 -0.918917
v -1.918919 2.712059 -1.918917
v -0.918919 2.712059 -1.918917
v 1.081081 2.712059 -0.918917
v 2.081081 2.712059 -0.918917
v 1.081081 2.712059 -1.918917
v 2.081081 2.712059 -1.918917
v -0.918919 3.712058 2.081083
v 0.081081 3.712058 2.081083
v -0.918919 3.712059 1.081083
v 0.081081 3.712059 1.081083
v -1.918919 3.712059 1.081083
v -1.918919 3.712059 -0.918917
v -0.918919 3.712059 -0.918917
v 1.081081 3.712059 0.081083
v 2.081081 3.712059 0.081083
v 1.081081 3.712059 -0.918917
v 2.081081 3.712059 -0.918917
v -0.918919 3.712059 -1.918917
v 1.081081 3.712059 -1.918917
v 0.081081 4.712058 2.081083
v 2.081081 4.712058 2.081083
v 0.081081 4.712058 1.081083
v 1.081081 4.712058 0.081083
v -0.918919 4.712058 1.081083
v 2.081081 4.712058 0.081083
v -0.918919 4.712059 -0.918917
v 1.081081 4.712059 -0.918917
vt 0.9668 0.5000
vt 0.9668 0.5000
vt 0.9668 0.5000
vt 0.9668 0.5000
vt 0.9668 0.5000
vt 0.9668 0.5000
vt 0.9668 0.5000
vt 0.9668 0.5000
vt 0.9668 0.5000
vt 0.9668 0.5000
vt 0.9668 0.5000
vt 0.9668 0.5000
vt 0.9668 0.5000
vt 0.9668 0.5000
vt 0.9668 0.5000
vt 0.9668 0.5000
vt 0.9668 0.5000
vt 0.9668 0.5000
vt 0.9668 0.5000
vt 0.9668 0.5000
vt 0.9668 0.5000
vt 0.9668 0.5000
vt 0.9668 0.5000
vt 0.9668 0.5000
vt 0.9668 0.5000
vt 0.9668 0.5000
vt 0.9668 0.5000
vt 0.9668 0.5000
vt 0.9668 0.5000
vt 0.9668 0.5000
vt 0.9668 0.5000
vt 0.9668 0.5000
vt 0.9668 0.5000
vt 0.9668 0.5000
vt 0.9668 0.5000
vt 0.9668 0.5000
vt 0.9668 0.5000
vt 0.9668 0.5000
vt 0.9668 0.5000
vt 0.9668 0.5000
vt 0.9668 0.5000
vt 0.9668 0.5000
vt 0.9668 0.5000
vt 0.9668 0.5000
vt 0.9668 0.5000
vt 0.9668 0.5000
vt 0.9668 0.5000
vt 0.9668 0.5000
vt 0.9668 0.5000
vt 0.9668 0.5000
vt 0.9668 0.5000
vt 0.9668 0.5000
vt 0.9668 0.5000
vt 0.9668 0.5000
vt 0.9668 0.5000
vt 0.9668 0.5000
vt 0.9668 0.5000
vt 0.9668 0.5000
vt 0.9668 0.5000
vt 0.9668 0.5000
vt 0.9668 0.5000
vt 0.9668 0.5000
vt 0.9668 0.5000
vt 0.9668 0.5000
vt 0.9668 0.5000
vt 0.9668 0.5000
vt 0.9668 0.5000
vt 0.9668 0.5000
vt 0.9668 0.5000
vt 0.9668 0.5000
vt 0.9668 0.5000
vt 0.9668 0.5000
vt 0.9668 0.5000
vt 0.9668 0.5000
vt 0.9668 0.5000
vt 0.9668 0.5000
vt 0.9668 0.5000
vt 0.9668 0.5000
vt 0.9668 0.5000
vt 0.9668 0.5000
vt 0.9668 0.5000
vt 0.9668 0.5000
vt 0.9668 0.5000
vt 0.9668 0.5000
vt 0.9668 0.5000
vt 0.9668 0.5000
vt 0.9668 0.5000
vt 0.9668 0.5000
vt 0.9668 0.5000
vt 0.9668 0.5000
vt 0.9668 0.5000
vt 0.9668 0.5000
vt 0.9668 0.5000
vt 0.9668 0.5000
vt 0.9668 0.5000
vt 0.9668 0.5000
vt 0.9668 0.5000
vt 0.9668 0.5000
vt 0.9668 0.5000
vt 0.9668 0.5000
vt 0.9668 0.5000
vt 0.9668 0.5000
vt 0.9668 0.5000
vt 0.9668 0.5000
vt 0.9668 0.5000
vt 0.9668 0.5000
vt 0.9668 0.5000
vt 0.9668 0.5000
vt 0.9668 0.5000
vt 0.9668 0.5000
vt 0.9668 0.5000
vn -1.0000 0.0000 0.0000
vn 1.0000 -0.0000 0.0000
vn -0.0000 -0.0000 1.0000
vn 0.0000 0.0000 -1.0000
vn 0.0000 -1.0000 -0.0000
vn 0.0000 1.0000 0.0000
usemtl palette
s 1
f 1/1/1 2/2/1 3/3/1
f 4/4/1 2/2/1 1/1/1
f 5/5/1 2/2/1 4/4/1
f 6/6/1 2/2/1 5/5/1
f 7/7/1 5/5/1 4/4/1
f 8/8/1 5/5/1 7/7/1
f 9/9/1 10/10/1 11/11/1
f 12/12/1 10/10/1 9/9/1
f 13/13/1 14/14/1 15/15/1
f 16/16/1 14/14/1 13/13/1
f 17/17/1 13/13/1 12/12/1
f 18/18/1 13/13/1 17/17/1
f 19/19/1 20/20/1 21/21/1
f 22/22/1 20/20/1 19/19/1
f 23/23/2 24/24/2 25/25/2
f 25/25/2 24/24/2 26/26/2
f 27/27/2 25/25/2 28/28/2
f 28/28/2 25/25/2 29/29/2
f 30/30/2 31/31/2 32/32/2
f 32/32/2 31/31/2 33/33/2
f 30/30/2 32/32/2 34/34/2
f 34/34/2 32/32/2 35/35/2
f 30/30/2 34/34/2 36/36/2
f 36/36/2 34/34/2 37/37/2
f 38/38/3 39/39/3 40/40/3
f 41/41/3 42/42/3 38/38/3
f 43/43/3 38/38/3 40/40/3
f 43/43/3 44/44/3 41/41/3
f 43/43/3 41/41/3 38/38/3
f 45/45/3 44/44/3 43/43/3
f 46/46/3 47/47/3 48/48/3
f 49/49/3 47/47/3 46/46/3
f 50/50/3 51/51/3 49/49/3
f 52/52/3 51/51/3 50/50/3
f 53/53/4 54/54/4 55/55/4
f 55/55/4 54/54/4 56/56/4
f 57/57/4 58/58/4 59/59/4
f 59/59/4 58/58/4 60/60/4
f 60/60/4 61/61/4 62/62/4
f 62/62/4 61/61/4 63/63/4
f 64/64/4 62/62/4 65/65/4
f 65/65/4 62/62/4 66/66/4
f 67/67/4 68/68/4 69/69/4
f 67/67/4 69/69/4 70/70/4
f 69/69/4 71/71/4 70/70/4
f 70/70/4 71/71/4 72/72/4
f 67/67/4 70/70/4 73/73/4
f 73/73/4 70/70/4 74/74/4
f 75/75/5 76/76/5 77/77/5
f 78/78/5 76/76/5 75/75/5
f 79/79/6 80/80/6 81/81/6
f 81/81/6 80/80/6 82/82/6
f 83/83/6 84/84/6 85/85/6
f 85/85/6 84/84/6 86/86/6
f 87/87/6 88/88/6 89/89/6
f 89/89/6 88/88/6 90/90/6
f 91/91/6 92/92/6 93/93/6
f 93/93/6 92/92/6 94/94/6
f 95/95/6 93/93/6 96/96/6
f 96/96/6 93/93/6 97/97/6
f 98/98/6 99/99/6 100/100/6
f 100/100/6 99/99/6 101/101/6
f 97/97/6 100/100/6 102/102/6
f 102/102/6 100/100/6 103/103/6
f 104/104/6 105/105/6 106/106/6
f 106/106/6 105/105/6 107/107/6
f 108/108/6 106/106/6 107/107/6
f 107/107/6 105/105/6 109/109/6
f 108/108/6 107/107/6 110/110/6
f 110/110/6 107/107/6 111/111/6
