# Blender v2.78 (sub 0) OBJ File: ''
# www.blender.org
mtllib Coin.mtl
o Coin.001
v -6.512820 1.041720 0.500000
v -6.512820 0.041720 -0.500000
v -6.512820 0.041720 0.500000
v -6.512820 1.041720 -0.500000
v -5.512820 1.041719 1.500000
v -5.512820 0.041720 0.500000
v -5.512820 0.041719 1.500000
v -5.512820 1.041720 0.500000
v -5.512820 1.041720 -0.500000
v -5.512820 0.041720 -1.500000
v -5.512820 0.041720 -0.500000
v -5.512820 1.041720 -1.500000
v -4.512820 1.041719 2.500000
v -4.512820 0.041719 1.500000
v -4.512820 0.041719 2.500000
v -4.512820 1.041719 1.500000
v -4.512820 1.041720 -1.500000
v -4.512820 0.041720 -2.500000
v -4.512820 0.041720 -1.500000
v -4.512820 1.041720 -2.500000
v -2.512820 1.041719 4.500000
v -2.512820 0.041719 2.500000
v -2.512820 0.041719 4.500000
v -2.512820 1.041719 2.500000
v -2.512820 1.041720 -2.500000
v -2.512820 0.041720 -4.500000
v -2.512820 0.041720 -2.500000
v -2.512820 1.041720 -4.500000
v -1.512820 1.041719 5.500000
v -1.512820 0.041719 4.500000
v -1.512820 0.041719 5.500000
v -1.512820 1.041719 4.500000
v -1.512820 1.041720 -4.500000
v -1.512820 0.041721 -5.500000
v -1.512820 0.041720 -4.500000
v -1.512820 1.041721 -5.500000
v -0.512820 1.041719 6.500000
v -0.512820 0.041719 5.500000
v -0.512820 0.041719 6.500000
v -0.512820 1.041719 5.500000
v -0.512820 1.041721 -5.500000
v -0.512820 0.041721 -6.500000
v -0.512820 0.041721 -5.500000
v -0.512820 1.041721 -6.500000
v 0.487180 0.041719 6.500000
v 0.487180 0.041719 5.500000
v 0.487180 1.041719 6.500000
v 0.487180 1.041719 5.500000
v 0.487180 0.041721 -5.500000
v 0.487180 0.041721 -6.500000
v 0.487180 1.041721 -5.500000
v 0.487180 1.041721 -6.500000
v 1.487180 0.041719 5.500000
v 1.487180 0.041719 4.500000
v 1.487180 1.041719 5.500000
v 1.487180 1.041719 4.500000
v 1.487180 0.041720 -4.500000
v 1.487180 0.041721 -5.500000
v 1.487180 1.041720 -4.500000
v 1.487180 1.041721 -5.500000
v 2.487180 0.041719 4.500000
v 2.487180 0.041719 2.500000
v 2.487180 1.041719 4.500000
v 2.487180 1.041719 2.500000
v 2.487180 0.041720 -2.500000
v 2.487180 0.041720 -4.500000
v 2.487180 1.041720 -2.500000
v 2.487180 1.041720 -4.500000
v 4.487180 0.041719 2.500000
v 4.487180 0.041719 1.500000
v 4.487180 1.041719 2.500000
v 4.487180 1.041719 1.500000
v 4.487180 0.041720 -1.500000
v 4.487180 0.041720 -2.500000
v 4.487180 1.041720 -1.500000
v 4.487180 1.041720 -2.500000
v 5.487180 0.041719 1.500000
v 5.487180 0.041720 0.500000
v 5.487180 1.041719 1.500000
v 5.487180 1.041720 0.500000
v 5.487180 0.041720 -0.500000
v 5.487180 0.041720 -1.500000
v 5.487180 1.041720 -0.500000
v 5.487180 1.041720 -1.500000
v 6.487180 0.041720 0.500000
v 6.487180 0.041720 -0.500000
v 6.487180 1.041720 0.500000
v 6.487180 1.041720 -0.500000
v 0.487180 0.041719 6.500000
v -0.512820 1.041719 6.500000
v -0.512820 0.041719 6.500000
v 0.487180 1.041719 6.500000
v -0.512820 0.041719 5.500000
v -1.512820 1.041719 5.500000
v -1.512820 0.041719 5.500000
v -0.512820 1.041719 5.500000
v 1.487180 0.041719 5.500000
v 0.487180 1.041719 5.500000
v 0.487180 0.041719 5.500000
v 1.487180 1.041719 5.500000
v -1.512820 0.041719 4.500000
v -2.512820 1.041719 4.500000
v -2.512820 0.041719 4.500000
v -1.512820 1.041719 4.500000
v 2.487180 0.041719 4.500000
v 1.487180 1.041719 4.500000
v 1.487180 0.041719 4.500000
v 2.487180 1.041719 4.500000
v -2.512820 0.041719 2.500000
v -4.512820 1.041719 2.500000
v -4.512820 0.041719 2.500000
v -2.512820 1.041719 2.500000
v 4.487180 0.041719 2.500000
v 2.487180 1.041719 2.500000
v 2.487180 0.041719 2.500000
v 4.487180 1.041719 2.500000
v -4.512820 0.041719 1.500000
v -5.512820 1.041719 1.500000
v -5.512820 0.041719 1.500000
v -4.512820 1.041719 1.500000
v 5.487180 0.041719 1.500000
v 4.487180 1.041719 1.500000
v 4.487180 0.041719 1.500000
v 5.487180 1.041719 1.500000
v -5.512820 0.041720 0.500000
v -6.512820 1.041720 0.500000
v -6.512820 0.041720 0.500000
v -5.512820 1.041720 0.500000
v 6.487180 0.041720 0.500000
v 5.487180 1.041720 0.500000
v 5.487180 0.041720 0.500000
v 6.487180 1.041720 0.500000
v -6.512820 0.041720 -0.500000
v -6.512820 1.041720 -0.500000
v -5.512820 0.041720 -0.500000
v -5.512820 1.041720 -0.500000
v 5.487180 0.041720 -0.500000
v 5.487180 1.041720 -0.500000
v 6.487180 0.041720 -0.500000
v 6.487180 1.041720 -0.500000
v -5.512820 0.041720 -1.500000
v -5.512820 1.041720 -1.500000
v -4.512820 0.041720 -1.500000
v -4.512820 1.041720 -1.500000
v 4.487180 0.041720 -1.500000
v 4.487180 1.041720 -1.500000
v 5.487180 0.041720 -1.500000
v 5.487180 1.041720 -1.500000
v -4.512820 0.041720 -2.500000
v -4.512820 1.041720 -2.500000
v -2.512820 0.041720 -2.500000
v -2.512820 1.041720 -2.500000
v 2.487180 0.041720 -2.500000
v 2.487180 1.041720 -2.500000
v 4.487180 0.041720 -2.500000
v 4.487180 1.041720 -2.500000
v -2.512820 0.041720 -4.500000
v -2.512820 1.041720 -4.500000
v -1.512820 0.041720 -4.500000
v -1.512820 1.041720 -4.500000
v 1.487180 0.041720 -4.500000
v 1.487180 1.041720 -4.500000
v 2.487180 0.041720 -4.500000
v 2.487180 1.041720 -4.500000
v -1.512820 0.041721 -5.500000
v -1.512820 1.041721 -5.500000
v -0.512820 0.041721 -5.500000
v -0.512820 1.041721 -5.500000
v 0.487180 0.041721 -5.500000
v 0.487180 1.041721 -5.500000
v 1.487180 0.041721 -5.500000
v 1.487180 1.041721 -5.500000
v -0.512820 0.041721 -6.500000
v -0.512820 1.041721 -6.500000
v 0.487180 0.041721 -6.500000
v 0.487180 1.041721 -6.500000
v -0.512820 0.041719 5.500000
v 0.487180 0.041719 6.500000
v -0.512820 0.041719 6.500000
v 0.487180 0.041719 5.500000
v -1.512820 0.041719 4.500000
v -1.512820 0.041719 5.500000
v -0.512820 0.041719 4.500000
v 0.487180 0.041719 4.500000
v 1.487180 0.041719 5.500000
v 1.487180 0.041719 4.500000
v -2.512820 0.041719 2.500000
v -2.512820 0.041719 4.500000
v -1.512820 0.041719 2.500000
v 1.487180 0.041719 2.500000
v 2.487180 0.041719 4.500000
v 2.487180 0.041719 2.500000
v -4.512820 0.041719 1.500000
v -4.512820 0.041719 2.500000
v -2.512820 0.041719 1.500000
v -1.512820 0.041719 1.500000
v 1.487180 0.041719 1.500000
v 2.487180 0.041719 1.500000
v 4.487180 0.041719 2.500000
v 4.487180 0.041719 1.500000
v -5.512820 0.041720 0.500000
v -5.512820 0.041719 1.500000
v -4.512820 0.041720 0.500000
v -0.512820 0.041720 0.500000
v 1.487180 0.041720 0.500000
v 4.487180 0.041720 0.500000
v 5.487180 0.041719 1.500000
v 5.487180 0.041720 0.500000
v -6.512820 0.041720 -0.500000
v -6.512820 0.041720 0.500000
v -5.512820 0.041720 -0.500000
v -4.512820 0.041720 -0.500000
v -0.512820 0.041720 -0.500000
v 1.487180 0.041720 -0.500000
v 4.487180 0.041720 -0.500000
v 5.487180 0.041720 -0.500000
v 6.487180 0.041720 0.500000
v 6.487180 0.041720 -0.500000
v -5.512820 0.041720 -1.500000
v -4.512820 0.041720 -1.500000
v -2.512820 0.041720 -1.500000
v -1.512820 0.041720 -1.500000
v 1.487180 0.041720 -1.500000
v 2.487180 0.041720 -1.500000
v 4.487180 0.041720 -1.500000
v 5.487180 0.041720 -1.500000
v -4.512820 0.041720 -2.500000
v -2.512820 0.041720 -2.500000
v -1.512820 0.041720 -2.500000
v 1.487180 0.041720 -2.500000
v 2.487180 0.041720 -2.500000
v 4.487180 0.041720 -2.500000
v -2.512820 0.041720 -4.500000
v -1.512820 0.041720 -4.500000
v -0.512820 0.041720 -4.500000
v 0.487180 0.041720 -4.500000
v 1.487180 0.041720 -4.500000
v 2.487180 0.041720 -4.500000
v -1.512820 0.041721 -5.500000
v -0.512820 0.041721 -5.500000
v 0.487180 0.041721 -5.500000
v 1.487180 0.041721 -5.500000
v -0.512820 0.041721 -6.500000
v 0.487180 0.041721 -6.500000
v -0.512820 1.041719 6.500000
v 0.487180 1.041719 6.500000
v -0.512820 1.041719 5.500000
v 0.487180 1.041719 5.500000
v -1.512820 1.041719 5.500000
v -1.512820 1.041719 4.500000
v -0.512820 1.041719 4.500000
v 1.487180 1.041719 5.500000
v 0.487180 1.041719 4.500000
v 1.487180 1.041719 4.500000
v -2.512820 1.041719 4.500000
v -2.512820 1.041719 2.500000
v -1.512820 1.041719 2.500000
v 2.487180 1.041719 4.500000
v 1.487180 1.041719 2.500000
v 2.487180 1.041719 2.500000
v -4.512820 1.041719 2.500000
v -4.512820 1.041719 1.500000
v -2.512820 1.041719 1.500000
v -1.512820 1.041719 1.500000
v 1.487180 1.041719 1.500000
v 4.487180 1.041719 2.500000
v 2.487180 1.041719 1.500000
v 4.487180 1.041719 1.500000
v -5.512820 1.041719 1.500000
v -5.512820 1.041720 0.500000
v -4.512820 1.041720 0.500000
v -0.512820 1.041720 0.500000
v 1.487180 1.041720 0.500000
v 5.487180 1.041719 1.500000
v 4.487180 1.041720 0.500000
v 5.487180 1.041720 0.500000
v -6.512820 1.041720 0.500000
v -6.512820 1.041720 -0.500000
v -5.512820 1.041720 -0.500000
v -4.512820 1.041720 -0.500000
v -0.512820 1.041720 -0.500000
v 1.487180 1.041720 -0.500000
v 4.487180 1.041720 -0.500000
v 6.487180 1.041720 0.500000
v 5.487180 1.041720 -0.500000
v 6.487180 1.041720 -0.500000
v -5.512820 1.041720 -1.500000
v -4.512820 1.041720 -1.500000
v -2.512820 1.041720 -1.500000
v -1.512820 1.041720 -1.500000
v 1.487180 1.041720 -1.500000
v 2.487180 1.041720 -1.500000
v 4.487180 1.041720 -1.500000
v 5.487180 1.041720 -1.500000
v -4.512820 1.041720 -2.500000
v -2.512820 1.041720 -2.500000
v -1.512820 1.041720 -2.500000
v 1.487180 1.041720 -2.500000
v 2.487180 1.041720 -2.500000
v 4.487180 1.041720 -2.500000
v -2.512820 1.041720 -4.500000
v -1.512820 1.041720 -4.500000
v -0.512820 1.041720 -4.500000
v 0.487180 1.041720 -4.500000
v 1.487180 1.041720 -4.500000
v 2.487180 1.041720 -4.500000
v -1.512820 1.041721 -5.500000
v -0.512820 1.041721 -5.500000
v 0.487180 1.041721 -5.500000
v 1.487180 1.041721 -5.500000
v -0.512820 1.041721 -6.500000
v 0.487180 1.041721 -6.500000
vt 0.5371 0.5000
vt 0.5371 0.5000
vt 0.5371 0.5000
vt 0.5371 0.5000
vt 0.5371 0.5000
vt 0.5371 0.5000
vt 0.5371 0.5000
vt 0.5371 0.5000
vt 0.5371 0.5000
vt 0.5371 0.5000
vt 0.5371 0.5000
vt 0.5371 0.5000
vt 0.5371 0.5000
vt 0.5371 0.5000
vt 0.5371 0.5000
vt 0.5371 0.5000
vt 0.5371 0.5000
vt 0.5371 0.5000
vt 0.5371 0.5000
vt 0.5371 0.5000
vt 0.5371 0.5000
vt 0.5371 0.5000
vt 0.5371 0.5000
vt 0.5371 0.5000
vt 0.5371 0.5000
vt 0.5371 0.5000
vt 0.5371 0.5000
vt 0.5371 0.5000
vt 0.5371 0.5000
vt 0.5371 0.5000
vt 0.5371 0.5000
vt 0.5371 0.5000
vt 0.5371 0.5000
vt 0.5371 0.5000
vt 0.5371 0.5000
vt 0.5371 0.5000
vt 0.5371 0.5000
vt 0.5371 0.5000
vt 0.5371 0.5000
vt 0.5371 0.5000
vt 0.5371 0.5000
vt 0.5371 0.5000
vt 0.5371 0.5000
vt 0.5371 0.5000
vt 0.5371 0.5000
vt 0.5371 0.5000
vt 0.5371 0.5000
vt 0.5371 0.5000
vt 0.5371 0.5000
vt 0.5371 0.5000
vt 0.5371 0.5000
vt 0.5371 0.5000
vt 0.5371 0.5000
vt 0.5371 0.5000
vt 0.5371 0.5000
vt 0.5371 0.5000
vt 0.5371 0.5000
vt 0.5371 0.5000
vt 0.5371 0.5000
vt 0.5371 0.5000
vt 0.5371 0.5000
vt 0.5371 0.5000
vt 0.5371 0.5000
vt 0.5371 0.5000
vt 0.5371 0.5000
vt 0.5371 0.5000
vt 0.5371 0.5000
vt 0.5371 0.5000
vt 0.5371 0.5000
vt 0.5371 0.5000
vt 0.5371 0.5000
vt 0.5371 0.5000
vt 0.5371 0.5000
vt 0.5371 0.5000
vt 0.5371 0.5000
vt 0.5371 0.5000
vt 0.5371 0.5000
vt 0.5371 0.5000
vt 0.5371 0.5000
vt 0.5371 0.5000
vt 0.5371 0.5000
vt 0.5371 0.5000
vt 0.5371 0.5000
vt 0.5371 0.5000
vt 0.5371 0.5000
vt 0.5371 0.5000
vt 0.5371 0.5000
vt 0.5371 0.5000
vt 0.5371 0.5000
vt 0.5371 0.5000
vt 0.5371 0.5000
vt 0.5371 0.5000
vt 0.5371 0.5000
vt 0.5371 0.5000
vt 0.5371 0.5000
vt 0.5371 0.5000
vt 0.5371 0.5000
vt 0.5371 0.5000
vt 0.5371 0.5000
vt 0.5371 0.5000
vt 0.5371 0.5000
vt 0.5371 0.5000
vt 0.5371 0.5000
vt 0.5371 0.5000
vt 0.5371 0.5000
vt 0.5371 0.5000
vt 0.5371 0.5000
vt 0.5371 0.5000
vt 0.5371 0.5000
vt 0.5371 0.5000
vt 0.5371 0.5000
vt 0.5371 0.5000
vt 0.5371 0.5000
vt 0.5371 0.5000
vt 0.5371 0.5000
vt 0.5371 0.5000
vt 0.5371 0.5000
vt 0.5371 0.5000
vt 0.5371 0.5000
vt 0.5371 0.5000
vt 0.5371 0.5000
vt 0.5371 0.5000
vt 0.5371 0.5000
vt 0.5371 0.5000
vt 0.5371 0.5000
vt 0.5371 0.5000
vt 0.5371 0.5000
vt 0.5371 0.5000
vt 0.5371 0.5000
vt 0.5371 0.5000
vt 0.5371 0.5000
vt 0.5371 0.5000
vt 0.5371 0.5000
vt 0.5371 0.5000
vt 0.5371 0.5000
vt 0.5371 0.5000
vt 0.5371 0.5000
vt 0.5371 0.5000
vt 0.5371 0.5000
vt 0.5371 0.5000
vt 0.5371 0.5000
vt 0.5371 0.5000
vt 0.5371 0.5000
vt 0.5371 0.5000
vt 0.5371 0.5000
vt 0.5371 0.5000
vt 0.5371 0.5000
vt 0.5371 0.5000
vt 0.5371 0.5000
vt 0.5371 0.5000
vt 0.5371 0.5000
vt 0.5371 0.5000
vt 0.5371 0.5000
vt 0.5371 0.5000
vt 0.5371 0.5000
vt 0.5371 0.5000
vt 0.5371 0.5000
vt 0.5371 0.5000
vt 0.5371 0.5000
vt 0.5371 0.5000
vt 0.5371 0.5000
vt 0.5371 0.5000
vt 0.5371 0.5000
vt 0.5371 0.5000
vt 0.5371 0.5000
vt 0.5371 0.5000
vt 0.5371 0.5000
vt 0.5371 0.5000
vt 0.5371 0.5000
vt 0.5371 0.5000
vt 0.5371 0.5000
vt 0.5371 0.5000
vt 0.5371 0.5000
vt 0.5371 0.5000
vt 0.5371 0.5000
vt 0.5371 0.5000
vt 0.5371 0.5000
vt 0.5371 0.5000
vt 0.5371 0.5000
vt 0.5371 0.5000
vt 0.5371 0.5000
vt 0.5371 0.5000
vt 0.0215 0.5000
vt 0.0215 0.5000
vt 0.0215 0.5000
vt 0.5371 0.5000
vt 0.5371 0.5000
vt 0.5371 0.5000
vt 0.0215 0.5000
vt 0.5371 0.5000
vt 0.5371 0.5000
vt 0.5371 0.5000
vt 0.0215 0.5000
vt 0.0215 0.5000
vt 0.5371 0.5000
vt 0.0215 0.5000
vt 0.5371 0.5000
vt 0.5371 0.5000
vt 0.0215 0.5000
vt 0.5371 0.5000
vt 0.5371 0.5000
vt 0.5371 0.5000
vt 0.0215 0.5000
vt 0.0215 0.5000
vt 0.5371 0.5000
vt 0.0215 0.5000
vt 0.0215 0.5000
vt 0.0215 0.5000
vt 0.5371 0.5000
vt 0.5371 0.5000
vt 0.0215 0.5000
vt 0.5371 0.5000
vt 0.5371 0.5000
vt 0.5371 0.5000
vt 0.0215 0.5000
vt 0.0215 0.5000
vt 0.5371 0.5000
vt 0.5371 0.5000
vt 0.5371 0.5000
vt 0.5371 0.5000
vt 0.0215 0.5000
vt 0.5371 0.5000
vt 0.0215 0.5000
vt 0.5371 0.5000
vt 0.5371 0.5000
vt 0.0215 0.5000
vt 0.5371 0.5000
vt 0.5371 0.5000
vt 0.5371 0.5000
vt 0.0215 0.5000
vt 0.0215 0.5000
vt 0.5371 0.5000
vt 0.0215 0.5000
vt 0.0215 0.5000
vt 0.0215 0.5000
vt 0.5371 0.5000
vt 0.0215 0.5000
vt 0.0215 0.5000
vt 0.0215 0.5000
vt 0.5371 0.5000
vt 0.5371 0.5000
vt 0.0215 0.5000
vt 0.5371 0.5000
vt 0.5371 0.5000
vt 0.5371 0.5000
vt 0.0215 0.5000
vt 0.5371 0.5000
vt 0.0215 0.5000
vt 0.5371 0.5000
vt 0.0215 0.5000
vt 0.5371 0.5000
vt 0.0215 0.5000
vt 0.5371 0.5000
vt 0.0215 0.5000
vt 0.5371 0.5000
vt 0.5371 0.5000
vt 0.0215 0.5000
vt 0.5371 0.5000
vt 0.5371 0.5000
vt 0.5371 0.5000
vt 0.0215 0.5000
vt 0.5371 0.5000
vt 0.0215 0.5000
vt 0.0215 0.5000
vt 0.5371 0.5000
vt 0.5371 0.5000
vt 0.0215 0.5000
vt 0.5371 0.5000
vt 0.5371 0.5000
vt 0.5371 0.5000
vt 0.0215 0.5000
vt 0.5371 0.5000
vt 0.0215 0.5000
vt 0.0215 0.5000
vt 0.5371 0.5000
vt 0.5371 0.5000
vt 0.0215 0.5000
vt 0.5371 0.5000
vt 0.5371 0.5000
vt 0.5371 0.5000
vt 0.0215 0.5000
vt 0.5371 0.5000
vt 0.5371 0.5000
vt 0.5371 0.5000
vt 0.0215 0.5000
vt 0.5371 0.5000
vt 0.5371 0.5000
vt 0.5371 0.5000
vt 0.5371 0.5000
vt 0.5371 0.5000
vt 0.5371 0.5000
vt 0.5371 0.5000
vt 0.5371 0.5000
vt 0.5371 0.5000
vt 0.0215 0.5000
vt 0.0215 0.5000
vt 0.0215 0.5000
vt 0.5371 0.5000
vt 0.5371 0.5000
vt 0.5371 0.5000
vt 0.0215 0.5000
vt 0.5371 0.5000
vt 0.5371 0.5000
vt 0.5371 0.5000
vt 0.0215 0.5000
vt 0.0215 0.5000
vt 0.5371 0.5000
vt 0.0215 0.5000
vt 0.5371 0.5000
vt 0.5371 0.5000
vt 0.0215 0.5000
vt 0.5371 0.5000
vt 0.5371 0.5000
vt 0.5371 0.5000
vt 0.0215 0.5000
vt 0.0215 0.5000
vt 0.5371 0.5000
vt 0.0215 0.5000
vt 0.0215 0.5000
vt 0.0215 0.5000
vt 0.5371 0.5000
vt 0.5371 0.5000
vt 0.0215 0.5000
vt 0.5371 0.5000
vt 0.5371 0.5000
vt 0.5371 0.5000
vt 0.0215 0.5000
vt 0.0215 0.5000
vt 0.5371 0.5000
vt 0.5371 0.5000
vt 0.5371 0.5000
vt 0.5371 0.5000
vt 0.0215 0.5000
vt 0.5371 0.5000
vt 0.0215 0.5000
vt 0.5371 0.5000
vt 0.5371 0.5000
vt 0.0215 0.5000
vt 0.5371 0.5000
vt 0.5371 0.5000
vt 0.5371 0.5000
vt 0.0215 0.5000
vt 0.0215 0.5000
vt 0.5371 0.5000
vt 0.0215 0.5000
vt 0.0215 0.5000
vt 0.0215 0.5000
vt 0.5371 0.5000
vt 0.0215 0.5000
vt 0.0215 0.5000
vt 0.0215 0.5000
vt 0.5371 0.5000
vt 0.5371 0.5000
vt 0.0215 0.5000
vt 0.5371 0.5000
vt 0.5371 0.5000
vt 0.5371 0.5000
vt 0.0215 0.5000
vt 0.5371 0.5000
vt 0.0215 0.5000
vt 0.5371 0.5000
vt 0.0215 0.5000
vt 0.5371 0.5000
vt 0.0215 0.5000
vt 0.5371 0.5000
vt 0.0215 0.5000
vt 0.5371 0.5000
vt 0.5371 0.5000
vt 0.0215 0.5000
vt 0.5371 0.5000
vt 0.5371 0.5000
vt 0.5371 0.5000
vt 0.0215 0.5000
vt 0.5371 0.5000
vt 0.0215 0.5000
vt 0.0215 0.5000
vt 0.5371 0.5000
vt 0.5371 0.5000
vt 0.0215 0.5000
vt 0.5371 0.5000
vt 0.5371 0.5000
vt 0.5371 0.5000
vt 0.0215 0.5000
vt 0.5371 0.5000
vt 0.0215 0.5000
vt 0.0215 0.5000
vt 0.5371 0.5000
vt 0.5371 0.5000
vt 0.0215 0.5000
vt 0.5371 0.5000
vt 0.5371 0.5000
vt 0.5371 0.5000
vt 0.0215 0.5000
vt 0.5371 0.5000
vt 0.5371 0.5000
vt 0.5371 0.5000
vt 0.0215 0.5000
vt 0.5371 0.5000
vt 0.5371 0.5000
vt 0.5371 0.5000
vn -1.0000 0.0000 0.0000
vn 1.0000 0.0000 0.0000
vn 0.0000 0.0000 1.0000
vn 0.0000 0.0000 -1.0000
vn 0.0000 -1.0000 -0.0000
vn 0.0000 1.0000 0.0000
usemtl palette.001
s 1
f 1/1/1 2/2/1 3/3/1
f 4/4/1 2/2/1 1/1/1
f 5/5/1 6/6/1 7/7/1
f 8/8/1 6/6/1 5/5/1
f 9/9/1 10/10/1 11/11/1
f 12/12/1 10/10/1 9/9/1
f 13/13/1 14/14/1 15/15/1
f 16/16/1 14/14/1 13/13/1
f 17/17/1 18/18/1 19/19/1
f 20/20/1 18/18/1 17/17/1
f 21/21/1 22/22/1 23/23/1
f 24/24/1 22/22/1 21/21/1
f 25/25/1 26/26/1 27/27/1
f 28/28/1 26/26/1 25/25/1
f 29/29/1 30/30/1 31/31/1
f 32/32/1 30/30/1 29/29/1
f 33/33/1 34/34/1 35/35/1
f 36/36/1 34/34/1 33/33/1
f 37/37/1 38/38/1 39/39/1
f 40/40/1 38/38/1 37/37/1
f 41/41/1 42/42/1 43/43/1
f 44/44/1 42/42/1 41/41/1
f 45/45/2 46/46/2 47/47/2
f 47/47/2 46/46/2 48/48/2
f 49/49/2 50/50/2 51/51/2
f 51/51/2 50/50/2 52/52/2
f 53/53/2 54/54/2 55/55/2
f 55/55/2 54/54/2 56/56/2
f 57/57/2 58/58/2 59/59/2
f 59/59/2 58/58/2 60/60/2
f 61/61/2 62/62/2 63/63/2
f 63/63/2 62/62/2 64/64/2
f 65/65/2 66/66/2 67/67/2
f 67/67/2 66/66/2 68/68/2
f 69/69/2 70/70/2 71/71/2
f 71/71/2 70/70/2 72/72/2
f 73/73/2 74/74/2 75/75/2
f 75/75/2 74/74/2 76/76/2
f 77/77/2 78/78/2 79/79/2
f 79/79/2 78/78/2 80/80/2
f 81/81/2 82/82/2 83/83/2
f 83/83/2 82/82/2 84/84/2
f 85/85/2 86/86/2 87/87/2
f 87/87/2 86/86/2 88/88/2
f 89/89/3 90/90/3 91/91/3
f 92/92/3 90/90/3 89/89/3
f 93/93/3 94/94/3 95/95/3
f 96/96/3 94/94/3 93/93/3
f 97/97/3 98/98/3 99/99/3
f 100/100/3 98/98/3 97/97/3
f 101/101/3 102/102/3 103/103/3
f 104/104/3 102/102/3 101/101/3
f 105/105/3 106/106/3 107/107/3
f 108/108/3 106/106/3 105/105/3
f 109/109/3 110/110/3 111/111/3
f 112/112/3 110/110/3 109/109/3
f 113/113/3 114/114/3 115/115/3
f 116/116/3 114/114/3 113/113/3
f 117/117/3 118/118/3 119/119/3
f 120/120/3 118/118/3 117/117/3
f 121/121/3 122/122/3 123/123/3
f 124/124/3 122/122/3 121/121/3
f 125/125/3 126/126/3 127/127/3
f 128/128/3 126/126/3 125/125/3
f 129/129/3 130/130/3 131/131/3
f 132/132/3 130/130/3 129/129/3
f 133/133/4 134/134/4 135/135/4
f 135/135/4 134/134/4 136/136/4
f 137/137/4 138/138/4 139/139/4
f 139/139/4 138/138/4 140/140/4
f 141/141/4 142/142/4 143/143/4
f 143/143/4 142/142/4 144/144/4
f 145/145/4 146/146/4 147/147/4
f 147/147/4 146/146/4 148/148/4
f 149/149/4 150/150/4 151/151/4
f 151/151/4 150/150/4 152/152/4
f 153/153/4 154/154/4 155/155/4
f 155/155/4 154/154/4 156/156/4
f 157/157/4 158/158/4 159/159/4
f 159/159/4 158/158/4 160/160/4
f 161/161/4 162/162/4 163/163/4
f 163/163/4 162/162/4 164/164/4
f 165/165/4 166/166/4 167/167/4
f 167/167/4 166/166/4 168/168/4
f 169/169/4 170/170/4 171/171/4
f 171/171/4 170/170/4 172/172/4
f 173/173/4 174/174/4 175/175/4
f 175/175/4 174/174/4 176/176/4
f 177/177/5 178/178/5 179/179/5
f 180/180/5 178/178/5 177/177/5
f 181/181/5 177/177/5 182/182/5
f 183/183/5 180/184/5 177/185/5
f 183/186/5 177/177/5 181/181/5
f 184/187/5 185/188/5 180/180/5
f 184/189/5 180/184/5 183/183/5
f 186/190/5 185/188/5 184/187/5
f 187/191/5 181/181/5 188/192/5
f 189/193/5 183/183/5 181/194/5
f 189/193/5 184/189/5 183/183/5
f 189/195/5 181/181/5 187/191/5
f 189/193/5 186/196/5 184/189/5
f 190/197/5 191/198/5 186/190/5
f 190/199/5 186/196/5 189/193/5
f 192/200/5 191/198/5 190/197/5
f 193/201/5 187/191/5 194/202/5
f 195/203/5 189/193/5 187/204/5
f 195/203/5 190/199/5 189/193/5
f 195/205/5 187/191/5 193/201/5
f 195/203/5 192/206/5 190/199/5
f 196/207/5 192/206/5 195/203/5
f 197/208/5 192/206/5 196/207/5
f 198/209/5 199/210/5 192/200/5
f 198/211/5 192/206/5 197/208/5
f 200/212/5 199/210/5 198/209/5
f 201/213/5 193/201/5 202/214/5
f 203/215/5 195/203/5 193/216/5
f 203/215/5 196/207/5 195/203/5
f 203/217/5 193/201/5 201/213/5
f 204/218/5 197/219/5 196/220/5
f 205/221/5 198/211/5 197/208/5
f 205/222/5 197/219/5 204/218/5
f 205/221/5 200/223/5 198/211/5
f 206/224/5 207/225/5 200/212/5
f 206/226/5 200/223/5 205/221/5
f 208/227/5 207/225/5 206/224/5
f 209/228/5 201/213/5 210/229/5
f 211/230/5 203/215/5 201/231/5
f 211/232/5 201/213/5 209/228/5
f 212/233/5 196/207/5 203/215/5
f 212/233/5 203/215/5 211/230/5
f 213/234/5 205/221/5 204/235/5
f 213/236/5 204/218/5 196/220/5
f 213/234/5 206/226/5 205/221/5
f 213/234/5 208/237/5 206/226/5
f 214/238/5 208/237/5 213/234/5
f 215/239/5 208/237/5 214/238/5
f 216/240/5 217/241/5 208/227/5
f 216/242/5 208/237/5 215/239/5
f 218/243/5 217/241/5 216/240/5
f 219/244/5 212/245/5 211/232/5
f 220/246/5 196/207/5 212/233/5
f 220/247/5 212/245/5 219/244/5
f 221/248/5 196/207/5 220/246/5
f 222/249/5 213/236/5 196/220/5
f 222/250/5 196/207/5 221/248/5
f 222/249/5 214/251/5 213/236/5
f 223/252/5 215/239/5 214/238/5
f 223/253/5 214/251/5 222/249/5
f 224/254/5 215/239/5 223/252/5
f 225/255/5 216/240/5 215/256/5
f 225/257/5 215/239/5 224/254/5
f 226/258/5 216/240/5 225/255/5
f 227/259/5 221/260/5 220/247/5
f 228/261/5 222/250/5 221/248/5
f 228/262/5 221/260/5 227/259/5
f 228/261/5 224/254/5 223/252/5
f 228/261/5 223/252/5 222/250/5
f 229/263/5 224/254/5 228/261/5
f 230/264/5 224/254/5 229/263/5
f 231/265/5 225/255/5 224/266/5
f 231/267/5 224/254/5 230/264/5
f 232/268/5 225/255/5 231/265/5
f 233/269/5 229/270/5 228/262/5
f 234/271/5 230/264/5 229/263/5
f 234/272/5 229/270/5 233/269/5
f 235/273/5 230/264/5 234/271/5
f 236/274/5 230/264/5 235/273/5
f 237/275/5 231/265/5 230/276/5
f 237/277/5 230/264/5 236/274/5
f 238/278/5 231/265/5 237/275/5
f 239/279/5 235/280/5 234/272/5
f 240/281/5 236/274/5 235/273/5
f 240/282/5 235/280/5 239/279/5
f 241/283/5 237/275/5 236/284/5
f 241/285/5 236/274/5 240/281/5
f 242/286/5 237/275/5 241/283/5
f 243/287/5 241/283/5 240/282/5
f 244/288/5 241/283/5 243/287/5
f 245/289/6 246/290/6 247/291/6
f 247/291/6 246/290/6 248/292/6
f 249/293/6 247/291/6 250/294/6
f 247/295/6 248/296/6 251/297/6
f 250/294/6 247/291/6 251/298/6
f 248/292/6 252/299/6 253/300/6
f 251/297/6 248/296/6 253/301/6
f 253/300/6 252/299/6 254/302/6
f 255/303/6 250/294/6 256/304/6
f 250/305/6 251/297/6 257/306/6
f 251/297/6 253/301/6 257/306/6
f 256/304/6 250/294/6 257/307/6
f 253/301/6 254/308/6 257/306/6
f 254/302/6 258/309/6 259/310/6
f 257/306/6 254/308/6 259/311/6
f 259/310/6 258/309/6 260/312/6
f 261/313/6 256/304/6 262/314/6
f 256/315/6 257/306/6 263/316/6
f 257/306/6 259/311/6 263/316/6
f 262/314/6 256/304/6 263/317/6
f 259/311/6 260/318/6 263/316/6
f 263/316/6 260/318/6 264/319/6
f 264/319/6 260/318/6 265/320/6
f 260/312/6 266/321/6 267/322/6
f 265/320/6 260/318/6 267/323/6
f 267/322/6 266/321/6 268/324/6
f 269/325/6 262/314/6 270/326/6
f 262/327/6 263/316/6 271/328/6
f 263/316/6 264/319/6 271/328/6
f 270/326/6 262/314/6 271/329/6
f 264/330/6 265/331/6 272/332/6
f 265/320/6 267/323/6 273/333/6
f 272/332/6 265/331/6 273/334/6
f 267/323/6 268/335/6 273/333/6
f 268/324/6 274/336/6 275/337/6
f 273/333/6 268/335/6 275/338/6
f 275/337/6 274/336/6 276/339/6
f 277/340/6 270/326/6 278/341/6
f 270/342/6 271/328/6 279/343/6
f 278/341/6 270/326/6 279/344/6
f 271/328/6 264/319/6 280/345/6
f 279/343/6 271/328/6 280/345/6
f 272/346/6 273/333/6 281/347/6
f 264/330/6 272/332/6 281/348/6
f 273/333/6 275/338/6 281/347/6
f 275/338/6 276/349/6 281/347/6
f 281/347/6 276/349/6 282/350/6
f 282/350/6 276/349/6 283/351/6
f 276/339/6 284/352/6 285/353/6
f 283/351/6 276/349/6 285/354/6
f 285/353/6 284/352/6 286/355/6
f 279/344/6 280/356/6 287/357/6
f 280/345/6 264/319/6 288/358/6
f 287/357/6 280/356/6 288/359/6
f 288/358/6 264/319/6 289/360/6
f 264/330/6 281/348/6 290/361/6
f 289/360/6 264/319/6 290/362/6
f 281/348/6 282/363/6 290/361/6
f 282/350/6 283/351/6 291/364/6
f 290/361/6 282/363/6 291/365/6
f 291/364/6 283/351/6 292/366/6
f 283/367/6 285/353/6 293/368/6
f 292/366/6 283/351/6 293/369/6
f 293/368/6 285/353/6 294/370/6
f 288/359/6 289/371/6 295/372/6
f 289/360/6 290/362/6 296/373/6
f 295/372/6 289/371/6 296/374/6
f 291/364/6 292/366/6 296/373/6
f 290/362/6 291/364/6 296/373/6
f 296/373/6 292/366/6 297/375/6
f 297/375/6 292/366/6 298/376/6
f 292/377/6 293/368/6 299/378/6
f 298/376/6 292/366/6 299/379/6
f 299/378/6 293/368/6 300/380/6
f 296/374/6 297/381/6 301/382/6
f 297/375/6 298/376/6 302/383/6
f 301/382/6 297/381/6 302/384/6
f 302/383/6 298/376/6 303/385/6
f 303/385/6 298/376/6 304/386/6
f 298/387/6 299/378/6 305/388/6
f 304/386/6 298/376/6 305/389/6
f 305/388/6 299/378/6 306/390/6
f 302/384/6 303/391/6 307/392/6
f 303/385/6 304/386/6 308/393/6
f 307/392/6 303/391/6 308/394/6
f 304/395/6 305/388/6 309/396/6
f 308/393/6 304/386/6 309/397/6
f 309/396/6 305/388/6 310/398/6
f 308/394/6 309/396/6 311/399/6
f 311/399/6 309/396/6 312/400/6
