# Blender v2.78 (sub 0) OBJ File: ''
# www.blender.org
mtllib GBush.mtl
o GBush
v -2.052632 1.251797 2.589473
v -2.052632 0.251798 -1.410527
v -2.052632 0.251797 2.589473
v -2.052632 1.251798 -1.410527
v -2.052632 2.251797 2.589473
v -2.052632 2.251798 -1.410527
v -1.052632 3.251797 2.589473
v -1.052632 2.251797 1.589473
v -1.052632 2.251797 2.589473
v -1.052632 3.251797 1.589473
v -1.052632 2.251798 -1.410527
v -1.052632 3.251798 -1.410527
v -1.052632 4.251797 1.589473
v -1.052632 4.251798 -1.410527
v -0.052632 1.251798 -1.410527
v -0.052632 0.251798 -2.410527
v -0.052632 0.251798 -1.410527
v -0.052632 2.251798 -1.410527
v -0.052632 3.251798 -1.410527
v -0.052632 4.251798 -1.410527
v -0.052632 4.251798 -2.410527
v -0.052632 5.251798 -0.410526
v -0.052632 4.251798 -0.410527
v -0.052632 5.251798 -2.410526
v 1.947368 0.251797 2.589473
v 1.947368 0.251798 -2.410527
v 1.947368 2.251797 2.589473
v 1.947368 2.251797 1.589473
v 1.947368 3.251797 2.589473
v 1.947368 3.251797 1.589473
v 1.947368 3.251798 -0.410527
v 1.947368 4.251797 1.589473
v 1.947368 4.251798 -0.410527
v 1.947368 4.251798 -2.410527
v 1.947368 5.251798 -0.410526
v 1.947368 5.251798 -2.410526
v -1.052632 1.251797 2.589473
v -2.052632 1.251797 2.589473
v -2.052632 0.251797 2.589473
v -2.052632 2.251797 2.589473
v -1.052632 2.251797 2.589473
v 1.947368 0.251797 2.589473
v 1.947368 2.251797 2.589473
v -1.052632 3.251797 2.589473
v 1.947368 3.251797 2.589473
v 1.947368 3.251797 1.589473
v -1.052632 4.251797 1.589473
v -1.052632 3.251797 1.589473
v 1.947368 4.251797 1.589473
v 1.947368 4.251798 -0.410527
v -0.052632 5.251798 -0.410526
v -0.052632 4.251798 -0.410527
v 1.947368 5.251798 -0.410526
v -2.052632 1.251798 -1.410527
v -2.052632 2.251798 -1.410527
v -1.052632 2.251798 -1.410527
v -2.052632 0.251798 -1.410527
v -0.052632 0.251798 -1.410527
v -0.052632 1.251798 -1.410527
v -1.052632 3.251798 -1.410527
v -0.052632 2.251798 -1.410527
v -1.052632 4.251798 -1.410527
v -0.052632 3.251798 -1.410527
v -0.052632 4.251798 -1.410527
v -0.052632 0.251798 -2.410527
v -0.052632 4.251798 -2.410527
v 1.947368 0.251798 -2.410527
v -0.052632 5.251798 -2.410526
v 1.947368 4.251798 -2.410527
v 1.947368 5.251798 -2.410526
v -2.052632 0.251798 -1.410527
v 1.947368 0.251797 2.589473
v -2.052632 0.251797 2.589473
v -0.052632 0.251798 -1.410527
v -0.052632 0.251798 -2.410527
v 1.947368 0.251798 -2.410527
v -2.052632 2.251797 2.589473
v -1.052632 2.251797 2.589473
v -1.052632 2.251797 1.589473
v -2.052632 2.251798 -1.410527
v -1.052632 2.251798 -1.410527
v -1.052632 3.251797 2.589473
v 1.947368 3.251797 2.589473
v -1.052632 3.251797 1.589473
v 1.947368 3.251797 1.589473
v -1.052632 4.251797 1.589473
v 1.947368 4.251797 1.589473
v -0.052632 4.251798 -0.410527
v 1.947368 4.251798 -0.410527
v -1.052632 4.251798 -1.410527
v -0.052632 4.251798 -1.410527
v -0.052632 5.251798 -0.410526
v 1.947368 5.251798 -0.410526
v -0.052632 5.251798 -2.410526
v 1.947368 5.251798 -2.410526
vt 0.5879 0.5000
vt 0.5879 0.5000
vt 0.5879 0.5000
vt 0.5879 0.5000
vt 0.7676 0.5000
vt 0.7676 0.5000
vt 0.7676 0.5000
vt 0.7676 0.5000
vt 0.7676 0.5000
vt 0.7676 0.5000
vt 0.7676 0.5000
vt 0.5879 0.5000
vt 0.5879 0.5000
vt 0.5879 0.5000
vt 0.7676 0.5000
vt 0.5879 0.5000
vt 0.7676 0.5000
vt 0.7676 0.5000
vt 0.7676 0.5000
vt 0.5879 0.5000
vt 0.5879 0.5000
vt 0.5879 0.5000
vt 0.5879 0.5000
vt 0.5879 0.5000
vt 0.5879 0.5000
vt 0.5879 0.5000
vt 0.7676 0.5000
vt 0.7676 0.5000
vt 0.7676 0.5000
vt 0.7676 0.5000
vt 0.7676 0.5000
vt 0.5879 0.5000
vt 0.5879 0.5000
vt 0.5879 0.5000
vt 0.5879 0.5000
vt 0.7676 0.5000
vt 0.7676 0.5000
vt 0.7676 0.5000
vt 0.5879 0.5000
vt 0.7676 0.5000
vt 0.5879 0.5000
vt 0.7676 0.5000
vt 0.7676 0.5000
vt 0.5879 0.5000
vt 0.7676 0.5000
vt 0.5879 0.5000
vt 0.7676 0.5000
vt 0.7676 0.5000
vt 0.7676 0.5000
vt 0.5879 0.5000
vt 0.5879 0.5000
vt 0.5879 0.5000
vt 0.7676 0.5000
vt 0.7676 0.5000
vt 0.7676 0.5000
vt 0.7676 0.5000
vt 0.5879 0.5000
vt 0.5879 0.5000
vt 0.7676 0.5000
vt 0.7676 0.5000
vt 0.5879 0.5000
vt 0.7676 0.5000
vt 0.7676 0.5000
vt 0.7676 0.5000
vt 0.7676 0.5000
vt 0.7676 0.5000
vt 0.7676 0.5000
vt 0.7676 0.5000
vt 0.7676 0.5000
vt 0.7676 0.5000
vt 0.7676 0.5000
vt 0.7676 0.5000
vt 0.7676 0.5000
vt 0.5879 0.5000
vt 0.5879 0.5000
vt 0.5879 0.5000
vt 0.7676 0.5000
vt 0.5879 0.5000
vt 0.5879 0.5000
vt 0.5879 0.5000
vt 0.5879 0.5000
vt 0.7676 0.5000
vt 0.7676 0.5000
vt 0.7676 0.5000
vt 0.7676 0.5000
vt 0.5879 0.5000
vt 0.7676 0.5000
vt 0.5879 0.5000
vt 0.5879 0.5000
vt 0.5879 0.5000
vt 0.7676 0.5000
vt 0.7676 0.5000
vt 0.7676 0.5000
vt 0.5879 0.5000
vt 0.7676 0.5000
vt 0.5879 0.5000
vt 0.5879 0.5000
vt 0.5879 0.5000
vt 0.5879 0.5000
vt 0.5879 0.5000
vt 0.5879 0.5000
vt 0.7676 0.5000
vt 0.7676 0.5000
vt 0.7676 0.5000
vt 0.7676 0.5000
vt 0.7676 0.5000
vt 0.7676 0.5000
vt 0.7676 0.5000
vt 0.7676 0.5000
vt 0.7676 0.5000
vt 0.7676 0.5000
vt 0.7676 0.5000
vt 0.7676 0.5000
vt 0.7676 0.5000
vt 0.7676 0.5000
vt 0.7676 0.5000
vt 0.7676 0.5000
vt 0.7676 0.5000
vt 0.7676 0.5000
vt 0.7676 0.5000
vn -1.0000 0.0000 0.0000
vn 1.0000 0.0000 0.0000
vn -0.0000 -0.0000 1.0000
vn 0.0000 0.0000 -1.0000
vn 0.0000 -1.0000 -0.0000
vn 0.0000 1.0000 0.0000
usemtl palette.003
s 1
f 1/1/1 2/2/1 3/3/1
f 4/4/1 2/2/1 1/1/1
f 5/5/1 4/6/1 1/7/1
f 6/8/1 4/6/1 5/5/1
f 7/9/1 8/10/1 9/11/1
f 10/12/1 11/13/1 8/14/1
f 10/15/1 8/10/1 7/9/1
f 12/16/1 11/13/1 10/12/1
f 13/17/1 12/18/1 10/15/1
f 14/19/1 12/18/1 13/17/1
f 15/20/1 16/21/1 17/22/1
f 18/23/1 16/21/1 15/20/1
f 19/24/1 16/21/1 18/23/1
f 20/25/1 16/21/1 19/24/1
f 21/26/1 16/21/1 20/25/1
f 22/27/1 20/28/1 23/29/1
f 22/27/1 21/30/1 20/28/1
f 24/31/1 21/30/1 22/27/1
f 25/32/2 26/33/2 27/34/2
f 27/34/2 26/33/2 28/35/2
f 27/36/2 28/37/2 29/38/2
f 28/35/2 26/33/2 30/39/2
f 29/38/2 28/37/2 30/40/2
f 30/39/2 26/33/2 31/41/2
f 30/40/2 31/42/2 32/43/2
f 31/41/2 26/33/2 33/44/2
f 32/43/2 31/42/2 33/45/2
f 33/44/2 26/33/2 34/46/2
f 33/45/2 34/47/2 35/48/2
f 35/48/2 34/47/2 36/49/2
f 37/50/3 38/51/3 39/52/3
f 37/53/3 40/54/3 38/55/3
f 41/56/3 40/54/3 37/53/3
f 42/57/3 37/50/3 39/52/3
f 42/57/3 41/58/3 37/50/3
f 43/59/3 44/60/3 41/56/3
f 43/61/3 41/58/3 42/57/3
f 45/62/3 44/60/3 43/59/3
f 46/63/3 47/64/3 48/65/3
f 49/66/3 47/64/3 46/63/3
f 50/67/3 51/68/3 52/69/3
f 53/70/3 51/68/3 50/67/3
f 54/71/4 55/72/4 56/73/4
f 57/74/4 54/75/4 58/76/4
f 54/71/4 56/73/4 59/77/4
f 58/76/4 54/75/4 59/78/4
f 56/79/4 60/80/4 61/81/4
f 59/77/4 56/73/4 61/82/4
f 60/83/4 62/84/4 63/85/4
f 61/81/4 60/80/4 63/86/4
f 63/85/4 62/84/4 64/87/4
f 65/88/4 66/89/4 67/90/4
f 66/91/4 68/92/4 69/93/4
f 67/90/4 66/89/4 69/94/4
f 69/93/4 68/92/4 70/95/4
f 71/96/5 72/97/5 73/98/5
f 74/99/5 72/97/5 71/96/5
f 75/100/5 72/97/5 74/99/5
f 76/101/5 72/97/5 75/100/5
f 77/102/6 78/103/6 79/104/6
f 77/102/6 79/104/6 80/105/6
f 80/105/6 79/104/6 81/106/6
f 82/107/6 83/108/6 84/109/6
f 84/109/6 83/108/6 85/110/6
f 86/111/6 87/112/6 88/113/6
f 88/113/6 87/112/6 89/114/6
f 86/111/6 88/113/6 90/115/6
f 90/115/6 88/113/6 91/116/6
f 92/117/6 93/118/6 94/119/6
f 94/119/6 93/118/6 95/120/6
