# Blender v2.78 (sub 0) OBJ File: ''
# www.blender.org
mtllib MossyBoulder2.mtl
o MossyBoulder2
v -2.074380 2.270077 2.066116
v -2.074380 0.270077 -1.933885
v -2.074380 0.270077 2.066115
v -2.074380 2.270077 1.066116
v -2.074380 2.270077 -0.933884
v -2.074380 2.270077 -1.933884
v -2.074380 3.270077 1.066116
v -2.074380 3.270077 -0.933884
v -1.074380 3.270077 2.066116
v -1.074380 2.270077 1.066116
v -1.074380 2.270077 2.066116
v -1.074380 3.270077 1.066116
v -1.074380 3.270077 -0.933884
v -1.074380 2.270077 -1.933884
v -1.074380 2.270077 -0.933884
v -1.074380 3.270077 -1.933884
v -1.074380 4.270077 1.066116
v -1.074380 4.270077 -0.933884
v -0.074380 4.270077 2.066116
v -0.074380 3.270077 1.066116
v -0.074380 3.270077 2.066116
v -0.074380 4.270077 1.066116
v 0.925620 2.270077 -0.933884
v 0.925620 2.270077 -1.933884
v 0.925620 3.270077 -0.933884
v 0.925620 3.270077 -1.933884
v 0.925620 3.270077 0.066116
v 0.925620 4.270077 0.066116
v 0.925620 4.270077 -0.933884
v 1.925620 0.270077 2.066115
v 1.925620 0.270077 -1.933885
v 1.925620 1.270077 -0.933884
v 1.925620 1.270077 -1.933885
v 1.925620 2.270077 -0.933884
v 1.925620 2.270077 -1.933884
v 1.925620 3.270077 2.066116
v 1.925620 3.270077 1.066116
v 1.925620 3.270077 0.066116
v 1.925620 3.270077 -0.933884
v 1.925620 4.270077 2.066116
v 1.925620 4.270077 1.066116
v 1.925620 4.270077 0.066116
v -1.074380 2.270077 2.066116
v -2.074380 2.270077 2.066116
v -2.074380 0.270077 2.066115
v -0.074380 3.270077 2.066116
v -1.074380 3.270077 2.066116
v 1.925620 0.270077 2.066115
v 1.925620 3.270077 2.066116
v -0.074380 4.270077 2.066116
v 1.925620 4.270077 2.066116
v -1.074380 2.270077 1.066116
v -2.074380 3.270077 1.066116
v -2.074380 2.270077 1.066116
v -1.074380 3.270077 1.066116
v -0.074380 3.270077 1.066116
v -1.074380 4.270077 1.066116
v -0.074380 4.270077 1.066116
v 0.925620 3.270077 0.066116
v 0.925620 4.270077 0.066116
v 1.925620 3.270077 0.066116
v 1.925620 4.270077 0.066116
v -2.074380 2.270077 -0.933884
v -2.074380 3.270077 -0.933884
v -1.074380 2.270077 -0.933884
v -1.074380 3.270077 -0.933884
v -1.074380 4.270077 -0.933884
v 0.925620 3.270077 -0.933884
v 0.925620 4.270077 -0.933884
v 0.925620 2.270077 -0.933884
v 1.925620 2.270077 -0.933884
v 1.925620 3.270077 -0.933884
v -2.074380 0.270077 -1.933885
v -2.074380 2.270077 -1.933884
v -1.074380 2.270077 -1.933884
v 0.925620 1.270077 -1.933885
v -1.074380 3.270077 -1.933884
v 0.925620 2.270077 -1.933884
v 0.925620 3.270077 -1.933884
v 1.925620 0.270077 -1.933885
v 1.925620 1.270077 -1.933885
v 1.925620 2.270077 -1.933884
v -2.074380 0.270077 -1.933885
v 1.925620 0.270077 2.066115
v -2.074380 0.270077 2.066115
v 1.925620 0.270077 -1.933885
v -2.074380 2.270077 2.066116
v -1.074380 2.270077 2.066116
v -2.074380 2.270077 1.066116
v -1.074380 2.270077 1.066116
v -2.074380 2.270077 -0.933884
v -1.074380 2.270077 -0.933884
v -2.074380 2.270077 -1.933884
v -1.074380 2.270077 -1.933884
v 0.925620 2.270077 -0.933884
v 1.925620 2.270077 -0.933884
v 0.925620 2.270077 -1.933884
v 1.925620 2.270077 -1.933884
v -1.074380 3.270077 2.066116
v -0.074380 3.270077 2.066116
v -1.074380 3.270077 1.066116
v -0.074380 3.270077 1.066116
v -2.074380 3.270077 1.066116
v -2.074380 3.270077 -0.933884
v -1.074380 3.270077 -0.933884
v 0.925620 3.270077 0.066116
v 1.925620 3.270077 0.066116
v 0.925620 3.270077 -0.933884
v 1.925620 3.270077 -0.933884
v -1.074380 3.270077 -1.933884
v 0.925620 3.270077 -1.933884
v -0.074380 4.270077 2.066116
v 1.925620 4.270077 2.066116
v -0.074380 4.270077 1.066116
v 0.925620 4.270077 1.066116
v 1.925620 4.270077 1.066116
v -1.074380 4.270077 1.066116
v 0.925620 4.270077 0.066116
v 1.925620 4.270077 0.066116
v -1.074380 4.270077 -0.933884
v 0.925620 4.270077 -0.933884
vt 0.9668 0.5000
vt 0.9668 0.5000
vt 0.9668 0.5000
vt 0.9668 0.5000
vt 0.9668 0.5000
vt 0.9668 0.5000
vt 0.9668 0.5000
vt 0.9668 0.5000
vt 0.9668 0.5000
vt 0.9668 0.5000
vt 0.9668 0.5000
vt 0.9668 0.5000
vt 0.7715 0.5000
vt 0.7715 0.5000
vt 0.7715 0.5000
vt 0.7715 0.5000
vt 0.7715 0.5000
vt 0.7715 0.5000
vt 0.7715 0.5000
vt 0.7715 0.5000
vt 0.7715 0.5000
vt 0.7715 0.5000
vt 0.7715 0.5000
vt 0.7715 0.5000
vt 0.7715 0.5000
vt 0.7715 0.5000
vt 0.7715 0.5000
vt 0.7715 0.5000
vt 0.7715 0.5000
vt 0.7715 0.5000
vt 0.9668 0.5000
vt 0.9668 0.5000
vt 0.9668 0.5000
vt 0.9668 0.5000
vt 0.9668 0.5000
vt 0.7715 0.5000
vt 0.7715 0.5000
vt 0.7715 0.5000
vt 0.7715 0.5000
vt 0.9668 0.5000
vt 0.9668 0.5000
vt 0.9668 0.5000
vt 0.9668 0.5000
vt 0.7715 0.5000
vt 0.7715 0.5000
vt 0.7715 0.5000
vt 0.9668 0.5000
vt 0.7715 0.5000
vt 0.9668 0.5000
vt 0.9668 0.5000
vt 0.9668 0.5000
vt 0.9668 0.5000
vt 0.9668 0.5000
vt 0.9668 0.5000
vt 0.9668 0.5000
vt 0.7715 0.5000
vt 0.7715 0.5000
vt 0.7715 0.5000
vt 0.9668 0.5000
vt 0.7715 0.5000
vt 0.9668 0.5000
vt 0.9668 0.5000
vt 0.9668 0.5000
vt 0.9668 0.5000
vt 0.7715 0.5000
vt 0.7715 0.5000
vt 0.7715 0.5000
vt 0.7715 0.5000
vt 0.9668 0.5000
vt 0.9668 0.5000
vt 0.9668 0.5000
vt 0.9668 0.5000
vt 0.9668 0.5000
vt 0.9668 0.5000
vt 0.9668 0.5000
vt 0.9668 0.5000
vt 0.7715 0.5000
vt 0.7715 0.5000
vt 0.7715 0.5000
vt 0.7715 0.5000
vt 0.9668 0.5000
vt 0.9668 0.5000
vt 0.9668 0.5000
vt 0.9668 0.5000
vt 0.9668 0.5000
vt 0.9668 0.5000
vt 0.9668 0.5000
vt 0.9668 0.5000
vt 0.7715 0.5000
vt 0.7715 0.5000
vt 0.7715 0.5000
vt 0.9668 0.5000
vt 0.7715 0.5000
vt 0.9668 0.5000
vt 0.7715 0.5000
vt 0.7715 0.5000
vt 0.9668 0.5000
vt 0.7715 0.5000
vt 0.9668 0.5000
vt 0.9668 0.5000
vt 0.9668 0.5000
vt 0.9668 0.5000
vt 0.9668 0.5000
vt 0.9668 0.5000
vt 0.9668 0.5000
vt 0.9668 0.5000
vt 0.9668 0.5000
vt 0.9668 0.5000
vt 0.9668 0.5000
vt 0.9668 0.5000
vt 0.7715 0.5000
vt 0.7715 0.5000
vt 0.7715 0.5000
vt 0.7715 0.5000
vt 0.9668 0.5000
vt 0.9668 0.5000
vt 0.9668 0.5000
vt 0.9668 0.5000
vt 0.9668 0.5000
vt 0.9668 0.5000
vt 0.9668 0.5000
vt 0.9668 0.5000
vt 0.9668 0.5000
vt 0.9668 0.5000
vt 0.9668 0.5000
vt 0.7715 0.5000
vt 0.7715 0.5000
vt 0.7715 0.5000
vt 0.7715 0.5000
vt 0.7715 0.5000
vt 0.7715 0.5000
vt 0.7715 0.5000
vt 0.7715 0.5000
vt 0.7715 0.5000
vt 0.7715 0.5000
vt 0.7715 0.5000
vt 0.9668 0.5000
vt 0.9668 0.5000
vt 0.9668 0.5000
vt 0.9668 0.5000
vt 0.7715 0.5000
vt 0.7715 0.5000
vn -1.0000 0.0000 0.0000
vn 1.0000 0.0000 0.0000
vn 0.0000 -0.0000 1.0000
vn 0.0000 0.0000 -1.0000
vn 0.0000 -1.0000 -0.0000
vn 0.0000 1.0000 0.0000
usemtl palette.006
s 1
f 1/1/1 2/2/1 3/3/1
f 4/4/1 2/2/1 1/1/1
f 5/5/1 2/2/1 4/4/1
f 6/6/1 2/2/1 5/5/1
f 7/7/1 5/5/1 4/4/1
f 8/8/1 5/5/1 7/7/1
f 9/9/1 10/10/1 11/11/1
f 12/12/1 10/10/1 9/9/1
f 13/13/1 14/14/1 15/15/1
f 16/16/1 14/14/1 13/13/1
f 17/17/1 13/13/1 12/18/1
f 18/19/1 13/13/1 17/17/1
f 19/20/1 20/21/1 21/22/1
f 22/23/1 20/21/1 19/20/1
f 23/24/2 24/25/2 25/26/2
f 25/26/2 24/25/2 26/27/2
f 27/28/2 25/26/2 28/29/2
f 28/29/2 25/26/2 29/30/2
f 30/31/2 31/32/2 32/33/2
f 32/33/2 31/32/2 33/34/2
f 30/31/2 32/33/2 34/35/2
f 32/36/2 33/37/2 34/38/2
f 34/38/2 33/37/2 35/39/2
f 30/31/2 34/35/2 36/40/2
f 36/40/2 34/35/2 37/41/2
f 37/41/2 34/35/2 38/42/2
f 38/42/2 34/35/2 39/43/2
f 36/44/2 37/45/2 40/46/2
f 37/41/2 38/42/2 41/47/2
f 40/46/2 37/45/2 41/48/2
f 41/47/2 38/42/2 42/49/2
f 43/50/3 44/51/3 45/52/3
f 46/53/3 47/54/3 43/50/3
f 48/55/3 43/50/3 45/52/3
f 48/55/3 46/53/3 43/50/3
f 49/56/3 50/57/3 46/58/3
f 49/59/3 46/53/3 48/55/3
f 51/60/3 50/57/3 49/56/3
f 52/61/3 53/62/3 54/63/3
f 55/64/3 53/62/3 52/61/3
f 56/65/3 57/66/3 55/67/3
f 58/68/3 57/66/3 56/65/3
f 59/69/4 60/70/4 61/71/4
f 61/71/4 60/70/4 62/72/4
f 63/73/4 64/74/4 65/75/4
f 65/75/4 64/74/4 66/76/4
f 66/77/4 67/78/4 68/79/4
f 68/79/4 67/78/4 69/80/4
f 70/81/4 68/82/4 71/83/4
f 71/83/4 68/82/4 72/84/4
f 73/85/4 74/86/4 75/87/4
f 73/85/4 75/87/4 76/88/4
f 75/89/4 77/90/4 78/91/4
f 76/88/4 75/87/4 78/92/4
f 78/91/4 77/90/4 79/93/4
f 73/85/4 76/88/4 80/94/4
f 76/95/4 78/91/4 81/96/4
f 80/94/4 76/88/4 81/97/4
f 81/96/4 78/91/4 82/98/4
f 83/99/5 84/100/5 85/101/5
f 86/102/5 84/100/5 83/99/5
f 87/103/6 88/104/6 89/105/6
f 89/105/6 88/104/6 90/106/6
f 91/107/6 92/108/6 93/109/6
f 93/109/6 92/108/6 94/110/6
f 95/111/6 96/112/6 97/113/6
f 97/113/6 96/112/6 98/114/6
f 99/115/6 100/116/6 101/117/6
f 101/117/6 100/116/6 102/118/6
f 103/119/6 101/117/6 104/120/6
f 104/120/6 101/117/6 105/121/6
f 106/122/6 107/123/6 108/124/6
f 108/124/6 107/123/6 109/125/6
f 105/126/6 108/127/6 110/128/6
f 110/128/6 108/127/6 111/129/6
f 112/130/6 113/131/6 114/132/6
f 114/132/6 113/131/6 115/133/6
f 115/133/6 113/131/6 116/134/6
f 117/135/6 114/132/6 118/136/6
f 114/132/6 115/133/6 118/136/6
f 115/137/6 116/138/6 118/139/6
f 118/139/6 116/138/6 119/140/6
f 117/135/6 118/136/6 120/141/6
f 120/141/6 118/136/6 121/142/6
