# Blender v2.78 (sub 0) OBJ File: ''
# www.blender.org
mtllib MossyLog.mtl
o MossyLog
v -4.000000 1.239466 0.919491
v -4.000000 0.239466 -2.080509
v -4.000000 0.239465 1.919491
v -4.000000 1.239466 -1.080509
v -4.000000 2.239465 1.919491
v -4.000000 2.239466 0.919491
v -4.000000 3.239466 0.919491
v -4.000000 3.239466 -1.080509
v -4.000000 3.239466 -2.080509
v -4.000000 4.239466 1.919491
v -4.000000 4.239466 -0.080509
v -4.000000 4.239466 -1.080509
v -4.000000 4.239466 -2.080509
v -4.000000 5.239466 -0.080509
v -4.000000 5.239466 -1.080509
v -2.000000 5.239466 0.919491
v -2.000000 4.239466 -0.080509
v -2.000000 4.239466 0.919491
v -2.000000 5.239466 -0.080509
v -2.000000 6.239466 0.919492
v -2.000000 6.239466 -0.080508
v -1.000000 5.239466 1.919491
v -1.000000 4.239466 0.919491
v -1.000000 4.239466 1.919491
v -1.000000 5.239466 0.919491
v 0.000000 5.239466 -0.080509
v 0.000000 4.239466 -1.080509
v 0.000000 4.239466 -0.080509
v 0.000000 5.239466 -1.080509
v 0.000000 6.239466 -0.080508
v 0.000000 6.239466 -1.080508
v 1.000000 5.239466 -1.080509
v 1.000000 4.239466 -2.080509
v 1.000000 4.239466 -1.080509
v 1.000000 5.239466 -2.080508
v 2.000000 5.239466 1.919491
v 2.000000 4.239466 -0.080509
v 2.000000 4.239466 1.919491
v 2.000000 5.239466 0.919491
v 2.000000 5.239466 -0.080509
v 2.000000 6.239466 0.919492
v 2.000000 6.239466 -0.080508
v -3.000000 4.239466 -0.080509
v -3.000000 4.239466 -1.080509
v -3.000000 5.239466 -0.080509
v -3.000000 5.239466 -1.080509
v -1.000000 4.239466 0.919491
v -1.000000 4.239466 -0.080509
v -1.000000 5.239466 0.919491
v -1.000000 5.239466 -0.080509
v -1.000000 6.239466 0.919492
v -1.000000 6.239466 -0.080508
v 0.000000 4.239466 1.919491
v 0.000000 4.239466 0.919491
v 0.000000 5.239466 1.919491
v 0.000000 5.239466 0.919491
v 1.000000 4.239466 -0.080509
v 1.000000 4.239466 -1.080509
v 1.000000 5.239466 -0.080509
v 1.000000 5.239466 -1.080509
v 1.000000 6.239466 -0.080508
v 1.000000 6.239466 -1.080508
v 2.000000 4.239466 -1.080509
v 2.000000 4.239466 -2.080509
v 2.000000 5.239466 -1.080509
v 2.000000 5.239466 -2.080508
v 3.000000 4.239466 1.919491
v 3.000000 4.239466 -0.080509
v 3.000000 5.239466 1.919491
v 3.000000 5.239466 0.919491
v 3.000000 5.239466 -0.080509
v 3.000000 6.239466 0.919492
v 3.000000 6.239466 -0.080508
v 4.000000 0.239465 1.919491
v 4.000000 0.239466 -2.080509
v 4.000000 1.239466 0.919491
v 4.000000 1.239466 -1.080509
v 4.000000 3.239465 1.919491
v 4.000000 3.239466 0.919491
v 4.000000 3.239466 -1.080509
v 4.000000 3.239466 -2.080509
v 4.000000 4.239466 1.919491
v 4.000000 4.239466 -2.080509
v -2.000000 1.239465 1.919491
v -4.000000 2.239465 1.919491
v -4.000000 0.239465 1.919491
v -2.000000 2.239465 1.919491
v -4.000000 4.239466 1.919491
v -2.000000 3.239465 1.919491
v -1.000000 2.239465 1.919491
v -1.000000 3.239465 1.919491
v -1.000000 4.239466 1.919491
v 0.000000 1.239465 1.919491
v -1.000000 5.239466 1.919491
v 0.000000 2.239465 1.919491
v 0.000000 4.239466 1.919491
v 0.000000 5.239466 1.919491
v 2.000000 2.239465 1.919491
v 2.000000 3.239465 1.919491
v 2.000000 4.239466 1.919491
v 3.000000 4.239466 1.919491
v 2.000000 5.239466 1.919491
v 3.000000 5.239466 1.919491
v 4.000000 0.239465 1.919491
v 4.000000 3.239465 1.919491
v 4.000000 4.239466 1.919491
v -1.000000 4.239466 0.919491
v -2.000000 5.239466 0.919491
v -2.000000 4.239466 0.919491
v -1.000000 5.239466 0.919491
v -2.000000 6.239466 0.919492
v -1.000000 6.239466 0.919492
v 3.000000 5.239466 0.919491
v 2.000000 6.239466 0.919492
v 2.000000 5.239466 0.919491
v 3.000000 6.239466 0.919492
v -3.000000 4.239466 -0.080509
v -4.000000 5.239466 -0.080509
v -4.000000 4.239466 -0.080509
v -3.000000 5.239466 -0.080509
v 1.000000 4.239466 -0.080509
v 0.000000 5.239466 -0.080509
v 0.000000 4.239466 -0.080509
v 1.000000 5.239466 -0.080509
v 0.000000 6.239466 -0.080508
v 1.000000 6.239466 -0.080508
v 2.000000 4.239466 -1.080509
v 1.000000 5.239466 -1.080509
v 1.000000 4.239466 -1.080509
v 2.000000 5.239466 -1.080509
v -1.000000 4.239466 0.919491
v -1.000000 5.239466 0.919491
v 0.000000 4.239466 0.919491
v 0.000000 5.239466 0.919491
v -2.000000 4.239466 -0.080509
v -2.000000 5.239466 -0.080509
v -1.000000 4.239466 -0.080509
v -2.000000 6.239466 -0.080508
v -1.000000 5.239466 -0.080509
v -1.000000 6.239466 -0.080508
v 2.000000 4.239466 -0.080509
v 2.000000 5.239466 -0.080509
v 3.000000 4.239466 -0.080509
v 2.000000 6.239466 -0.080508
v 3.000000 5.239466 -0.080509
v 3.000000 6.239466 -0.080508
v -4.000000 4.239466 -1.080509
v -4.000000 5.239466 -1.080509
v -3.000000 4.239466 -1.080509
v -3.000000 5.239466 -1.080509
v 0.000000 4.239466 -1.080509
v 0.000000 5.239466 -1.080509
v 1.000000 4.239466 -1.080509
v 0.000000 6.239466 -1.080508
v 1.000000 5.239466 -1.080509
v 1.000000 6.239466 -1.080508
v -4.000000 0.239466 -2.080509
v -4.000000 3.239466 -2.080509
v -3.000000 1.239466 -2.080509
v -3.000000 2.239466 -2.080509
v -2.000000 2.239466 -2.080509
v -4.000000 4.239466 -2.080509
v -2.000000 3.239466 -2.080509
v -1.000000 1.239466 -2.080509
v -1.000000 2.239466 -2.080509
v 1.000000 1.239466 -2.080509
v 1.000000 2.239466 -2.080509
v 1.000000 4.239466 -2.080509
v 2.000000 1.239466 -2.080509
v 1.000000 5.239466 -2.080508
v 2.000000 2.239466 -2.080509
v 2.000000 4.239466 -2.080509
v 2.000000 5.239466 -2.080508
v 3.000000 2.239466 -2.080509
v 3.000000 3.239466 -2.080509
v 4.000000 0.239466 -2.080509
v 4.000000 3.239466 -2.080509
v 4.000000 4.239466 -2.080509
v -4.000000 0.239466 -2.080509
v 4.000000 0.239465 1.919491
v -4.000000 0.239465 1.919491
v 4.000000 0.239466 -2.080509
v -4.000000 4.239466 1.919491
v -1.000000 4.239466 1.919491
v -2.000000 4.239466 0.919491
v -1.000000 4.239466 0.919491
v 0.000000 4.239466 1.919491
v 2.000000 4.239466 1.919491
v 0.000000 4.239466 0.919491
v -4.000000 4.239466 -0.080509
v -3.000000 4.239466 -0.080509
v -2.000000 4.239466 -0.080509
v -1.000000 4.239466 -0.080509
v 0.000000 4.239466 -0.080509
v 1.000000 4.239466 -0.080509
v 2.000000 4.239466 -0.080509
v 3.000000 4.239466 1.919491
v 4.000000 4.239466 1.919491
v 3.000000 4.239466 -0.080509
v -3.000000 4.239466 -1.080509
v 0.000000 4.239466 -1.080509
v 1.000000 4.239466 -1.080509
v 2.000000 4.239466 -1.080509
v -4.000000 4.239466 -2.080509
v -4.000000 4.239466 -1.080509
v 1.000000 4.239466 -2.080509
v 2.000000 4.239466 -2.080509
v 4.000000 4.239466 -2.080509
v -1.000000 5.239466 1.919491
v 0.000000 5.239466 1.919491
v -1.000000 5.239466 0.919491
v 0.000000 5.239466 0.919491
v 2.000000 5.239466 1.919491
v 3.000000 5.239466 1.919491
v 2.000000 5.239466 0.919491
v 3.000000 5.239466 0.919491
v -4.000000 5.239466 -0.080509
v -3.000000 5.239466 -0.080509
v -4.000000 5.239466 -1.080509
v -3.000000 5.239466 -1.080509
v 1.000000 5.239466 -1.080509
v 2.000000 5.239466 -1.080509
v 1.000000 5.239466 -2.080508
v 2.000000 5.239466 -2.080508
v -2.000000 6.239466 0.919492
v -1.000000 6.239466 0.919492
v -2.000000 6.239466 -0.080508
v -1.000000 6.239466 -0.080508
v 2.000000 6.239466 0.919492
v 3.000000 6.239466 0.919492
v 2.000000 6.239466 -0.080508
v 3.000000 6.239466 -0.080508
v 0.000000 6.239466 -0.080508
v 1.000000 6.239466 -0.080508
v 0.000000 6.239466 -1.080508
v 1.000000 6.239466 -1.080508
vt 0.3691 0.5000
vt 0.3691 0.5000
vt 0.3691 0.5000
vt 0.3691 0.5000
vt 0.3691 0.5000
vt 0.2754 0.5000
vt 0.2754 0.5000
vt 0.2754 0.5000
vt 0.3691 0.5000
vt 0.7676 0.5000
vt 0.7676 0.5000
vt 0.7676 0.5000
vt 0.2754 0.5000
vt 0.3691 0.5000
vt 0.2754 0.5000
vt 0.3691 0.5000
vt 0.7676 0.5000
vt 0.7676 0.5000
vt 0.7676 0.5000
vt 0.7676 0.5000
vt 0.7676 0.5000
vt 0.7676 0.5000
vt 0.7676 0.5000
vt 0.7676 0.5000
vt 0.7676 0.5000
vt 0.7676 0.5000
vt 0.7676 0.5000
vt 0.7676 0.5000
vt 0.2754 0.5000
vt 0.2754 0.5000
vt 0.2754 0.5000
vt 0.2754 0.5000
vt 0.7676 0.5000
vt 0.7676 0.5000
vt 0.7676 0.5000
vt 0.7676 0.5000
vt 0.7676 0.5000
vt 0.7676 0.5000
vt 0.7676 0.5000
vt 0.7676 0.5000
vt 0.2754 0.5000
vt 0.2754 0.5000
vt 0.2754 0.5000
vt 0.2754 0.5000
vt 0.7676 0.5000
vt 0.7676 0.5000
vt 0.7676 0.5000
vt 0.7676 0.5000
vt 0.7676 0.5000
vt 0.7676 0.5000
vt 0.7676 0.5000
vt 0.7676 0.5000
vt 0.7676 0.5000
vt 0.2754 0.5000
vt 0.2754 0.5000
vt 0.2754 0.5000
vt 0.2754 0.5000
vt 0.7676 0.5000
vt 0.7676 0.5000
vt 0.7676 0.5000
vt 0.7676 0.5000
vt 0.7676 0.5000
vt 0.7676 0.5000
vt 0.7676 0.5000
vt 0.7676 0.5000
vt 0.2754 0.5000
vt 0.2754 0.5000
vt 0.2754 0.5000
vt 0.2754 0.5000
vt 0.7676 0.5000
vt 0.7676 0.5000
vt 0.7676 0.5000
vt 0.7676 0.5000
vt 0.7676 0.5000
vt 0.7676 0.5000
vt 0.7676 0.5000
vt 0.7676 0.5000
vt 0.2754 0.5000
vt 0.2754 0.5000
vt 0.2754 0.5000
vt 0.2754 0.5000
vt 0.7676 0.5000
vt 0.7676 0.5000
vt 0.7676 0.5000
vt 0.7676 0.5000
vt 0.7676 0.5000
vt 0.7676 0.5000
vt 0.7676 0.5000
vt 0.7676 0.5000
vt 0.7676 0.5000
vt 0.2754 0.5000
vt 0.2754 0.5000
vt 0.2754 0.5000
vt 0.2754 0.5000
vt 0.3691 0.5000
vt 0.3691 0.5000
vt 0.3691 0.5000
vt 0.3691 0.5000
vt 0.3691 0.5000
vt 0.2754 0.5000
vt 0.2754 0.5000
vt 0.2754 0.5000
vt 0.3691 0.5000
vt 0.3691 0.5000
vt 0.2754 0.5000
vt 0.3691 0.5000
vt 0.7676 0.5000
vt 0.7676 0.5000
vt 0.7676 0.5000
vt 0.7676 0.5000
vt 0.7676 0.5000
vt 0.7676 0.5000
vt 0.3691 0.5000
vt 0.3691 0.5000
vt 0.3691 0.5000
vt 0.7676 0.5000
vt 0.7676 0.5000
vt 0.7676 0.5000
vt 0.3691 0.5000
vt 0.7676 0.5000
vt 0.7676 0.5000
vt 0.7676 0.5000
vt 0.3691 0.5000
vt 0.3691 0.5000
vt 0.7676 0.5000
vt 0.3691 0.5000
vt 0.7676 0.5000
vt 0.3691 0.5000
vt 0.7676 0.5000
vt 0.7676 0.5000
vt 0.7676 0.5000
vt 0.7676 0.5000
vt 0.7676 0.5000
vt 0.3691 0.5000
vt 0.3691 0.5000
vt 0.7676 0.5000
vt 0.7676 0.5000
vt 0.7676 0.5000
vt 0.7676 0.5000
vt 0.7676 0.5000
vt 0.7676 0.5000
vt 0.3691 0.5000
vt 0.3691 0.5000
vt 0.7676 0.5000
vt 0.3691 0.5000
vt 0.7676 0.5000
vt 0.7676 0.5000
vt 0.7676 0.5000
vt 0.7676 0.5000
vt 0.2754 0.5000
vt 0.2754 0.5000
vt 0.2754 0.5000
vt 0.7676 0.5000
vt 0.2754 0.5000
vt 0.2754 0.5000
vt 0.2754 0.5000
vt 0.2754 0.5000
vt 0.2754 0.5000
vt 0.7676 0.5000
vt 0.7676 0.5000
vt 0.7676 0.5000
vt 0.7676 0.5000
vt 0.7676 0.5000
vt 0.7676 0.5000
vt 0.7676 0.5000
vt 0.2754 0.5000
vt 0.2754 0.5000
vt 0.2754 0.5000
vt 0.7676 0.5000
vt 0.2754 0.5000
vt 0.7676 0.5000
vt 0.7676 0.5000
vt 0.7676 0.5000
vt 0.7676 0.5000
vt 0.7676 0.5000
vt 0.7676 0.5000
vt 0.7676 0.5000
vt 0.7676 0.5000
vt 0.7676 0.5000
vt 0.7676 0.5000
vt 0.7676 0.5000
vt 0.2754 0.5000
vt 0.2754 0.5000
vt 0.2754 0.5000
vt 0.7676 0.5000
vt 0.2754 0.5000
vt 0.7676 0.5000
vt 0.7676 0.5000
vt 0.7676 0.5000
vt 0.2754 0.5000
vt 0.2754 0.5000
vt 0.2754 0.5000
vt 0.7676 0.5000
vt 0.2754 0.5000
vt 0.7676 0.5000
vt 0.7676 0.5000
vt 0.7676 0.5000
vt 0.7676 0.5000
vt 0.7676 0.5000
vt 0.7676 0.5000
vt 0.7676 0.5000
vt 0.2754 0.5000
vt 0.2754 0.5000
vt 0.2754 0.5000
vt 0.7676 0.5000
vt 0.2754 0.5000
vt 0.3691 0.5000
vt 0.3691 0.5000
vt 0.3691 0.5000
vt 0.3691 0.5000
vt 0.7676 0.5000
vt 0.7676 0.5000
vt 0.7676 0.5000
vt 0.3691 0.5000
vt 0.7676 0.5000
vt 0.7676 0.5000
vt 0.7676 0.5000
vt 0.3691 0.5000
vt 0.7676 0.5000
vt 0.3691 0.5000
vt 0.7676 0.5000
vt 0.3691 0.5000
vt 0.3691 0.5000
vt 0.7676 0.5000
vt 0.3691 0.5000
vt 0.7676 0.5000
vt 0.7676 0.5000
vt 0.7676 0.5000
vt 0.7676 0.5000
vt 0.3691 0.5000
vt 0.7676 0.5000
vt 0.7676 0.5000
vt 0.7676 0.5000
vt 0.3691 0.5000
vt 0.3691 0.5000
vt 0.7676 0.5000
vt 0.7676 0.5000
vt 0.3691 0.5000
vt 0.3691 0.5000
vt 0.7676 0.5000
vt 0.3691 0.5000
vt 0.7676 0.5000
vt 0.3691 0.5000
vt 0.3691 0.5000
vt 0.3691 0.5000
vt 0.3691 0.5000
vt 0.7676 0.5000
vt 0.7676 0.5000
vt 0.7676 0.5000
vt 0.7676 0.5000
vt 0.7676 0.5000
vt 0.7676 0.5000
vt 0.7676 0.5000
vt 0.7676 0.5000
vt 0.7676 0.5000
vt 0.7676 0.5000
vt 0.7676 0.5000
vt 0.7676 0.5000
vt 0.7676 0.5000
vt 0.7676 0.5000
vt 0.7676 0.5000
vt 0.7676 0.5000
vt 0.7676 0.5000
vt 0.7676 0.5000
vt 0.7676 0.5000
vt 0.7676 0.5000
vt 0.7676 0.5000
vt 0.7676 0.5000
vt 0.7676 0.5000
vt 0.7676 0.5000
vt 0.7676 0.5000
vt 0.7676 0.5000
vt 0.7676 0.5000
vt 0.7676 0.5000
vt 0.7676 0.5000
vt 0.7676 0.5000
vt 0.7676 0.5000
vt 0.7676 0.5000
vt 0.7676 0.5000
vt 0.7676 0.5000
vt 0.7676 0.5000
vt 0.7676 0.5000
vt 0.7676 0.5000
vt 0.7676 0.5000
vt 0.7676 0.5000
vt 0.7676 0.5000
vt 0.7676 0.5000
vt 0.7676 0.5000
vt 0.2754 0.5000
vt 0.2754 0.5000
vt 0.2754 0.5000
vt 0.2754 0.5000
vt 0.2754 0.5000
vt 0.2754 0.5000
vt 0.2754 0.5000
vt 0.2754 0.5000
vt 0.2754 0.5000
vt 0.2754 0.5000
vt 0.2754 0.5000
vt 0.2754 0.5000
vn -1.0000 0.0000 0.0000
vn 1.0000 0.0000 0.0000
vn 0.0000 -0.0000 1.0000
vn 0.0000 0.0000 -1.0000
vn 0.0000 -1.0000 -0.0000
vn 0.0000 1.0000 -0.0000
usemtl palette.007
s 1
f 1/1/1 2/2/1 3/3/1
f 4/4/1 2/2/1 1/1/1
f 5/5/1 1/1/1 3/3/1
f 6/6/1 4/7/1 1/8/1
f 6/9/1 1/1/1 5/5/1
f 7/10/1 6/11/1 5/12/1
f 7/13/1 4/7/1 6/6/1
f 8/14/1 2/2/1 4/4/1
f 8/15/1 4/7/1 7/13/1
f 9/16/1 2/2/1 8/14/1
f 10/17/1 7/10/1 5/12/1
f 10/17/1 8/18/1 7/10/1
f 10/17/1 9/19/1 8/18/1
f 11/20/1 9/19/1 10/17/1
f 12/21/1 9/19/1 11/20/1
f 13/22/1 9/19/1 12/21/1
f 14/23/1 12/21/1 11/20/1
f 15/24/1 12/21/1 14/23/1
f 16/25/1 17/26/1 18/27/1
f 19/28/1 17/26/1 16/25/1
f 20/29/1 19/30/1 16/31/1
f 21/32/1 19/30/1 20/29/1
f 22/33/1 23/34/1 24/35/1
f 25/36/1 23/34/1 22/33/1
f 26/37/1 27/38/1 28/39/1
f 29/40/1 27/38/1 26/37/1
f 30/41/1 29/42/1 26/43/1
f 31/44/1 29/42/1 30/41/1
f 32/45/1 33/46/1 34/47/1
f 35/48/1 33/46/1 32/45/1
f 36/49/1 37/50/1 38/51/1
f 39/52/1 37/50/1 36/49/1
f 40/53/1 37/50/1 39/52/1
f 41/54/1 40/55/1 39/56/1
f 42/57/1 40/55/1 41/54/1
f 43/58/2 44/59/2 45/60/2
f 45/60/2 44/59/2 46/61/2
f 47/62/2 48/63/2 49/64/2
f 49/64/2 48/63/2 50/65/2
f 49/66/2 50/67/2 51/68/2
f 51/68/2 50/67/2 52/69/2
f 53/70/2 54/71/2 55/72/2
f 55/72/2 54/71/2 56/73/2
f 57/74/2 58/75/2 59/76/2
f 59/76/2 58/75/2 60/77/2
f 59/78/2 60/79/2 61/80/2
f 61/80/2 60/79/2 62/81/2
f 63/82/2 64/83/2 65/84/2
f 65/84/2 64/83/2 66/85/2
f 67/86/2 68/87/2 69/88/2
f 69/88/2 68/87/2 70/89/2
f 70/89/2 68/87/2 71/90/2
f 70/91/2 71/92/2 72/93/2
f 72/93/2 71/92/2 73/94/2
f 74/95/2 75/96/2 76/97/2
f 76/97/2 75/96/2 77/98/2
f 74/95/2 76/97/2 78/99/2
f 76/100/2 77/101/2 79/102/2
f 78/99/2 76/97/2 79/103/2
f 77/98/2 75/96/2 80/104/2
f 79/102/2 77/101/2 80/105/2
f 80/104/2 75/96/2 81/106/2
f 78/107/2 79/108/2 82/109/2
f 79/108/2 80/110/2 82/109/2
f 80/110/2 81/111/2 82/109/2
f 82/109/2 81/111/2 83/112/2
f 84/113/3 85/114/3 86/115/3
f 87/116/3 88/117/3 85/118/3
f 87/119/3 85/114/3 84/113/3
f 89/120/3 88/117/3 87/116/3
f 90/121/3 87/116/3 84/122/3
f 90/123/3 89/124/3 87/119/3
f 91/125/3 88/117/3 89/120/3
f 91/126/3 89/124/3 90/123/3
f 92/127/3 88/117/3 91/125/3
f 93/128/3 84/113/3 86/115/3
f 93/129/3 94/130/3 92/127/3
f 93/129/3 92/127/3 91/125/3
f 93/129/3 91/125/3 90/121/3
f 93/129/3 90/121/3 84/122/3
f 95/131/3 94/130/3 93/129/3
f 96/132/3 94/130/3 95/131/3
f 97/133/3 94/130/3 96/132/3
f 98/134/3 95/135/3 93/128/3
f 98/136/3 96/132/3 95/131/3
f 99/137/3 96/132/3 98/136/3
f 100/138/3 96/132/3 99/137/3
f 101/139/3 100/138/3 99/137/3
f 101/139/3 102/140/3 100/138/3
f 103/141/3 102/140/3 101/139/3
f 104/142/3 93/128/3 86/115/3
f 104/142/3 98/134/3 93/128/3
f 104/142/3 99/143/3 98/134/3
f 105/144/3 101/139/3 99/137/3
f 105/145/3 99/143/3 104/142/3
f 106/146/3 101/139/3 105/144/3
f 107/147/3 108/148/3 109/149/3
f 110/150/3 111/151/3 108/152/3
f 110/153/3 108/148/3 107/147/3
f 112/154/3 111/151/3 110/150/3
f 113/155/3 114/156/3 115/157/3
f 116/158/3 114/156/3 113/155/3
f 117/159/3 118/160/3 119/161/3
f 120/162/3 118/160/3 117/159/3
f 121/163/3 122/164/3 123/165/3
f 124/166/3 125/167/3 122/168/3
f 124/169/3 122/164/3 121/163/3
f 126/170/3 125/167/3 124/166/3
f 127/171/3 128/172/3 129/173/3
f 130/174/3 128/172/3 127/171/3
f 131/175/4 132/176/4 133/177/4
f 133/177/4 132/176/4 134/178/4
f 135/179/4 136/180/4 137/181/4
f 136/182/4 138/183/4 139/184/4
f 137/181/4 136/180/4 139/185/4
f 139/184/4 138/183/4 140/186/4
f 141/187/4 142/188/4 143/189/4
f 142/190/4 144/191/4 145/192/4
f 143/189/4 142/188/4 145/193/4
f 145/192/4 144/191/4 146/194/4
f 147/195/4 148/196/4 149/197/4
f 149/197/4 148/196/4 150/198/4
f 151/199/4 152/200/4 153/201/4
f 152/202/4 154/203/4 155/204/4
f 153/201/4 152/200/4 155/205/4
f 155/204/4 154/203/4 156/206/4
f 157/207/4 158/208/4 159/209/4
f 159/209/4 158/208/4 160/210/4
f 159/211/4 160/212/4 161/213/4
f 160/210/4 158/208/4 161/214/4
f 158/215/4 162/216/4 163/217/4
f 161/214/4 158/208/4 163/218/4
f 159/211/4 161/213/4 164/219/4
f 157/207/4 159/209/4 164/220/4
f 161/213/4 163/217/4 164/219/4
f 164/219/4 163/217/4 165/221/4
f 157/207/4 164/220/4 166/222/4
f 164/220/4 165/223/4 166/222/4
f 165/221/4 163/217/4 167/224/4
f 166/222/4 165/223/4 167/225/4
f 163/217/4 162/216/4 168/226/4
f 167/224/4 163/217/4 168/226/4
f 166/227/4 167/224/4 169/228/4
f 168/226/4 170/229/4 169/228/4
f 167/224/4 168/226/4 169/228/4
f 157/207/4 166/222/4 169/230/4
f 169/228/4 170/229/4 171/231/4
f 171/231/4 170/229/4 172/232/4
f 172/232/4 170/229/4 173/233/4
f 169/230/4 171/234/4 174/235/4
f 171/231/4 172/232/4 174/236/4
f 174/236/4 172/232/4 175/237/4
f 157/207/4 169/230/4 176/238/4
f 169/230/4 174/235/4 176/238/4
f 174/235/4 175/239/4 176/238/4
f 175/237/4 172/232/4 177/240/4
f 176/238/4 175/239/4 177/241/4
f 177/240/4 172/232/4 178/242/4
f 179/243/5 180/244/5 181/245/5
f 182/246/5 180/244/5 179/243/5
f 183/247/6 184/248/6 185/249/6
f 185/249/6 184/248/6 186/250/6
f 187/251/6 188/252/6 189/253/6
f 183/247/6 185/249/6 190/254/6
f 190/254/6 185/249/6 191/255/6
f 191/255/6 185/249/6 192/256/6
f 186/250/6 189/253/6 193/257/6
f 189/253/6 188/252/6 194/258/6
f 193/257/6 189/253/6 194/258/6
f 194/258/6 188/252/6 195/259/6
f 195/259/6 188/252/6 196/260/6
f 197/261/6 198/262/6 199/263/6
f 191/255/6 192/256/6 200/264/6
f 192/256/6 193/257/6 200/264/6
f 193/257/6 194/258/6 200/264/6
f 200/264/6 194/258/6 201/265/6
f 195/259/6 196/260/6 202/266/6
f 196/260/6 199/263/6 202/266/6
f 202/266/6 199/263/6 203/267/6
f 200/264/6 201/265/6 204/268/6
f 205/269/6 200/264/6 204/268/6
f 201/265/6 202/266/6 204/268/6
f 204/268/6 202/266/6 206/270/6
f 203/267/6 199/263/6 207/271/6
f 199/263/6 198/262/6 208/272/6
f 207/271/6 199/263/6 208/272/6
f 209/273/6 210/274/6 211/275/6
f 211/275/6 210/274/6 212/276/6
f 213/277/6 214/278/6 215/279/6
f 215/279/6 214/278/6 216/280/6
f 217/281/6 218/282/6 219/283/6
f 219/283/6 218/282/6 220/284/6
f 221/285/6 222/286/6 223/287/6
f 223/287/6 222/286/6 224/288/6
f 225/289/6 226/290/6 227/291/6
f 227/291/6 226/290/6 228/292/6
f 229/293/6 230/294/6 231/295/6
f 231/295/6 230/294/6 232/296/6
f 233/297/6 234/298/6 235/299/6
f 235/299/6 234/298/6 236/300/6
