# Blender v2.78 (sub 0) OBJ File: ''
# www.blender.org
mtllib MossyBoulder1.mtl
o MossyBoulder1
v -1.891473 1.287927 2.077519
v -1.891473 0.287928 -1.922481
v -1.891473 0.287927 2.077519
v -1.891473 1.287928 -1.922481
v -1.891473 2.287927 2.077519
v -1.891473 2.287927 1.077519
v -1.891473 2.287928 -0.922481
v -1.891473 2.287928 -1.922481
v -1.891473 3.287927 1.077519
v -1.891473 3.287928 -0.922480
v -0.891473 3.287927 2.077520
v -0.891473 2.287927 1.077519
v -0.891473 2.287927 2.077519
v -0.891473 3.287927 1.077519
v -0.891473 3.287928 -0.922480
v -0.891473 2.287928 -1.922481
v -0.891473 2.287928 -0.922481
v -0.891473 3.287928 -1.922480
v -0.891473 4.287927 1.077520
v -0.891473 4.287928 -0.922480
v 0.108527 4.287927 2.077520
v 0.108527 3.287927 1.077519
v 0.108527 3.287927 2.077520
v 0.108527 4.287927 1.077520
v 1.108527 2.287928 -0.922481
v 1.108527 2.287928 -1.922481
v 1.108527 3.287928 -0.922480
v 1.108527 3.287928 -1.922480
v 1.108527 3.287927 0.077519
v 1.108527 4.287928 0.077520
v 1.108527 4.287928 -0.922480
v 2.108527 0.287927 2.077519
v 2.108527 0.287928 -1.922481
v 2.108527 2.287928 -0.922481
v 2.108527 2.287928 -1.922481
v 2.108527 3.287927 0.077519
v 2.108527 3.287928 -0.922480
v 2.108527 4.287927 2.077520
v 2.108527 4.287928 0.077520
v -0.891473 2.287927 2.077519
v -1.891473 2.287927 2.077519
v -1.891473 1.287927 2.077519
v 0.108527 1.287927 2.077519
v -1.891473 0.287927 2.077519
v -0.891473 3.287927 2.077520
v 0.108527 2.287927 2.077519
v 0.108527 3.287927 2.077520
v 1.108527 2.287927 2.077519
v 0.108527 4.287927 2.077520
v 1.108527 4.287927 2.077520
v 2.108527 0.287927 2.077519
v 2.108527 4.287927 2.077520
v -0.891473 2.287927 1.077519
v -1.891473 3.287927 1.077519
v -1.891473 2.287927 1.077519
v -0.891473 3.287927 1.077519
v 0.108527 3.287927 1.077519
v -0.891473 4.287927 1.077520
v 0.108527 4.287927 1.077520
v 1.108527 3.287927 0.077519
v 1.108527 4.287928 0.077520
v 2.108527 3.287927 0.077519
v 2.108527 4.287928 0.077520
v -1.891473 2.287928 -0.922481
v -1.891473 3.287928 -0.922480
v -0.891473 2.287928 -0.922481
v -0.891473 3.287928 -0.922480
v -0.891473 4.287928 -0.922480
v 0.108527 3.287928 -0.922480
v 0.108527 4.287928 -0.922480
v 1.108527 3.287928 -0.922480
v 1.108527 4.287928 -0.922480
v 1.108527 2.287928 -0.922481
v 2.108527 2.287928 -0.922481
v 2.108527 3.287928 -0.922480
v -1.891473 0.287928 -1.922481
v -1.891473 1.287928 -1.922481
v -0.891473 1.287928 -1.922481
v -1.891473 2.287928 -1.922481
v -0.891473 2.287928 -1.922481
v 0.108527 2.287928 -1.922481
v -0.891473 3.287928 -1.922480
v 0.108527 3.287928 -1.922480
v 1.108527 2.287928 -1.922481
v 1.108527 3.287928 -1.922480
v 2.108527 0.287928 -1.922481
v 2.108527 2.287928 -1.922481
v -1.891473 0.287928 -1.922481
v 2.108527 0.287927 2.077519
v -1.891473 0.287927 2.077519
v 2.108527 0.287928 -1.922481
v -1.891473 2.287927 2.077519
v -0.891473 2.287927 2.077519
v -1.891473 2.287927 1.077519
v -0.891473 2.287927 1.077519
v -1.891473 2.287928 -0.922481
v -0.891473 2.287928 -0.922481
v -1.891473 2.287928 -1.922481
v -0.891473 2.287928 -1.922481
v 1.108527 2.287928 -0.922481
v 2.108527 2.287928 -0.922481
v 1.108527 2.287928 -1.922481
v 2.108527 2.287928 -1.922481
v -0.891473 3.287927 2.077520
v 0.108527 3.287927 2.077520
v -0.891473 3.287927 1.077519
v 0.108527 3.287927 1.077519
v -1.891473 3.287927 1.077519
v -1.891473 3.287928 -0.922480
v -0.891473 3.287928 -0.922480
v 1.108527 3.287927 0.077519
v 2.108527 3.287927 0.077519
v 1.108527 3.287928 -0.922480
v 2.108527 3.287928 -0.922480
v 0.108527 3.287928 -0.922480
v -0.891473 3.287928 -1.922480
v 0.108527 3.287928 -1.922480
v 1.108527 3.287928 -1.922480
v 0.108527 4.287927 2.077520
v 1.108527 4.287927 2.077520
v 0.108527 4.287927 1.077520
v 2.108527 4.287927 2.077520
v 1.108527 4.287927 1.077520
v 1.108527 4.287928 0.077520
v 2.108527 4.287928 0.077520
v -0.891473 4.287927 1.077520
v -0.891473 4.287928 -0.922480
v 0.108527 4.287928 -0.922480
v 1.108527 4.287928 -0.922480
vt 0.9668 0.5000
vt 0.9668 0.5000
vt 0.9668 0.5000
vt 0.9668 0.5000
vt 0.7715 0.5000
vt 0.7715 0.5000
vt 0.7715 0.5000
vt 0.7715 0.5000
vt 0.7715 0.5000
vt 0.7715 0.5000
vt 0.7715 0.5000
vt 0.7715 0.5000
vt 0.7715 0.5000
vt 0.7715 0.5000
vt 0.7715 0.5000
vt 0.7715 0.5000
vt 0.7715 0.5000
vt 0.7715 0.5000
vt 0.7715 0.5000
vt 0.7715 0.5000
vt 0.7715 0.5000
vt 0.7715 0.5000
vt 0.7715 0.5000
vt 0.7715 0.5000
vt 0.7715 0.5000
vt 0.7715 0.5000
vt 0.9668 0.5000
vt 0.9668 0.5000
vt 0.9668 0.5000
vt 0.9668 0.5000
vt 0.9668 0.5000
vt 0.9668 0.5000
vt 0.9668 0.5000
vt 0.9668 0.5000
vt 0.9668 0.5000
vt 0.9668 0.5000
vt 0.9668 0.5000
vt 0.9668 0.5000
vt 0.9668 0.5000
vt 0.9668 0.5000
vt 0.9668 0.5000
vt 0.7715 0.5000
vt 0.7715 0.5000
vt 0.7715 0.5000
vt 0.9668 0.5000
vt 0.9668 0.5000
vt 0.9668 0.5000
vt 0.7715 0.5000
vt 0.7715 0.5000
vt 0.7715 0.5000
vt 0.7715 0.5000
vt 0.9668 0.5000
vt 0.9668 0.5000
vt 0.7715 0.5000
vt 0.7715 0.5000
vt 0.7715 0.5000
vt 0.9668 0.5000
vt 0.9668 0.5000
vt 0.9668 0.5000
vt 0.7715 0.5000
vt 0.7715 0.5000
vt 0.7715 0.5000
vt 0.7715 0.5000
vt 0.7715 0.5000
vt 0.7715 0.5000
vt 0.7715 0.5000
vt 0.9668 0.5000
vt 0.9668 0.5000
vt 0.9668 0.5000
vt 0.9668 0.5000
vt 0.7715 0.5000
vt 0.7715 0.5000
vt 0.7715 0.5000
vt 0.7715 0.5000
vt 0.7715 0.5000
vt 0.7715 0.5000
vt 0.7715 0.5000
vt 0.9668 0.5000
vt 0.9668 0.5000
vt 0.9668 0.5000
vt 0.9668 0.5000
vt 0.9668 0.5000
vt 0.9668 0.5000
vt 0.9668 0.5000
vt 0.9668 0.5000
vt 0.9668 0.5000
vt 0.9668 0.5000
vt 0.7715 0.5000
vt 0.7715 0.5000
vt 0.7715 0.5000
vt 0.7715 0.5000
vt 0.9668 0.5000
vt 0.9668 0.5000
vt 0.7715 0.5000
vt 0.7715 0.5000
vt 0.7715 0.5000
vt 0.9668 0.5000
vt 0.9668 0.5000
vt 0.9668 0.5000
vt 0.9668 0.5000
vt 0.9668 0.5000
vt 0.9668 0.5000
vt 0.9668 0.5000
vt 0.9668 0.5000
vt 0.9668 0.5000
vt 0.7715 0.5000
vt 0.7715 0.5000
vt 0.7715 0.5000
vt 0.7715 0.5000
vt 0.7715 0.5000
vt 0.7715 0.5000
vt 0.7715 0.5000
vt 0.7715 0.5000
vt 0.9668 0.5000
vt 0.9668 0.5000
vt 0.9668 0.5000
vt 0.9668 0.5000
vt 0.7715 0.5000
vt 0.7715 0.5000
vt 0.7715 0.5000
vt 0.7715 0.5000
vt 0.7715 0.5000
vt 0.7715 0.5000
vt 0.7715 0.5000
vt 0.9668 0.5000
vt 0.9668 0.5000
vt 0.9668 0.5000
vt 0.9668 0.5000
vt 0.7715 0.5000
vt 0.7715 0.5000
vt 0.9668 0.5000
vt 0.9668 0.5000
vt 0.7715 0.5000
vt 0.9668 0.5000
vt 0.7715 0.5000
vt 0.7715 0.5000
vt 0.7715 0.5000
vt 0.9668 0.5000
vt 0.9668 0.5000
vt 0.9668 0.5000
vt 0.7715 0.5000
vt 0.9668 0.5000
vt 0.9668 0.5000
vt 0.9668 0.5000
vt 0.7715 0.5000
vt 0.7715 0.5000
vt 0.9668 0.5000
vt 0.7715 0.5000
vt 0.9668 0.5000
vn -1.0000 0.0000 0.0000
vn 1.0000 -0.0000 0.0000
vn 0.0000 -0.0000 1.0000
vn 0.0000 0.0000 -1.0000
vn 0.0000 -1.0000 -0.0000
vn 0.0000 1.0000 0.0000
usemtl palette.005
s 1
f 1/1/1 2/2/1 3/3/1
f 4/4/1 2/2/1 1/1/1
f 5/5/1 4/6/1 1/7/1
f 6/8/1 4/6/1 5/5/1
f 7/9/1 4/6/1 6/8/1
f 8/10/1 4/6/1 7/9/1
f 9/11/1 7/9/1 6/8/1
f 10/12/1 7/9/1 9/11/1
f 11/13/1 12/14/1 13/15/1
f 14/16/1 12/14/1 11/13/1
f 15/17/1 16/18/1 17/19/1
f 18/20/1 16/18/1 15/17/1
f 19/21/1 15/17/1 14/16/1
f 20/22/1 15/17/1 19/21/1
f 21/23/1 22/24/1 23/25/1
f 24/26/1 22/24/1 21/23/1
f 25/27/2 26/28/2 27/29/2
f 27/29/2 26/28/2 28/30/2
f 29/31/2 27/29/2 30/32/2
f 30/32/2 27/29/2 31/33/2
f 32/34/2 33/35/2 34/36/2
f 34/36/2 33/35/2 35/37/2
f 32/34/2 34/36/2 36/38/2
f 36/38/2 34/36/2 37/39/2
f 32/34/2 36/38/2 38/40/2
f 38/40/2 36/38/2 39/41/2
f 40/42/3 41/43/3 42/44/3
f 43/45/3 42/46/3 44/47/3
f 43/48/3 45/49/3 40/42/3
f 43/48/3 40/42/3 42/44/3
f 46/50/3 45/49/3 43/48/3
f 47/51/3 45/49/3 46/50/3
f 48/52/3 46/53/3 43/45/3
f 48/54/3 49/55/3 47/51/3
f 48/54/3 47/51/3 46/50/3
f 50/56/3 49/55/3 48/54/3
f 51/57/3 43/45/3 44/47/3
f 51/57/3 48/52/3 43/45/3
f 51/57/3 50/58/3 48/52/3
f 52/59/3 50/58/3 51/57/3
f 53/60/3 54/61/3 55/62/3
f 56/63/3 54/61/3 53/60/3
f 57/64/3 58/65/3 56/63/3
f 59/66/3 58/65/3 57/64/3
f 60/67/4 61/68/4 62/69/4
f 62/69/4 61/68/4 63/70/4
f 64/71/4 65/72/4 66/73/4
f 66/73/4 65/72/4 67/74/4
f 67/74/4 68/75/4 69/76/4
f 69/76/4 68/75/4 70/77/4
f 69/78/4 70/79/4 71/80/4
f 71/80/4 70/79/4 72/81/4
f 73/82/4 71/80/4 74/83/4
f 74/83/4 71/80/4 75/84/4
f 76/85/4 77/86/4 78/87/4
f 77/88/4 79/89/4 78/90/4
f 78/90/4 79/89/4 80/91/4
f 78/87/4 80/92/4 81/93/4
f 80/91/4 82/94/4 81/95/4
f 81/95/4 82/94/4 83/96/4
f 78/87/4 81/93/4 84/97/4
f 81/93/4 83/98/4 84/97/4
f 84/97/4 83/98/4 85/99/4
f 76/85/4 78/87/4 86/100/4
f 78/87/4 84/97/4 86/100/4
f 86/100/4 84/97/4 87/101/4
f 88/102/5 89/103/5 90/104/5
f 91/105/5 89/103/5 88/102/5
f 92/106/6 93/107/6 94/108/6
f 94/108/6 93/107/6 95/109/6
f 96/110/6 97/111/6 98/112/6
f 98/112/6 97/111/6 99/113/6
f 100/114/6 101/115/6 102/116/6
f 102/116/6 101/115/6 103/117/6
f 104/118/6 105/119/6 106/120/6
f 106/120/6 105/119/6 107/121/6
f 108/122/6 106/120/6 109/123/6
f 109/123/6 106/120/6 110/124/6
f 111/125/6 112/126/6 113/127/6
f 113/127/6 112/126/6 114/128/6
f 110/124/6 115/129/6 116/130/6
f 115/131/6 113/127/6 117/132/6
f 116/130/6 115/129/6 117/133/6
f 117/132/6 113/127/6 118/134/6
f 119/135/6 120/136/6 121/137/6
f 120/138/6 122/139/6 123/140/6
f 121/137/6 120/136/6 123/141/6
f 121/142/6 123/140/6 124/143/6
f 123/140/6 122/139/6 124/143/6
f 124/143/6 122/139/6 125/144/6
f 126/145/6 121/137/6 127/146/6
f 121/142/6 124/143/6 128/147/6
f 127/146/6 121/137/6 128/148/6
f 128/147/6 124/143/6 129/149/6
