# Blender v2.78 (sub 0) OBJ File: ''
# www.blender.org
mtllib PFlowerBush.mtl
o PFlowerBush
v -1.938462 1.241787 2.500000
v -1.938462 0.241788 -1.500000
v -1.938462 0.241787 2.500000
v -1.938462 1.241787 0.500000
v -1.938462 1.241788 -0.500000
v -1.938462 1.241788 -1.500000
v -1.938462 2.241787 2.500000
v -1.938462 2.241787 0.500000
v -1.938462 2.241788 -0.500000
v -1.938462 2.241788 -1.500000
v -0.938462 3.241787 2.500000
v -0.938462 2.241787 1.500000
v -0.938462 2.241787 2.500000
v -0.938462 3.241787 1.500000
v -0.938462 2.241788 -1.500000
v -0.938462 2.241788 -0.500000
v -0.938462 2.241787 0.500000
v -0.938462 3.241787 0.500000
v -0.938462 3.241788 -0.500000
v -0.938462 3.241788 -1.500000
v -0.938462 4.241787 1.500000
v -0.938462 4.241787 0.500000
v -0.938462 4.241788 -0.500000
v -0.938462 4.241788 -1.500000
v 0.061538 1.241788 -1.500000
v 0.061538 0.241788 -2.500000
v 0.061538 0.241788 -1.500000
v 0.061538 2.241788 -1.500000
v 0.061538 3.241788 -1.500000
v 0.061538 4.241788 -1.500000
v 0.061538 4.241788 -2.500000
v 0.061538 5.241787 -0.500000
v 0.061538 4.241788 -0.500000
v 0.061538 5.241788 -1.500000
v 0.061538 5.241788 -2.500000
v 2.061538 0.241787 2.500000
v 2.061538 0.241788 -2.500000
v 2.061538 2.241787 2.500000
v 2.061538 2.241787 1.500000
v 2.061538 3.241787 2.500000
v 2.061538 3.241787 1.500000
v 2.061538 3.241788 -0.500000
v 2.061538 4.241787 1.500000
v 2.061538 4.241788 -0.500000
v 2.061538 4.241788 -2.500000
v 2.061538 5.241787 -0.500000
v 2.061538 5.241788 -2.500000
v -0.938462 1.241787 2.500000
v -1.938462 1.241787 2.500000
v -1.938462 0.241787 2.500000
v -1.938462 2.241787 2.500000
v -0.938462 2.241787 2.500000
v 0.061538 2.241787 2.500000
v -0.938462 3.241787 2.500000
v 0.061538 3.241787 2.500000
v 2.061538 0.241787 2.500000
v 2.061538 2.241787 2.500000
v 2.061538 3.241787 2.500000
v 0.061538 3.241787 1.500000
v -0.938462 4.241787 1.500000
v -0.938462 3.241787 1.500000
v 0.061538 4.241787 1.500000
v 1.061538 3.241787 1.500000
v 1.061538 4.241787 1.500000
v 2.061538 3.241787 1.500000
v 2.061538 4.241787 1.500000
v 2.061538 4.241788 -0.500000
v 0.061538 5.241787 -0.500000
v 0.061538 4.241788 -0.500000
v 2.061538 5.241787 -0.500000
v -1.938462 1.241788 -1.500000
v -1.938462 2.241788 -1.500000
v -0.938462 2.241788 -1.500000
v -1.938462 0.241788 -1.500000
v 0.061538 0.241788 -1.500000
v 0.061538 1.241788 -1.500000
v -0.938462 3.241788 -1.500000
v 0.061538 2.241788 -1.500000
v -0.938462 4.241788 -1.500000
v 0.061538 3.241788 -1.500000
v 0.061538 4.241788 -1.500000
v 0.061538 0.241788 -2.500000
v 0.061538 4.241788 -2.500000
v 1.061538 4.241788 -2.500000
v 0.061538 5.241788 -2.500000
v 1.061538 5.241788 -2.500000
v 2.061538 0.241788 -2.500000
v 2.061538 4.241788 -2.500000
v 2.061538 5.241788 -2.500000
v -1.938462 0.241788 -1.500000
v 2.061538 0.241787 2.500000
v -1.938462 0.241787 2.500000
v 0.061538 0.241788 -1.500000
v 0.061538 0.241788 -2.500000
v 2.061538 0.241788 -2.500000
v -1.938462 2.241787 2.500000
v -0.938462 2.241787 2.500000
v -0.938462 2.241787 1.500000
v -1.938462 2.241787 0.500000
v -0.938462 2.241787 0.500000
v -1.938462 2.241788 -0.500000
v -0.938462 2.241788 -0.500000
v -1.938462 2.241788 -1.500000
v -0.938462 2.241788 -1.500000
v -0.938462 3.241787 2.500000
v 0.061538 3.241787 2.500000
v -0.938462 3.241787 1.500000
v 2.061538 3.241787 2.500000
v 0.061538 3.241787 1.500000
v 1.061538 3.241787 1.500000
v 2.061538 3.241787 1.500000
v -0.938462 4.241787 1.500000
v 0.061538 4.241787 1.500000
v -0.938462 4.241787 0.500000
v 1.061538 4.241787 1.500000
v 0.061538 4.241787 0.500000
v 2.061538 4.241787 1.500000
v 1.061538 4.241787 0.500000
v -0.938462 4.241788 -0.500000
v 0.061538 4.241788 -0.500000
v 2.061538 4.241788 -0.500000
v -0.938462 4.241788 -1.500000
v 0.061538 4.241788 -1.500000
v 0.061538 5.241787 -0.500000
v 2.061538 5.241787 -0.500000
v 0.061538 5.241788 -1.500000
v 1.061538 5.241788 -1.500000
v 0.061538 5.241788 -2.500000
v 1.061538 5.241788 -2.500000
v 2.061538 5.241788 -2.500000
vt 0.5879 0.5000
vt 0.5879 0.5000
vt 0.5879 0.5000
vt 0.5879 0.5000
vt 0.5879 0.5000
vt 0.5879 0.5000
vt 0.7676 0.5000
vt 0.7676 0.5000
vt 0.7676 0.5000
vt 0.0488 0.5000
vt 0.0488 0.5000
vt 0.0488 0.5000
vt 0.7676 0.5000
vt 0.7676 0.5000
vt 0.7676 0.5000
vt 0.7676 0.5000
vt 0.0488 0.5000
vt 0.7676 0.5000
vt 0.0488 0.5000
vt 0.0488 0.5000
vt 0.0488 0.5000
vt 0.5879 0.5000
vt 0.5879 0.5000
vt 0.5879 0.5000
vt 0.0488 0.5000
vt 0.5879 0.5000
vt 0.5879 0.5000
vt 0.5879 0.5000
vt 0.5879 0.5000
vt 0.5879 0.5000
vt 0.7676 0.5000
vt 0.7676 0.5000
vt 0.7676 0.5000
vt 0.0488 0.5000
vt 0.0488 0.5000
vt 0.0488 0.5000
vt 0.7676 0.5000
vt 0.7676 0.5000
vt 0.7676 0.5000
vt 0.7676 0.5000
vt 0.0488 0.5000
vt 0.7676 0.5000
vt 0.5879 0.5000
vt 0.5879 0.5000
vt 0.5879 0.5000
vt 0.5879 0.5000
vt 0.5879 0.5000
vt 0.5879 0.5000
vt 0.5879 0.5000
vt 0.7676 0.5000
vt 0.7676 0.5000
vt 0.7676 0.5000
vt 0.0488 0.5000
vt 0.0488 0.5000
vt 0.0488 0.5000
vt 0.7676 0.5000
vt 0.0488 0.5000
vt 0.5879 0.5000
vt 0.5879 0.5000
vt 0.5879 0.5000
vt 0.5879 0.5000
vt 0.7676 0.5000
vt 0.7676 0.5000
vt 0.7676 0.5000
vt 0.5879 0.5000
vt 0.7676 0.5000
vt 0.5879 0.5000
vt 0.7676 0.5000
vt 0.7676 0.5000
vt 0.5879 0.5000
vt 0.7676 0.5000
vt 0.5879 0.5000
vt 0.7676 0.5000
vt 0.7676 0.5000
vt 0.7676 0.5000
vt 0.5879 0.5000
vt 0.5879 0.5000
vt 0.5879 0.5000
vt 0.7676 0.5000
vt 0.7676 0.5000
vt 0.7676 0.5000
vt 0.7676 0.5000
vt 0.5879 0.5000
vt 0.5879 0.5000
vt 0.0488 0.5000
vt 0.0488 0.5000
vt 0.0488 0.5000
vt 0.0488 0.5000
vt 0.5879 0.5000
vt 0.7676 0.5000
vt 0.7676 0.5000
vt 0.7676 0.5000
vt 0.5879 0.5000
vt 0.7676 0.5000
vt 0.7676 0.5000
vt 0.7676 0.5000
vt 0.7676 0.5000
vt 0.7676 0.5000
vt 0.0488 0.5000
vt 0.0488 0.5000
vt 0.0488 0.5000
vt 0.0488 0.5000
vt 0.7676 0.5000
vt 0.7676 0.5000
vt 0.7676 0.5000
vt 0.7676 0.5000
vt 0.7676 0.5000
vt 0.7676 0.5000
vt 0.7676 0.5000
vt 0.7676 0.5000
vt 0.7676 0.5000
vt 0.7676 0.5000
vt 0.7676 0.5000
vt 0.5879 0.5000
vt 0.5879 0.5000
vt 0.5879 0.5000
vt 0.7676 0.5000
vt 0.5879 0.5000
vt 0.5879 0.5000
vt 0.5879 0.5000
vt 0.5879 0.5000
vt 0.7676 0.5000
vt 0.7676 0.5000
vt 0.7676 0.5000
vt 0.7676 0.5000
vt 0.5879 0.5000
vt 0.7676 0.5000
vt 0.5879 0.5000
vt 0.5879 0.5000
vt 0.5879 0.5000
vt 0.0488 0.5000
vt 0.0488 0.5000
vt 0.0488 0.5000
vt 0.0488 0.5000
vt 0.5879 0.5000
vt 0.7676 0.5000
vt 0.7676 0.5000
vt 0.7676 0.5000
vt 0.5879 0.5000
vt 0.7676 0.5000
vt 0.5879 0.5000
vt 0.5879 0.5000
vt 0.5879 0.5000
vt 0.5879 0.5000
vt 0.5879 0.5000
vt 0.5879 0.5000
vt 0.7676 0.5000
vt 0.7676 0.5000
vt 0.7676 0.5000
vt 0.7676 0.5000
vt 0.7676 0.5000
vt 0.0488 0.5000
vt 0.0488 0.5000
vt 0.0488 0.5000
vt 0.0488 0.5000
vt 0.7676 0.5000
vt 0.7676 0.5000
vt 0.7676 0.5000
vt 0.7676 0.5000
vt 0.0488 0.5000
vt 0.0488 0.5000
vt 0.0488 0.5000
vt 0.7676 0.5000
vt 0.7676 0.5000
vt 0.7676 0.5000
vt 0.0488 0.5000
vt 0.7676 0.5000
vt 0.7676 0.5000
vt 0.7676 0.5000
vt 0.7676 0.5000
vt 0.7676 0.5000
vt 0.0488 0.5000
vt 0.0488 0.5000
vt 0.0488 0.5000
vt 0.7676 0.5000
vt 0.7676 0.5000
vt 0.7676 0.5000
vt 0.7676 0.5000
vt 0.0488 0.5000
vt 0.0488 0.5000
vt 0.0488 0.5000
vt 0.7676 0.5000
vt 0.0488 0.5000
vt 0.7676 0.5000
vt 0.7676 0.5000
vt 0.7676 0.5000
vt 0.7676 0.5000
vt 0.7676 0.5000
vt 0.7676 0.5000
vt 0.7676 0.5000
vt 0.7676 0.5000
vt 0.0488 0.5000
vt 0.0488 0.5000
vt 0.0488 0.5000
vt 0.7676 0.5000
vt 0.0488 0.5000
vt 0.7676 0.5000
vn -1.0000 0.0000 0.0000
vn 1.0000 0.0000 0.0000
vn 0.0000 -0.0000 1.0000
vn 0.0000 0.0000 -1.0000
vn 0.0000 -1.0000 -0.0000
vn 0.0000 1.0000 0.0000
usemtl palette.008
s 1
f 1/1/1 2/2/1 3/3/1
f 4/4/1 2/2/1 1/1/1
f 5/5/1 2/2/1 4/4/1
f 6/6/1 2/2/1 5/5/1
f 7/7/1 4/8/1 1/9/1
f 8/10/1 5/11/1 4/12/1
f 8/13/1 4/8/1 7/7/1
f 9/14/1 6/15/1 5/16/1
f 9/17/1 5/11/1 8/10/1
f 10/18/1 6/15/1 9/14/1
f 11/19/1 12/20/1 13/21/1
f 14/22/1 15/23/1 16/24/1
f 14/25/1 12/20/1 11/19/1
f 14/22/1 17/26/1 12/27/1
f 14/22/1 16/24/1 17/26/1
f 18/28/1 15/23/1 14/22/1
f 19/29/1 15/23/1 18/28/1
f 20/30/1 15/23/1 19/29/1
f 21/31/1 18/32/1 14/33/1
f 22/34/1 19/35/1 18/36/1
f 22/37/1 18/32/1 21/31/1
f 23/38/1 20/39/1 19/40/1
f 23/41/1 19/35/1 22/34/1
f 24/42/1 20/39/1 23/38/1
f 25/43/1 26/44/1 27/45/1
f 28/46/1 26/44/1 25/43/1
f 29/47/1 26/44/1 28/46/1
f 30/48/1 26/44/1 29/47/1
f 31/49/1 26/44/1 30/48/1
f 32/50/1 30/51/1 33/52/1
f 34/53/1 31/54/1 30/55/1
f 34/56/1 30/51/1 32/50/1
f 35/57/1 31/54/1 34/53/1
f 36/58/2 37/59/2 38/60/2
f 38/60/2 37/59/2 39/61/2
f 38/62/2 39/63/2 40/64/2
f 39/61/2 37/59/2 41/65/2
f 40/64/2 39/63/2 41/66/2
f 41/65/2 37/59/2 42/67/2
f 41/66/2 42/68/2 43/69/2
f 42/67/2 37/59/2 44/70/2
f 43/69/2 42/68/2 44/71/2
f 44/70/2 37/59/2 45/72/2
f 44/71/2 45/73/2 46/74/2
f 46/74/2 45/73/2 47/75/2
f 48/76/3 49/77/3 50/78/3
f 48/79/3 51/80/3 49/81/3
f 52/82/3 51/80/3 48/79/3
f 53/83/3 52/84/3 48/76/3
f 53/85/3 54/86/3 52/87/3
f 55/88/3 54/86/3 53/85/3
f 56/89/3 48/76/3 50/78/3
f 56/89/3 53/83/3 48/76/3
f 57/90/3 55/91/3 53/92/3
f 57/93/3 53/83/3 56/89/3
f 58/94/3 55/91/3 57/90/3
f 59/95/3 60/96/3 61/97/3
f 62/98/3 60/96/3 59/95/3
f 63/99/3 62/100/3 59/101/3
f 64/102/3 62/100/3 63/99/3
f 65/103/3 64/104/3 63/105/3
f 66/106/3 64/104/3 65/103/3
f 67/107/3 68/108/3 69/109/3
f 70/110/3 68/108/3 67/107/3
f 71/111/4 72/112/4 73/113/4
f 74/114/4 71/115/4 75/116/4
f 71/111/4 73/113/4 76/117/4
f 75/116/4 71/115/4 76/118/4
f 73/119/4 77/120/4 78/121/4
f 76/117/4 73/113/4 78/122/4
f 77/123/4 79/124/4 80/125/4
f 78/121/4 77/120/4 80/126/4
f 80/125/4 79/124/4 81/127/4
f 82/128/4 83/129/4 84/130/4
f 83/131/4 85/132/4 84/133/4
f 84/133/4 85/132/4 86/134/4
f 82/128/4 84/130/4 87/135/4
f 84/136/4 86/137/4 88/138/4
f 87/135/4 84/130/4 88/139/4
f 88/138/4 86/137/4 89/140/4
f 90/141/5 91/142/5 92/143/5
f 93/144/5 91/142/5 90/141/5
f 94/145/5 91/142/5 93/144/5
f 95/146/5 91/142/5 94/145/5
f 96/147/6 97/148/6 98/149/6
f 96/147/6 98/149/6 99/150/6
f 99/150/6 98/149/6 100/151/6
f 99/152/6 100/153/6 101/154/6
f 101/154/6 100/153/6 102/155/6
f 101/156/6 102/157/6 103/158/6
f 103/158/6 102/157/6 104/159/6
f 105/160/6 106/161/6 107/162/6
f 106/163/6 108/164/6 109/165/6
f 107/162/6 106/161/6 109/166/6
f 109/165/6 108/164/6 110/167/6
f 110/167/6 108/164/6 111/168/6
f 112/169/6 113/170/6 114/171/6
f 113/172/6 115/173/6 116/174/6
f 114/171/6 113/170/6 116/175/6
f 115/176/6 117/177/6 118/178/6
f 116/174/6 115/173/6 118/179/6
f 114/180/6 116/174/6 119/181/6
f 116/175/6 118/178/6 120/182/6
f 119/181/6 116/174/6 120/183/6
f 118/178/6 117/177/6 121/184/6
f 120/182/6 118/178/6 121/184/6
f 119/185/6 120/182/6 122/186/6
f 122/186/6 120/182/6 123/187/6
f 124/188/6 125/189/6 126/190/6
f 126/190/6 125/189/6 127/191/6
f 126/192/6 127/193/6 128/194/6
f 127/191/6 125/189/6 129/195/6
f 128/194/6 127/193/6 129/196/6
f 129/195/6 125/189/6 130/197/6
