# Blender v2.78 (sub 0) OBJ File: ''
# www.blender.org
mtllib Colored Road Tile.mtl
o Colored_Road_Tile.001
v -63.000000 1.999998 4.133228
v -63.000000 -0.000000 -3.866773
v -63.000000 -0.000001 4.133227
v -63.000000 1.999999 3.133228
v -63.000000 2.000000 -2.866772
v -63.000000 2.000000 -3.866772
v -63.000000 3.999998 4.133228
v -63.000000 3.999999 3.133228
v -63.000000 4.000000 -2.866772
v -63.000000 4.000000 -3.866772
v -63.000000 5.999999 4.133229
v -63.000000 5.999999 3.133229
v -63.000000 6.000000 -2.866771
v -63.000000 6.000000 -3.866771
v -63.000000 7.999998 4.133229
v -63.000000 7.999999 3.133229
v -63.000000 8.000000 -2.866771
v -63.000000 8.000000 -3.866771
v 63.000000 -0.000001 4.133227
v 63.000000 -0.000000 -3.866773
v 63.000000 1.999998 4.133228
v 63.000000 1.999999 3.133228
v 63.000000 2.000000 -2.866772
v 63.000000 2.000000 -3.866772
v 63.000000 3.999998 4.133228
v 63.000000 3.999999 3.133228
v 63.000000 4.000000 -2.866772
v 63.000000 4.000000 -3.866772
v 63.000000 5.999999 4.133229
v 63.000000 5.999999 3.133229
v 63.000000 6.000000 -2.866771
v 63.000000 6.000000 -3.866771
v 63.000000 7.999998 4.133229
v 63.000000 7.999999 3.133229
v 63.000000 8.000000 -2.866771
v 63.000000 8.000000 -3.866771
v 63.000000 -0.000001 4.133227
v -63.000000 1.999998 4.133228
v -63.000000 -0.000001 4.133227
v 63.000000 1.999998 4.133228
v -63.000000 3.999998 4.133228
v 63.000000 3.999998 4.133228
v -63.000000 5.999999 4.133229
v 63.000000 5.999999 4.133229
v -63.000000 7.999998 4.133229
v 63.000000 7.999998 4.133229
v -63.000000 -0.000000 -3.866773
v -63.000000 2.000000 -3.866772
v 63.000000 -0.000000 -3.866773
v -63.000000 4.000000 -3.866772
v 63.000000 2.000000 -3.866772
v -63.000000 6.000000 -3.866771
v 63.000000 4.000000 -3.866772
v -63.000000 8.000000 -3.866771
v 63.000000 6.000000 -3.866771
v 63.000000 8.000000 -3.866771
v -63.000000 -0.000000 -3.866773
v 63.000000 -0.000001 4.133227
v -63.000000 -0.000001 4.133227
v 63.000000 -0.000000 -3.866773
v -63.000000 7.999998 4.133229
v 63.000000 7.999998 4.133229
v -63.000000 7.999999 3.133229
v 63.000000 7.999999 3.133229
v -63.000000 8.000000 -2.866771
v 63.000000 8.000000 -2.866771
v -63.000000 8.000000 -3.866771
v 63.000000 8.000000 -3.866771
vt 0.5371 0.5000
vt 0.5371 0.5000
vt 0.5371 0.5000
vt 0.5371 0.5000
vt 0.5371 0.5000
vt 0.5371 0.5000
vt 0.5918 0.5000
vt 0.5918 0.5000
vt 0.5918 0.5000
vt 0.5371 0.5000
vt 0.5918 0.5000
vt 0.5918 0.5000
vt 0.5918 0.5000
vt 0.5918 0.5000
vt 0.5371 0.5000
vt 0.5918 0.5000
vt 0.4277 0.5000
vt 0.4277 0.5000
vt 0.4277 0.5000
vt 0.5371 0.5000
vt 0.4277 0.5000
vt 0.4277 0.5000
vt 0.4277 0.5000
vt 0.4277 0.5000
vt 0.5371 0.5000
vt 0.4277 0.5000
vt 0.5098 0.5000
vt 0.5098 0.5000
vt 0.5098 0.5000
vt 0.5371 0.5000
vt 0.5098 0.5000
vt 0.5098 0.5000
vt 0.5098 0.5000
vt 0.5098 0.5000
vt 0.5371 0.5000
vt 0.5098 0.5000
vt 0.5371 0.5000
vt 0.5371 0.5000
vt 0.5371 0.5000
vt 0.5371 0.5000
vt 0.5371 0.5000
vt 0.5371 0.5000
vt 0.5918 0.5000
vt 0.5918 0.5000
vt 0.5918 0.5000
vt 0.5371 0.5000
vt 0.5918 0.5000
vt 0.5918 0.5000
vt 0.5918 0.5000
vt 0.5918 0.5000
vt 0.5371 0.5000
vt 0.5918 0.5000
vt 0.4277 0.5000
vt 0.4277 0.5000
vt 0.4277 0.5000
vt 0.5371 0.5000
vt 0.4277 0.5000
vt 0.4277 0.5000
vt 0.4277 0.5000
vt 0.4277 0.5000
vt 0.5371 0.5000
vt 0.4277 0.5000
vt 0.5098 0.5000
vt 0.5098 0.5000
vt 0.5098 0.5000
vt 0.5371 0.5000
vt 0.5098 0.5000
vt 0.5098 0.5000
vt 0.5098 0.5000
vt 0.5098 0.5000
vt 0.5371 0.5000
vt 0.5098 0.5000
vt 0.5371 0.5000
vt 0.5371 0.5000
vt 0.5371 0.5000
vt 0.5918 0.5000
vt 0.5918 0.5000
vt 0.5918 0.5000
vt 0.5371 0.5000
vt 0.4277 0.5000
vt 0.4277 0.5000
vt 0.4277 0.5000
vt 0.5918 0.5000
vt 0.5098 0.5000
vt 0.5098 0.5000
vt 0.5098 0.5000
vt 0.4277 0.5000
vt 0.5098 0.5000
vt 0.5371 0.5000
vt 0.5371 0.5000
vt 0.5371 0.5000
vt 0.5918 0.5000
vt 0.5918 0.5000
vt 0.5918 0.5000
vt 0.5371 0.5000
vt 0.4277 0.5000
vt 0.4277 0.5000
vt 0.4277 0.5000
vt 0.5918 0.5000
vt 0.5098 0.5000
vt 0.5098 0.5000
vt 0.5098 0.5000
vt 0.4277 0.5000
vt 0.5098 0.5000
vt 0.5371 0.5000
vt 0.5371 0.5000
vt 0.5371 0.5000
vt 0.5371 0.5000
vt 0.5098 0.5000
vt 0.5098 0.5000
vt 0.5098 0.5000
vt 0.5098 0.5000
vt 0.5371 0.5000
vt 0.5371 0.5000
vt 0.5371 0.5000
vt 0.5371 0.5000
vt 0.5098 0.5000
vt 0.5098 0.5000
vt 0.5098 0.5000
vt 0.5098 0.5000
vn -1.0000 -0.0000 0.0000
vn 1.0000 0.0000 0.0000
vn 0.0000 -0.0000 1.0000
vn 0.0000 0.0000 -1.0000
vn 0.0000 -1.0000 -0.0000
vn 0.0000 1.0000 0.0000
usemtl palette.003
s 1
f 1/1/1 2/2/1 3/3/1
f 4/4/1 2/2/1 1/1/1
f 5/5/1 2/2/1 4/4/1
f 6/6/1 2/2/1 5/5/1
f 7/7/1 4/8/1 1/9/1
f 8/10/1 5/5/1 4/4/1
f 8/11/1 4/8/1 7/7/1
f 9/12/1 6/13/1 5/14/1
f 9/15/1 5/5/1 8/10/1
f 10/16/1 6/13/1 9/12/1
f 11/17/1 8/18/1 7/19/1
f 12/20/1 9/15/1 8/10/1
f 12/21/1 8/18/1 11/17/1
f 13/22/1 10/23/1 9/24/1
f 13/25/1 9/15/1 12/20/1
f 14/26/1 10/23/1 13/22/1
f 15/27/1 12/28/1 11/29/1
f 16/30/1 13/25/1 12/20/1
f 16/31/1 12/28/1 15/27/1
f 17/32/1 14/33/1 13/34/1
f 17/35/1 13/25/1 16/30/1
f 18/36/1 14/33/1 17/32/1
f 19/37/2 20/38/2 21/39/2
f 21/39/2 20/38/2 22/40/2
f 22/40/2 20/38/2 23/41/2
f 23/41/2 20/38/2 24/42/2
f 21/43/2 22/44/2 25/45/2
f 22/40/2 23/41/2 26/46/2
f 25/45/2 22/44/2 26/47/2
f 23/48/2 24/49/2 27/50/2
f 26/46/2 23/41/2 27/51/2
f 27/50/2 24/49/2 28/52/2
f 25/53/2 26/54/2 29/55/2
f 26/46/2 27/51/2 30/56/2
f 29/55/2 26/54/2 30/57/2
f 27/58/2 28/59/2 31/60/2
f 30/56/2 27/51/2 31/61/2
f 31/60/2 28/59/2 32/62/2
f 29/63/2 30/64/2 33/65/2
f 30/56/2 31/61/2 34/66/2
f 33/65/2 30/64/2 34/67/2
f 31/68/2 32/69/2 35/70/2
f 34/66/2 31/61/2 35/71/2
f 35/70/2 32/69/2 36/72/2
f 37/73/3 38/74/3 39/75/3
f 40/76/3 41/77/3 38/78/3
f 40/79/3 38/74/3 37/73/3
f 42/80/3 43/81/3 41/82/3
f 42/83/3 41/77/3 40/76/3
f 44/84/3 45/85/3 43/86/3
f 44/87/3 43/81/3 42/80/3
f 46/88/3 45/85/3 44/84/3
f 47/89/4 48/90/4 49/91/4
f 48/92/4 50/93/4 51/94/4
f 49/91/4 48/90/4 51/95/4
f 50/96/4 52/97/4 53/98/4
f 51/94/4 50/93/4 53/99/4
f 52/100/4 54/101/4 55/102/4
f 53/98/4 52/97/4 55/103/4
f 55/102/4 54/101/4 56/104/4
f 57/105/5 58/106/5 59/107/5
f 60/108/5 58/106/5 57/105/5
f 61/109/6 62/110/6 63/111/6
f 63/111/6 62/110/6 64/112/6
f 63/113/6 64/114/6 65/115/6
f 65/115/6 64/114/6 66/116/6
f 65/117/6 66/118/6 67/119/6
f 67/119/6 66/118/6 68/120/6
