# MagicaVoxel @ Ephtracy

# material
mtllib Panicked Man.mtl
usemtl palette

# normals
vn -1 0 0
vn 1 0 0
vn 0 0 1
vn 0 0 -1
vn 0 -1 0
vn 0 1 0

# texcoords
vt 0.00195313 0.5
vt 0.0605469 0.5
vt 0.0917969 0.5
vt 0.255859 0.5
vt 0.341797 0.5
vt 0.701172 0.5
vt 0.845703 0.5

# verts
v -5 13 6
v -5 13 4
v -5 13 -1
v -5 15 6
v -5 15 4
v -5 15 -1
v -3 0 3
v -3 0 -0
v -3 1 3
v -3 1 2
v -3 5 2
v -3 5 -0
v -3 7 2
v -3 7 -0
v -3 7 -1
v -3 13 2
v -3 13 -1
v -3 16 2
v -3 16 -0
v -3 16 -1
v -3 19 1
v -3 19 -0
v -3 20 2
v -3 20 1
v -3 21 2
v -3 21 -1
v -2 15 1
v -2 15 -0
v -2 16 1
v -2 16 -0
v -1 8 1
v -1 8 -0
v -1 9 1
v -1 9 -0
v -1 19 2
v -1 19 1
v -1 20 2
v -1 20 1
v 0 0 3
v 0 0 -0
v 0 1 3
v 0 1 2
v 0 5 2
v 0 5 -0
v 0 7 2
v 0 7 -0
v 0 10 1
v 0 10 -0
v 0 11 1
v 0 13 1
v 0 13 -0
v 0 17 1
v 0 17 -0
v 0 18 1
v 0 18 -0
v 1 8 1
v 1 8 -0
v 1 10 1
v 1 10 -0
v 1 13 1
v 1 13 -0
v 1 14 1
v 1 14 -0
v 1 17 2
v 1 17 1
v 1 18 2
v 1 18 1
v 1 19 2
v 1 19 1
v 1 20 2
v 1 20 1
v -3 13 6
v -3 13 4
v -3 13 2
v -3 15 6
v -3 15 4
v -3 15 2
v -2 8 1
v -2 8 -0
v -2 9 1
v -2 9 -0
v -2 13 1
v -2 13 -0
v -2 14 1
v -2 14 -0
v -2 17 2
v -2 17 1
v -2 18 2
v -2 18 1
v -2 19 2
v -2 19 1
v -2 20 2
v -2 20 1
v -1 0 3
v -1 0 -0
v -1 1 3
v -1 1 2
v -1 5 2
v -1 5 -0
v -1 7 2
v -1 7 -0
v -1 9 1
v -1 9 -0
v -1 11 1
v -1 13 1
v -1 13 -0
v -1 17 1
v -1 17 -0
v -1 18 1
v -1 18 -0
v 0 8 1
v 0 8 -0
v 0 9 1
v 0 9 -0
v 0 19 2
v 0 19 1
v 0 20 2
v 0 20 1
v 1 15 1
v 1 15 -0
v 1 16 1
v 1 16 -0
v 2 0 3
v 2 0 -0
v 2 1 3
v 2 1 2
v 2 5 2
v 2 5 -0
v 2 7 2
v 2 7 -0
v 2 7 -1
v 2 8 1
v 2 8 -1
v 2 10 1
v 2 15 2
v 2 15 1
v 2 16 2
v 2 16 -0
v 2 16 -1
v 2 19 1
v 2 19 -0
v 2 20 2
v 2 20 1
v 2 21 2
v 2 21 -1
v 4 8 1
v 4 8 -1
v 4 10 1
v 4 10 -1
v 4 15 1
v 4 15 -1
v -5 13 6
v -5 15 6
v -3 13 6
v -3 15 6
v -3 0 3
v -3 1 3
v -1 0 3
v -1 1 3
v 0 0 3
v 0 1 3
v 2 0 3
v 2 1 3
v -3 1 2
v -3 5 2
v -3 7 2
v -3 13 2
v -3 15 2
v -3 16 2
v -3 20 2
v -3 21 2
v -2 12 2
v -2 15 2
v -2 17 2
v -2 18 2
v -2 19 2
v -2 20 2
v -1 1 2
v -1 5 2
v -1 7 2
v -1 11 2
v -1 12 2
v -1 19 2
v -1 20 2
v 0 1 2
v 0 5 2
v 0 7 2
v 0 11 2
v 0 12 2
v 0 19 2
v 0 20 2
v 1 12 2
v 1 15 2
v 1 17 2
v 1 18 2
v 1 19 2
v 1 20 2
v 2 1 2
v 2 5 2
v 2 7 2
v 2 15 2
v 2 16 2
v 2 20 2
v 2 21 2
v -2 15 1
v -2 16 1
v -2 17 1
v -2 18 1
v -2 19 1
v -2 20 1
v -1 17 1
v -1 18 1
v -1 19 1
v -1 20 1
v 0 17 1
v 0 18 1
v 0 19 1
v 0 20 1
v 1 15 1
v 1 16 1
v 1 17 1
v 1 18 1
v 1 19 1
v 1 20 1
v 2 8 1
v 2 10 1
v 2 15 1
v 4 8 1
v 4 10 1
v 4 15 1
v -2 8 -0
v -2 9 -0
v -2 13 -0
v -2 14 -0
v -1 8 -0
v -1 9 -0
v -1 13 -0
v -1 14 -0
v -1 17 -0
v -1 18 -0
v 0 8 -0
v 0 9 -0
v 0 10 -0
v 0 13 -0
v 0 14 -0
v 0 17 -0
v 0 18 -0
v 1 8 -0
v 1 10 -0
v 1 13 -0
v 1 14 -0
v -2 8 1
v -2 9 1
v -2 13 1
v -2 14 1
v -1 8 1
v -1 9 1
v -1 11 1
v -1 13 1
v -1 14 1
v 0 8 1
v 0 9 1
v 0 10 1
v 0 11 1
v 0 13 1
v 0 14 1
v 1 8 1
v 1 10 1
v 1 13 1
v 1 14 1
v -3 0 -0
v -3 5 -0
v -3 7 -0
v -2 15 -0
v -2 16 -0
v -1 0 -0
v -1 5 -0
v -1 7 -0
v 0 0 -0
v 0 5 -0
v 0 7 -0
v 1 15 -0
v 1 16 -0
v 2 0 -0
v 2 5 -0
v 2 7 -0
v -5 13 -1
v -5 15 -1
v -3 7 -1
v -3 13 -1
v -3 15 -1
v -3 16 -1
v -3 21 -1
v 2 7 -1
v 2 8 -1
v 2 10 -1
v 2 15 -1
v 2 16 -1
v 2 21 -1
v 4 8 -1
v 4 10 -1
v 4 15 -1
v -3 0 3
v -1 0 3
v 0 0 3
v 2 0 3
v -3 0 -0
v -1 0 -0
v 0 0 -0
v 2 0 -0
v -1 7 2
v 0 7 2
v -3 7 -0
v -1 7 -0
v 0 7 -0
v 2 7 -0
v -3 7 -1
v 2 7 -1
v 2 8 1
v 4 8 1
v 2 8 -1
v 4 8 -1
v -2 9 1
v -1 9 1
v -2 9 -0
v -1 9 -0
v 0 10 1
v 1 10 1
v 0 10 -0
v 1 10 -0
v -5 13 6
v -3 13 6
v -5 13 4
v -3 13 4
v -3 13 2
v -5 13 -1
v -3 13 -1
v -2 14 1
v -1 14 1
v 0 14 1
v 1 14 1
v -2 14 -0
v -1 14 -0
v 0 14 -0
v 1 14 -0
v -3 16 2
v 2 16 2
v -2 16 1
v 1 16 1
v -3 16 -0
v -2 16 -0
v 1 16 -0
v 2 16 -0
v -3 16 -1
v 2 16 -1
v -2 18 2
v 1 18 2
v -2 18 1
v -1 18 1
v 0 18 1
v 1 18 1
v -1 18 -0
v 0 18 -0
v -2 20 2
v -1 20 2
v 0 20 2
v 1 20 2
v -2 20 1
v -1 20 1
v 0 20 1
v 1 20 1
v -3 1 3
v -1 1 3
v 0 1 3
v 2 1 3
v -3 1 2
v -1 1 2
v 0 1 2
v 2 1 2
v -2 8 1
v -1 8 1
v 0 8 1
v 1 8 1
v -2 8 -0
v -1 8 -0
v 0 8 -0
v 1 8 -0
v -1 9 1
v 0 9 1
v -1 9 -0
v 0 9 -0
v -2 13 1
v -1 13 1
v 0 13 1
v 1 13 1
v -2 13 -0
v -1 13 -0
v 0 13 -0
v 1 13 -0
v -5 15 6
v -3 15 6
v -5 15 4
v -3 15 4
v -3 15 2
v -2 15 2
v 1 15 2
v 2 15 2
v -2 15 1
v 1 15 1
v 2 15 1
v 4 15 1
v -2 15 -0
v 1 15 -0
v -5 15 -1
v -3 15 -1
v 2 15 -1
v 4 15 -1
v -2 17 2
v 1 17 2
v -2 17 1
v -1 17 1
v 0 17 1
v 1 17 1
v -1 17 -0
v 0 17 -0
v -2 19 2
v -1 19 2
v 0 19 2
v 1 19 2
v -2 19 1
v -1 19 1
v 0 19 1
v 1 19 1
v -3 21 2
v 2 21 2
v -3 21 -1
v 2 21 -1

# faces
f 4/2/1 2/2/1 1/2/1
f 5/1/1 3/1/1 2/1/1
f 5/2/1 2/2/1 4/2/1
f 6/1/1 3/1/1 5/1/1
f 9/6/1 8/6/1 7/6/1
f 10/6/1 8/6/1 9/6/1
f 11/6/1 8/6/1 10/6/1
f 12/6/1 8/6/1 11/6/1
f 13/5/1 12/5/1 11/5/1
f 14/5/1 12/5/1 13/5/1
f 16/4/1 14/4/1 13/4/1
f 16/4/1 15/4/1 14/4/1
f 17/4/1 15/4/1 16/4/1
f 21/2/1 19/2/1 18/2/1
f 22/6/1 20/6/1 19/6/1
f 22/2/1 19/2/1 21/2/1
f 23/2/1 21/2/1 18/2/1
f 24/6/1 22/6/1 21/6/1
f 24/2/1 21/2/1 23/2/1
f 25/6/1 24/6/1 23/6/1
f 26/6/1 20/6/1 22/6/1
f 26/6/1 24/6/1 25/6/1
f 26/6/1 22/6/1 24/6/1
f 29/2/1 28/2/1 27/2/1
f 30/2/1 28/2/1 29/2/1
f 33/2/1 32/2/1 31/2/1
f 34/2/1 32/2/1 33/2/1
f 37/2/1 36/2/1 35/2/1
f 38/2/1 36/2/1 37/2/1
f 41/6/1 40/6/1 39/6/1
f 42/6/1 40/6/1 41/6/1
f 43/6/1 40/6/1 42/6/1
f 44/6/1 40/6/1 43/6/1
f 45/5/1 44/5/1 43/5/1
f 46/5/1 44/5/1 45/5/1
f 49/2/1 48/2/1 47/2/1
f 50/2/1 48/2/1 49/2/1
f 51/2/1 48/2/1 50/2/1
f 54/6/1 53/6/1 52/6/1
f 55/6/1 53/6/1 54/6/1
f 58/4/1 57/4/1 56/4/1
f 59/4/1 57/4/1 58/4/1
f 62/2/1 61/2/1 60/2/1
f 63/2/1 61/2/1 62/2/1
f 66/2/1 65/2/1 64/2/1
f 67/2/1 65/2/1 66/2/1
f 70/2/1 69/2/1 68/2/1
f 71/2/1 69/2/1 70/2/1
f 72/2/2 73/2/2 75/2/2
f 73/1/2 74/1/2 76/1/2
f 75/2/2 73/2/2 76/2/2
f 76/1/2 74/1/2 77/1/2
f 78/4/2 79/4/2 80/4/2
f 80/4/2 79/4/2 81/4/2
f 82/2/2 83/2/2 84/2/2
f 84/2/2 83/2/2 85/2/2
f 86/2/2 87/2/2 88/2/2
f 88/2/2 87/2/2 89/2/2
f 90/2/2 91/2/2 92/2/2
f 92/2/2 91/2/2 93/2/2
f 94/6/2 95/6/2 96/6/2
f 96/6/2 95/6/2 97/6/2
f 97/6/2 95/6/2 98/6/2
f 98/6/2 95/6/2 99/6/2
f 98/5/2 99/5/2 100/5/2
f 100/5/2 99/5/2 101/5/2
f 102/2/2 103/2/2 104/2/2
f 104/2/2 103/2/2 105/2/2
f 105/2/2 103/2/2 106/2/2
f 107/6/2 108/6/2 109/6/2
f 109/6/2 108/6/2 110/6/2
f 111/2/2 112/2/2 113/2/2
f 113/2/2 112/2/2 114/2/2
f 115/2/2 116/2/2 117/2/2
f 117/2/2 116/2/2 118/2/2
f 119/2/2 120/2/2 121/2/2
f 121/2/2 120/2/2 122/2/2
f 123/6/2 124/6/2 125/6/2
f 125/6/2 124/6/2 126/6/2
f 126/6/2 124/6/2 127/6/2
f 127/6/2 124/6/2 128/6/2
f 127/5/2 128/5/2 129/5/2
f 129/5/2 128/5/2 130/5/2
f 129/4/2 130/4/2 132/4/2
f 130/4/2 131/4/2 132/4/2
f 132/4/2 131/4/2 133/4/2
f 129/4/2 132/4/2 134/4/2
f 129/4/2 134/4/2 135/4/2
f 135/4/2 134/4/2 136/4/2
f 137/2/2 138/2/2 140/2/2
f 138/6/2 139/6/2 141/6/2
f 140/2/2 138/2/2 141/2/2
f 137/2/2 140/2/2 142/2/2
f 140/6/2 141/6/2 143/6/2
f 142/2/2 140/2/2 143/2/2
f 142/6/2 143/6/2 144/6/2
f 141/6/2 139/6/2 145/6/2
f 144/6/2 143/6/2 145/6/2
f 143/6/2 141/6/2 145/6/2
f 146/2/2 147/2/2 148/2/2
f 148/2/2 147/2/2 149/2/2
f 148/1/2 149/1/2 150/1/2
f 150/1/2 149/1/2 151/1/2
f 154/2/3 153/2/3 152/2/3
f 155/2/3 153/2/3 154/2/3
f 158/6/3 157/6/3 156/6/3
f 159/6/3 157/6/3 158/6/3
f 162/6/3 161/6/3 160/6/3
f 163/6/3 161/6/3 162/6/3
f 172/4/3 167/4/3 166/4/3
f 172/4/3 168/4/3 167/4/3
f 173/4/3 168/4/3 172/4/3
f 174/2/3 170/2/3 169/2/3
f 175/2/3 170/2/3 174/2/3
f 176/2/3 170/2/3 175/2/3
f 177/6/3 171/6/3 170/6/3
f 177/2/3 170/2/3 176/2/3
f 178/6/3 165/6/3 164/6/3
f 179/5/3 166/5/3 165/5/3
f 179/6/3 165/6/3 178/6/3
f 180/4/3 172/4/3 166/4/3
f 180/5/3 166/5/3 179/5/3
f 181/4/3 172/4/3 180/4/3
f 182/1/3 173/1/3 172/1/3
f 182/4/3 172/4/3 181/4/3
f 183/2/3 176/2/3 175/2/3
f 184/6/3 171/6/3 177/6/3
f 187/4/3 181/4/3 180/4/3
f 188/1/3 182/1/3 181/1/3
f 188/4/3 181/4/3 187/4/3
f 189/1/3 173/1/3 182/1/3
f 189/1/3 182/1/3 188/1/3
f 190/2/3 183/2/3 175/2/3
f 190/2/3 184/2/3 183/2/3
f 191/6/3 171/6/3 184/6/3
f 191/2/3 184/2/3 190/2/3
f 192/1/3 173/1/3 189/1/3
f 192/4/3 188/4/3 187/4/3
f 192/4/3 189/4/3 188/4/3
f 193/1/3 173/1/3 192/1/3
f 194/2/3 174/2/3 169/2/3
f 195/2/3 190/2/3 175/2/3
f 196/2/3 190/2/3 195/2/3
f 197/6/3 171/6/3 191/6/3
f 198/6/3 186/6/3 185/6/3
f 199/5/3 187/5/3 186/5/3
f 199/6/3 186/6/3 198/6/3
f 200/4/3 193/4/3 192/4/3
f 200/5/3 187/5/3 199/5/3
f 200/4/3 192/4/3 187/4/3
f 201/4/3 193/4/3 200/4/3
f 202/2/3 196/2/3 195/2/3
f 202/2/3 197/2/3 196/2/3
f 202/2/3 194/2/3 169/2/3
f 202/2/3 195/2/3 194/2/3
f 203/6/3 171/6/3 197/6/3
f 203/2/3 197/2/3 202/2/3
f 204/6/3 171/6/3 203/6/3
f 211/6/3 208/6/3 207/6/3
f 212/6/3 208/6/3 211/6/3
f 213/3/3 210/3/3 209/3/3
f 214/3/3 210/3/3 213/3/3
f 219/2/3 206/2/3 205/2/3
f 220/2/3 206/2/3 219/2/3
f 221/6/3 216/6/3 215/6/3
f 222/6/3 216/6/3 221/6/3
f 223/3/3 218/3/3 217/3/3
f 224/3/3 218/3/3 223/3/3
f 228/2/3 226/2/3 225/2/3
f 229/1/3 227/1/3 226/1/3
f 229/2/3 226/2/3 228/2/3
f 230/1/3 227/1/3 229/1/3
f 235/4/3 232/4/3 231/4/3
f 236/4/3 232/4/3 235/4/3
f 237/4/3 234/4/3 233/4/3
f 238/4/3 234/4/3 237/4/3
f 242/4/3 237/4/3 236/4/3
f 242/4/3 238/4/3 237/4/3
f 243/4/3 238/4/3 242/4/3
f 244/4/3 238/4/3 243/4/3
f 245/4/3 238/4/3 244/4/3
f 246/6/3 240/6/3 239/6/3
f 247/6/3 240/6/3 246/6/3
f 248/4/3 242/4/3 241/4/3
f 248/4/3 243/4/3 242/4/3
f 249/4/3 243/4/3 248/4/3
f 250/4/3 245/4/3 244/4/3
f 251/4/3 245/4/3 250/4/3
f 252/4/4 253/4/4 256/4/4
f 256/4/4 253/4/4 257/4/4
f 254/1/4 255/1/4 259/1/4
f 259/1/4 255/1/4 260/1/4
f 257/4/4 258/4/4 262/4/4
f 262/4/4 258/4/4 263/4/4
f 259/1/4 260/1/4 264/1/4
f 263/4/4 258/4/4 264/4/4
f 258/1/4 259/1/4 264/1/4
f 264/1/4 260/1/4 265/1/4
f 265/1/4 260/1/4 266/1/4
f 262/4/4 263/4/4 267/4/4
f 261/4/4 262/4/4 267/4/4
f 267/4/4 263/4/4 268/4/4
f 265/1/4 266/1/4 269/1/4
f 269/1/4 266/1/4 270/1/4
f 271/6/4 272/6/4 276/6/4
f 272/5/4 273/5/4 277/5/4
f 276/6/4 272/6/4 277/6/4
f 277/5/4 273/5/4 278/5/4
f 274/2/4 275/2/4 282/2/4
f 282/2/4 275/2/4 283/2/4
f 279/6/4 280/6/4 284/6/4
f 280/5/4 281/5/4 285/5/4
f 284/6/4 280/6/4 285/6/4
f 285/5/4 281/5/4 286/5/4
f 287/1/4 288/1/4 290/1/4
f 290/1/4 288/1/4 291/1/4
f 289/4/4 290/4/4 294/4/4
f 290/4/4 291/4/4 294/4/4
f 294/4/4 291/4/4 295/4/4
f 295/4/4 291/4/4 296/4/4
f 296/4/4 291/4/4 297/4/4
f 292/6/4 293/6/4 298/6/4
f 298/6/4 293/6/4 299/6/4
f 295/2/4 296/2/4 300/2/4
f 296/1/4 297/1/4 301/1/4
f 300/2/4 296/2/4 301/2/4
f 301/1/4 297/1/4 302/1/4
f 307/6/5 304/6/5 303/6/5
f 308/6/5 304/6/5 307/6/5
f 309/6/5 306/6/5 305/6/5
f 310/6/5 306/6/5 309/6/5
f 314/4/5 312/4/5 311/4/5
f 315/4/5 312/4/5 314/4/5
f 317/4/5 314/4/5 313/4/5
f 317/4/5 316/4/5 315/4/5
f 317/4/5 315/4/5 314/4/5
f 318/4/5 316/4/5 317/4/5
f 321/2/5 320/2/5 319/2/5
f 322/2/5 320/2/5 321/2/5
f 325/2/5 324/2/5 323/2/5
f 326/2/5 324/2/5 325/2/5
f 329/2/5 328/2/5 327/2/5
f 330/2/5 328/2/5 329/2/5
f 333/2/5 332/2/5 331/2/5
f 334/2/5 332/2/5 333/2/5
f 335/1/5 334/1/5 333/1/5
f 336/1/5 335/1/5 333/1/5
f 337/1/5 335/1/5 336/1/5
f 342/1/5 339/1/5 338/1/5
f 343/2/5 340/2/5 339/2/5
f 343/1/5 339/1/5 342/1/5
f 344/1/5 341/1/5 340/1/5
f 344/2/5 340/2/5 343/2/5
f 345/1/5 341/1/5 344/1/5
f 348/2/5 347/2/5 346/2/5
f 349/2/5 347/2/5 348/2/5
f 350/2/5 348/2/5 346/2/5
f 351/2/5 348/2/5 350/2/5
f 352/2/5 347/2/5 349/2/5
f 353/2/5 347/2/5 352/2/5
f 354/6/5 351/6/5 350/6/5
f 354/6/5 352/6/5 351/6/5
f 354/6/5 353/6/5 352/6/5
f 355/6/5 353/6/5 354/6/5
f 358/2/5 357/2/5 356/2/5
f 359/2/5 357/2/5 358/2/5
f 360/2/5 357/2/5 359/2/5
f 361/2/5 357/2/5 360/2/5
f 362/2/5 360/2/5 359/2/5
f 363/2/5 360/2/5 362/2/5
f 368/6/5 365/6/5 364/6/5
f 369/6/5 365/6/5 368/6/5
f 370/6/5 367/6/5 366/6/5
f 371/6/5 367/6/5 370/6/5
f 372/6/6 373/6/6 376/6/6
f 376/6/6 373/6/6 377/6/6
f 374/6/6 375/6/6 378/6/6
f 378/6/6 375/6/6 379/6/6
f 380/2/6 381/2/6 384/2/6
f 384/2/6 381/2/6 385/2/6
f 382/2/6 383/2/6 386/2/6
f 386/2/6 383/2/6 387/2/6
f 388/2/6 389/2/6 390/2/6
f 390/2/6 389/2/6 391/2/6
f 392/2/6 393/2/6 396/2/6
f 396/2/6 393/2/6 397/2/6
f 394/2/6 395/2/6 398/2/6
f 398/2/6 395/2/6 399/2/6
f 400/2/6 401/2/6 402/2/6
f 402/2/6 401/2/6 403/2/6
f 402/1/6 403/1/6 404/1/6
f 404/4/6 405/4/6 408/4/6
f 405/1/6 406/1/6 408/1/6
f 406/4/6 407/4/6 409/4/6
f 408/1/6 406/1/6 409/1/6
f 409/4/6 407/4/6 410/4/6
f 404/4/6 408/4/6 412/4/6
f 409/4/6 410/4/6 413/4/6
f 402/1/6 404/1/6 414/1/6
f 412/4/6 413/4/6 415/4/6
f 414/1/6 404/1/6 415/1/6
f 404/4/6 412/4/6 415/4/6
f 410/1/6 411/1/6 416/1/6
f 415/4/6 413/4/6 416/4/6
f 413/4/6 410/4/6 416/4/6
f 416/1/6 411/1/6 417/1/6
f 418/2/6 419/2/6 420/2/6
f 420/2/6 419/2/6 421/2/6
f 421/2/6 419/2/6 422/2/6
f 422/2/6 419/2/6 423/2/6
f 421/7/6 422/7/6 424/7/6
f 424/7/6 422/7/6 425/7/6
f 426/2/6 427/2/6 430/2/6
f 430/2/6 427/2/6 431/2/6
f 428/2/6 429/2/6 432/2/6
f 432/2/6 429/2/6 433/2/6
f 434/6/6 435/6/6 436/6/6
f 436/6/6 435/6/6 437/6/6
