# MagicaVoxel @ Ephtracy

# material
mtllib Coin.mtl
usemtl palette

# normals
vn -1 0 0
vn 1 0 0
vn 0 0 1
vn 0 0 -1
vn 0 -1 0
vn 0 1 0

# texcoords
vt 0.0214844 0.5
vt 0.822266 0.5

# verts
v -8 0 -0
v -8 0 -1
v -8 1 -0
v -8 1 -1
v -7 0 1
v -7 0 -0
v -7 0 -1
v -7 0 -2
v -7 1 1
v -7 1 -0
v -7 1 -1
v -7 1 -2
v -6 0 2
v -6 0 1
v -6 0 -2
v -6 0 -3
v -6 1 2
v -6 1 1
v -6 1 -2
v -6 1 -3
v -5 0 3
v -5 0 2
v -5 0 -3
v -5 0 -4
v -5 1 3
v -5 1 2
v -5 1 -3
v -5 1 -4
v -4 0 4
v -4 0 3
v -4 0 -4
v -4 0 -5
v -4 1 4
v -4 1 3
v -4 1 -4
v -4 1 -5
v -3 0 5
v -3 0 4
v -3 0 -5
v -3 0 -6
v -3 1 5
v -3 1 4
v -3 1 -5
v -3 1 -6
v -2 0 6
v -2 0 5
v -2 0 -6
v -2 0 -7
v -2 1 6
v -2 1 5
v -2 1 -6
v -2 1 -7
v -1 0 7
v -1 0 6
v -1 0 -7
v -1 0 -8
v -1 1 7
v -1 1 6
v -1 1 -7
v -1 1 -8
v 0 0 8
v 0 0 7
v 0 0 -8
v 0 0 -9
v 0 1 8
v 0 1 7
v 0 1 -8
v 0 1 -9
v 1 0 8
v 1 0 7
v 1 0 -8
v 1 0 -9
v 1 1 8
v 1 1 7
v 1 1 -8
v 1 1 -9
v 2 0 7
v 2 0 6
v 2 0 -7
v 2 0 -8
v 2 1 7
v 2 1 6
v 2 1 -7
v 2 1 -8
v 3 0 6
v 3 0 5
v 3 0 -6
v 3 0 -7
v 3 1 6
v 3 1 5
v 3 1 -6
v 3 1 -7
v 4 0 5
v 4 0 4
v 4 0 -5
v 4 0 -6
v 4 1 5
v 4 1 4
v 4 1 -5
v 4 1 -6
v 5 0 4
v 5 0 3
v 5 0 -4
v 5 0 -5
v 5 1 4
v 5 1 3
v 5 1 -4
v 5 1 -5
v 6 0 3
v 6 0 2
v 6 0 -3
v 6 0 -4
v 6 1 3
v 6 1 2
v 6 1 -3
v 6 1 -4
v 7 0 2
v 7 0 1
v 7 0 -2
v 7 0 -3
v 7 1 2
v 7 1 1
v 7 1 -2
v 7 1 -3
v 8 0 1
v 8 0 -0
v 8 0 -1
v 8 0 -2
v 8 1 1
v 8 1 -0
v 8 1 -1
v 8 1 -2
v 9 0 -0
v 9 0 -1
v 9 1 -0
v 9 1 -1
v 0 0 8
v 0 1 8
v 1 0 8
v 1 1 8
v -1 0 7
v -1 1 7
v 0 0 7
v 0 1 7
v 1 0 7
v 1 1 7
v 2 0 7
v 2 1 7
v -2 0 6
v -2 1 6
v -1 0 6
v -1 1 6
v 2 0 6
v 2 1 6
v 3 0 6
v 3 1 6
v -3 0 5
v -3 1 5
v -2 0 5
v -2 1 5
v 3 0 5
v 3 1 5
v 4 0 5
v 4 1 5
v -4 0 4
v -4 1 4
v -3 0 4
v -3 1 4
v 4 0 4
v 4 1 4
v 5 0 4
v 5 1 4
v -5 0 3
v -5 1 3
v -4 0 3
v -4 1 3
v 5 0 3
v 5 1 3
v 6 0 3
v 6 1 3
v -6 0 2
v -6 1 2
v -5 0 2
v -5 1 2
v 6 0 2
v 6 1 2
v 7 0 2
v 7 1 2
v -7 0 1
v -7 1 1
v -6 0 1
v -6 1 1
v 7 0 1
v 7 1 1
v 8 0 1
v 8 1 1
v -8 0 -0
v -8 1 -0
v -7 0 -0
v -7 1 -0
v 8 0 -0
v 8 1 -0
v 9 0 -0
v 9 1 -0
v -8 0 -1
v -8 1 -1
v -7 0 -1
v -7 1 -1
v 8 0 -1
v 8 1 -1
v 9 0 -1
v 9 1 -1
v -7 0 -2
v -7 1 -2
v -6 0 -2
v -6 1 -2
v 7 0 -2
v 7 1 -2
v 8 0 -2
v 8 1 -2
v -6 0 -3
v -6 1 -3
v -5 0 -3
v -5 1 -3
v 6 0 -3
v 6 1 -3
v 7 0 -3
v 7 1 -3
v -5 0 -4
v -5 1 -4
v -4 0 -4
v -4 1 -4
v 5 0 -4
v 5 1 -4
v 6 0 -4
v 6 1 -4
v -4 0 -5
v -4 1 -5
v -3 0 -5
v -3 1 -5
v 4 0 -5
v 4 1 -5
v 5 0 -5
v 5 1 -5
v -3 0 -6
v -3 1 -6
v -2 0 -6
v -2 1 -6
v 3 0 -6
v 3 1 -6
v 4 0 -6
v 4 1 -6
v -2 0 -7
v -2 1 -7
v -1 0 -7
v -1 1 -7
v 2 0 -7
v 2 1 -7
v 3 0 -7
v 3 1 -7
v -1 0 -8
v -1 1 -8
v 0 0 -8
v 0 1 -8
v 1 0 -8
v 1 1 -8
v 2 0 -8
v 2 1 -8
v 0 0 -9
v 0 1 -9
v 1 0 -9
v 1 1 -9
v 0 0 8
v 1 0 8
v -1 0 7
v 0 0 7
v 1 0 7
v 2 0 7
v -2 0 6
v -1 0 6
v 2 0 6
v 3 0 6
v -3 0 5
v -2 0 5
v 3 0 5
v 4 0 5
v -4 0 4
v -3 0 4
v 4 0 4
v 5 0 4
v -5 0 3
v -4 0 3
v 5 0 3
v 6 0 3
v -6 0 2
v -5 0 2
v 6 0 2
v 7 0 2
v -7 0 1
v -6 0 1
v 0 0 1
v 1 0 1
v 7 0 1
v 8 0 1
v -8 0 -0
v -7 0 -0
v -1 0 -0
v 0 0 -0
v 1 0 -0
v 2 0 -0
v 8 0 -0
v 9 0 -0
v -8 0 -1
v -7 0 -1
v -2 0 -1
v -1 0 -1
v 2 0 -1
v 3 0 -1
v 8 0 -1
v 9 0 -1
v -7 0 -2
v -6 0 -2
v -3 0 -2
v -2 0 -2
v -1 0 -2
v 2 0 -2
v 3 0 -2
v 4 0 -2
v 7 0 -2
v 8 0 -2
v -6 0 -3
v -5 0 -3
v -4 0 -3
v -3 0 -3
v -1 0 -3
v 0 0 -3
v 1 0 -3
v 2 0 -3
v 4 0 -3
v 5 0 -3
v 6 0 -3
v 7 0 -3
v -5 0 -4
v -4 0 -4
v -1 0 -4
v 0 0 -4
v 1 0 -4
v 2 0 -4
v 5 0 -4
v 6 0 -4
v -4 0 -5
v -3 0 -5
v -1 0 -5
v 2 0 -5
v 4 0 -5
v 5 0 -5
v -3 0 -6
v -2 0 -6
v 3 0 -6
v 4 0 -6
v -2 0 -7
v -1 0 -7
v 2 0 -7
v 3 0 -7
v -1 0 -8
v 0 0 -8
v 1 0 -8
v 2 0 -8
v 0 0 -9
v 1 0 -9
v 0 1 8
v 1 1 8
v -1 1 7
v 0 1 7
v 1 1 7
v 2 1 7
v -2 1 6
v -1 1 6
v 2 1 6
v 3 1 6
v -3 1 5
v -2 1 5
v 3 1 5
v 4 1 5
v -4 1 4
v -3 1 4
v 4 1 4
v 5 1 4
v -5 1 3
v -4 1 3
v 5 1 3
v 6 1 3
v -6 1 2
v -5 1 2
v 6 1 2
v 7 1 2
v -7 1 1
v -6 1 1
v 0 1 1
v 1 1 1
v 7 1 1
v 8 1 1
v -8 1 -0
v -7 1 -0
v -1 1 -0
v 0 1 -0
v 1 1 -0
v 2 1 -0
v 8 1 -0
v 9 1 -0
v -8 1 -1
v -7 1 -1
v -2 1 -1
v -1 1 -1
v 2 1 -1
v 3 1 -1
v 8 1 -1
v 9 1 -1
v -7 1 -2
v -6 1 -2
v -3 1 -2
v -2 1 -2
v -1 1 -2
v 2 1 -2
v 3 1 -2
v 4 1 -2
v 7 1 -2
v 8 1 -2
v -6 1 -3
v -5 1 -3
v -4 1 -3
v -3 1 -3
v -1 1 -3
v 0 1 -3
v 1 1 -3
v 2 1 -3
v 4 1 -3
v 5 1 -3
v 6 1 -3
v 7 1 -3
v -5 1 -4
v -4 1 -4
v -1 1 -4
v 0 1 -4
v 1 1 -4
v 2 1 -4
v 5 1 -4
v 6 1 -4
v -4 1 -5
v -3 1 -5
v -1 1 -5
v 2 1 -5
v 4 1 -5
v 5 1 -5
v -3 1 -6
v -2 1 -6
v 3 1 -6
v 4 1 -6
v -2 1 -7
v -1 1 -7
v 2 1 -7
v 3 1 -7
v -1 1 -8
v 0 1 -8
v 1 1 -8
v 2 1 -8
v 0 1 -9
v 1 1 -9

# faces
f 3/1/1 2/1/1 1/1/1
f 4/1/1 2/1/1 3/1/1
f 9/1/1 6/1/1 5/1/1
f 10/1/1 6/1/1 9/1/1
f 11/1/1 8/1/1 7/1/1
f 12/1/1 8/1/1 11/1/1
f 17/1/1 14/1/1 13/1/1
f 18/1/1 14/1/1 17/1/1
f 19/1/1 16/1/1 15/1/1
f 20/1/1 16/1/1 19/1/1
f 25/1/1 22/1/1 21/1/1
f 26/1/1 22/1/1 25/1/1
f 27/1/1 24/1/1 23/1/1
f 28/1/1 24/1/1 27/1/1
f 33/1/1 30/1/1 29/1/1
f 34/1/1 30/1/1 33/1/1
f 35/2/1 32/2/1 31/2/1
f 36/2/1 32/2/1 35/2/1
f 41/1/1 38/1/1 37/1/1
f 42/1/1 38/1/1 41/1/1
f 43/2/1 40/2/1 39/2/1
f 44/2/1 40/2/1 43/2/1
f 49/1/1 46/1/1 45/1/1
f 50/1/1 46/1/1 49/1/1
f 51/2/1 48/2/1 47/2/1
f 52/2/1 48/2/1 51/2/1
f 57/1/1 54/1/1 53/1/1
f 58/1/1 54/1/1 57/1/1
f 59/2/1 56/2/1 55/2/1
f 60/2/1 56/2/1 59/2/1
f 65/1/1 62/1/1 61/1/1
f 66/1/1 62/1/1 65/1/1
f 67/2/1 64/2/1 63/2/1
f 68/2/1 64/2/1 67/2/1
f 69/1/2 70/1/2 73/1/2
f 73/1/2 70/1/2 74/1/2
f 71/2/2 72/2/2 75/2/2
f 75/2/2 72/2/2 76/2/2
f 77/1/2 78/1/2 81/1/2
f 81/1/2 78/1/2 82/1/2
f 79/2/2 80/2/2 83/2/2
f 83/2/2 80/2/2 84/2/2
f 85/1/2 86/1/2 89/1/2
f 89/1/2 86/1/2 90/1/2
f 87/2/2 88/2/2 91/2/2
f 91/2/2 88/2/2 92/2/2
f 93/1/2 94/1/2 97/1/2
f 97/1/2 94/1/2 98/1/2
f 95/2/2 96/2/2 99/2/2
f 99/2/2 96/2/2 100/2/2
f 101/1/2 102/1/2 105/1/2
f 105/1/2 102/1/2 106/1/2
f 103/2/2 104/2/2 107/2/2
f 107/2/2 104/2/2 108/2/2
f 109/1/2 110/1/2 113/1/2
f 113/1/2 110/1/2 114/1/2
f 111/1/2 112/1/2 115/1/2
f 115/1/2 112/1/2 116/1/2
f 117/1/2 118/1/2 121/1/2
f 121/1/2 118/1/2 122/1/2
f 119/1/2 120/1/2 123/1/2
f 123/1/2 120/1/2 124/1/2
f 125/1/2 126/1/2 129/1/2
f 129/1/2 126/1/2 130/1/2
f 127/1/2 128/1/2 131/1/2
f 131/1/2 128/1/2 132/1/2
f 133/1/2 134/1/2 135/1/2
f 135/1/2 134/1/2 136/1/2
f 139/1/3 138/1/3 137/1/3
f 140/1/3 138/1/3 139/1/3
f 143/1/3 142/1/3 141/1/3
f 144/1/3 142/1/3 143/1/3
f 147/1/3 146/1/3 145/1/3
f 148/1/3 146/1/3 147/1/3
f 151/1/3 150/1/3 149/1/3
f 152/1/3 150/1/3 151/1/3
f 155/1/3 154/1/3 153/1/3
f 156/1/3 154/1/3 155/1/3
f 159/1/3 158/1/3 157/1/3
f 160/1/3 158/1/3 159/1/3
f 163/1/3 162/1/3 161/1/3
f 164/1/3 162/1/3 163/1/3
f 167/1/3 166/1/3 165/1/3
f 168/1/3 166/1/3 167/1/3
f 171/1/3 170/1/3 169/1/3
f 172/1/3 170/1/3 171/1/3
f 175/1/3 174/1/3 173/1/3
f 176/1/3 174/1/3 175/1/3
f 179/1/3 178/1/3 177/1/3
f 180/1/3 178/1/3 179/1/3
f 183/1/3 182/1/3 181/1/3
f 184/1/3 182/1/3 183/1/3
f 187/1/3 186/1/3 185/1/3
f 188/1/3 186/1/3 187/1/3
f 191/1/3 190/1/3 189/1/3
f 192/1/3 190/1/3 191/1/3
f 195/1/3 194/1/3 193/1/3
f 196/1/3 194/1/3 195/1/3
f 199/1/3 198/1/3 197/1/3
f 200/1/3 198/1/3 199/1/3
f 203/1/3 202/1/3 201/1/3
f 204/1/3 202/1/3 203/1/3
f 205/1/4 206/1/4 207/1/4
f 207/1/4 206/1/4 208/1/4
f 209/1/4 210/1/4 211/1/4
f 211/1/4 210/1/4 212/1/4
f 213/1/4 214/1/4 215/1/4
f 215/1/4 214/1/4 216/1/4
f 217/1/4 218/1/4 219/1/4
f 219/1/4 218/1/4 220/1/4
f 221/1/4 222/1/4 223/1/4
f 223/1/4 222/1/4 224/1/4
f 225/1/4 226/1/4 227/1/4
f 227/1/4 226/1/4 228/1/4
f 229/1/4 230/1/4 231/1/4
f 231/1/4 230/1/4 232/1/4
f 233/1/4 234/1/4 235/1/4
f 235/1/4 234/1/4 236/1/4
f 237/2/4 238/2/4 239/2/4
f 239/2/4 238/2/4 240/2/4
f 241/2/4 242/2/4 243/2/4
f 243/2/4 242/2/4 244/2/4
f 245/2/4 246/2/4 247/2/4
f 247/2/4 246/2/4 248/2/4
f 249/2/4 250/2/4 251/2/4
f 251/2/4 250/2/4 252/2/4
f 253/2/4 254/2/4 255/2/4
f 255/2/4 254/2/4 256/2/4
f 257/2/4 258/2/4 259/2/4
f 259/2/4 258/2/4 260/2/4
f 261/2/4 262/2/4 263/2/4
f 263/2/4 262/2/4 264/2/4
f 265/2/4 266/2/4 267/2/4
f 267/2/4 266/2/4 268/2/4
f 269/2/4 270/2/4 271/2/4
f 271/2/4 270/2/4 272/2/4
f 276/1/5 274/1/5 273/1/5
f 277/1/5 274/1/5 276/1/5
f 280/1/5 276/1/5 275/1/5
f 280/1/5 278/1/5 277/1/5
f 280/1/5 277/1/5 276/1/5
f 281/1/5 278/1/5 280/1/5
f 284/1/5 280/1/5 279/1/5
f 284/1/5 282/1/5 281/1/5
f 284/1/5 281/1/5 280/1/5
f 285/1/5 282/1/5 284/1/5
f 288/1/5 284/1/5 283/1/5
f 288/1/5 286/1/5 285/1/5
f 288/1/5 285/1/5 284/1/5
f 289/1/5 286/1/5 288/1/5
f 292/1/5 288/1/5 287/1/5
f 292/1/5 290/1/5 289/1/5
f 292/1/5 289/1/5 288/1/5
f 293/1/5 290/1/5 292/1/5
f 296/1/5 292/1/5 291/1/5
f 296/1/5 294/1/5 293/1/5
f 296/1/5 293/1/5 292/1/5
f 297/1/5 294/1/5 296/1/5
f 300/1/5 296/1/5 295/1/5
f 300/1/5 298/1/5 297/1/5
f 300/1/5 297/1/5 296/1/5
f 301/1/5 298/1/5 300/1/5
f 302/1/5 298/1/5 301/1/5
f 303/1/5 298/1/5 302/1/5
f 306/1/5 300/1/5 299/1/5
f 306/1/5 301/1/5 300/1/5
f 307/1/5 301/1/5 306/1/5
f 308/2/5 302/2/5 301/2/5
f 308/1/5 301/1/5 307/1/5
f 309/1/5 304/1/5 303/1/5
f 309/2/5 302/2/5 308/2/5
f 309/1/5 303/1/5 302/1/5
f 310/1/5 304/1/5 309/1/5
f 311/1/5 304/1/5 310/1/5
f 313/1/5 306/1/5 305/1/5
f 313/1/5 307/1/5 306/1/5
f 314/1/5 307/1/5 313/1/5
f 315/1/5 307/1/5 314/1/5
f 316/2/5 308/2/5 307/2/5
f 316/1/5 307/1/5 315/1/5
f 316/2/5 309/2/5 308/2/5
f 316/2/5 310/2/5 309/2/5
f 317/1/5 312/1/5 311/1/5
f 317/2/5 310/2/5 316/2/5
f 317/1/5 311/1/5 310/1/5
f 318/1/5 312/1/5 317/1/5
f 319/1/5 312/1/5 318/1/5
f 320/1/5 312/1/5 319/1/5
f 321/1/5 315/1/5 314/1/5
f 322/1/5 315/1/5 321/1/5
f 323/1/5 315/1/5 322/1/5
f 324/2/5 316/2/5 315/2/5
f 324/1/5 315/1/5 323/1/5
f 324/2/5 317/2/5 316/2/5
f 324/2/5 318/2/5 317/2/5
f 325/2/5 318/2/5 324/2/5
f 326/2/5 318/2/5 325/2/5
f 327/1/5 319/1/5 318/1/5
f 327/2/5 318/2/5 326/2/5
f 328/1/5 319/1/5 327/1/5
f 329/1/5 319/1/5 328/1/5
f 330/1/5 319/1/5 329/1/5
f 331/1/5 323/1/5 322/1/5
f 332/1/5 323/1/5 331/1/5
f 333/1/5 323/1/5 332/1/5
f 334/2/5 324/2/5 323/2/5
f 334/1/5 323/1/5 333/1/5
f 334/2/5 325/2/5 324/2/5
f 335/1/5 326/1/5 325/1/5
f 335/2/5 325/2/5 334/2/5
f 336/1/5 326/1/5 335/1/5
f 337/1/5 326/1/5 336/1/5
f 338/2/5 327/2/5 326/2/5
f 338/1/5 326/1/5 337/1/5
f 338/2/5 328/2/5 327/2/5
f 339/1/5 329/1/5 328/1/5
f 339/2/5 328/2/5 338/2/5
f 340/1/5 329/1/5 339/1/5
f 341/1/5 329/1/5 340/1/5
f 342/1/5 329/1/5 341/1/5
f 343/1/5 333/1/5 332/1/5
f 344/2/5 334/2/5 333/2/5
f 344/1/5 333/1/5 343/1/5
f 344/2/5 336/2/5 335/2/5
f 344/2/5 335/2/5 334/2/5
f 345/2/5 336/2/5 344/2/5
f 346/1/5 337/1/5 336/1/5
f 346/2/5 336/2/5 345/2/5
f 347/2/5 338/2/5 337/2/5
f 347/1/5 337/1/5 346/1/5
f 347/2/5 340/2/5 339/2/5
f 347/2/5 339/2/5 338/2/5
f 348/2/5 340/2/5 347/2/5
f 349/1/5 341/1/5 340/1/5
f 349/2/5 340/2/5 348/2/5
f 350/1/5 341/1/5 349/1/5
f 351/2/5 345/2/5 344/2/5
f 352/2/5 345/2/5 351/2/5
f 353/1/5 346/1/5 345/1/5
f 353/2/5 345/2/5 352/2/5
f 353/1/5 348/1/5 347/1/5
f 353/1/5 347/1/5 346/1/5
f 354/2/5 349/2/5 348/2/5
f 354/1/5 348/1/5 353/1/5
f 355/2/5 349/2/5 354/2/5
f 356/2/5 349/2/5 355/2/5
f 357/2/5 353/2/5 352/2/5
f 357/2/5 355/2/5 354/2/5
f 357/2/5 354/2/5 353/2/5
f 358/2/5 355/2/5 357/2/5
f 359/2/5 355/2/5 358/2/5
f 360/2/5 355/2/5 359/2/5
f 361/2/5 359/2/5 358/2/5
f 362/2/5 359/2/5 361/2/5
f 363/2/5 359/2/5 362/2/5
f 364/2/5 359/2/5 363/2/5
f 365/2/5 363/2/5 362/2/5
f 366/2/5 363/2/5 365/2/5
f 367/2/5 363/2/5 366/2/5
f 368/2/5 363/2/5 367/2/5
f 369/2/5 367/2/5 366/2/5
f 370/2/5 367/2/5 369/2/5
f 371/1/6 372/1/6 374/1/6
f 374/1/6 372/1/6 375/1/6
f 373/1/6 374/1/6 378/1/6
f 375/1/6 376/1/6 378/1/6
f 374/1/6 375/1/6 378/1/6
f 378/1/6 376/1/6 379/1/6
f 377/1/6 378/1/6 382/1/6
f 379/1/6 380/1/6 382/1/6
f 378/1/6 379/1/6 382/1/6
f 382/1/6 380/1/6 383/1/6
f 381/1/6 382/1/6 386/1/6
f 383/1/6 384/1/6 386/1/6
f 382/1/6 383/1/6 386/1/6
f 386/1/6 384/1/6 387/1/6
f 385/1/6 386/1/6 390/1/6
f 387/1/6 388/1/6 390/1/6
f 386/1/6 387/1/6 390/1/6
f 390/1/6 388/1/6 391/1/6
f 389/1/6 390/1/6 394/1/6
f 391/1/6 392/1/6 394/1/6
f 390/1/6 391/1/6 394/1/6
f 394/1/6 392/1/6 395/1/6
f 393/1/6 394/1/6 398/1/6
f 395/1/6 396/1/6 398/1/6
f 394/1/6 395/1/6 398/1/6
f 398/1/6 396/1/6 399/1/6
f 399/1/6 396/1/6 400/1/6
f 400/1/6 396/1/6 401/1/6
f 397/1/6 398/1/6 404/1/6
f 398/1/6 399/1/6 404/1/6
f 404/1/6 399/1/6 405/1/6
f 399/2/6 400/2/6 406/2/6
f 405/1/6 399/1/6 406/1/6
f 401/1/6 402/1/6 407/1/6
f 406/2/6 400/2/6 407/2/6
f 400/1/6 401/1/6 407/1/6
f 407/1/6 402/1/6 408/1/6
f 408/1/6 402/1/6 409/1/6
f 403/1/6 404/1/6 411/1/6
f 404/1/6 405/1/6 411/1/6
f 411/1/6 405/1/6 412/1/6
f 412/1/6 405/1/6 413/1/6
f 405/2/6 406/2/6 414/2/6
f 413/1/6 405/1/6 414/1/6
f 406/2/6 407/2/6 414/2/6
f 407/2/6 408/2/6 414/2/6
f 409/1/6 410/1/6 415/1/6
f 414/2/6 408/2/6 415/2/6
f 408/1/6 409/1/6 415/1/6
f 415/1/6 410/1/6 416/1/6
f 416/1/6 410/1/6 417/1/6
f 417/1/6 410/1/6 418/1/6
f 412/1/6 413/1/6 419/1/6
f 419/1/6 413/1/6 420/1/6
f 420/1/6 413/1/6 421/1/6
f 413/2/6 414/2/6 422/2/6
f 421/1/6 413/1/6 422/1/6
f 414/2/6 415/2/6 422/2/6
f 415/2/6 416/2/6 422/2/6
f 422/2/6 416/2/6 423/2/6
f 423/2/6 416/2/6 424/2/6
f 416/1/6 417/1/6 425/1/6
f 424/2/6 416/2/6 425/2/6
f 425/1/6 417/1/6 426/1/6
f 426/1/6 417/1/6 427/1/6
f 427/1/6 417/1/6 428/1/6
f 420/1/6 421/1/6 429/1/6
f 429/1/6 421/1/6 430/1/6
f 430/1/6 421/1/6 431/1/6
f 421/2/6 422/2/6 432/2/6
f 431/1/6 421/1/6 432/1/6
f 422/2/6 423/2/6 432/2/6
f 423/1/6 424/1/6 433/1/6
f 432/2/6 423/2/6 433/2/6
f 433/1/6 424/1/6 434/1/6
f 434/1/6 424/1/6 435/1/6
f 424/2/6 425/2/6 436/2/6
f 435/1/6 424/1/6 436/1/6
f 425/2/6 426/2/6 436/2/6
f 426/1/6 427/1/6 437/1/6
f 436/2/6 426/2/6 437/2/6
f 437/1/6 427/1/6 438/1/6
f 438/1/6 427/1/6 439/1/6
f 439/1/6 427/1/6 440/1/6
f 430/1/6 431/1/6 441/1/6
f 431/2/6 432/2/6 442/2/6
f 441/1/6 431/1/6 442/1/6
f 433/2/6 434/2/6 442/2/6
f 432/2/6 433/2/6 442/2/6
f 442/2/6 434/2/6 443/2/6
f 434/1/6 435/1/6 444/1/6
f 443/2/6 434/2/6 444/2/6
f 435/2/6 436/2/6 445/2/6
f 444/1/6 435/1/6 445/1/6
f 437/2/6 438/2/6 445/2/6
f 436/2/6 437/2/6 445/2/6
f 445/2/6 438/2/6 446/2/6
f 438/1/6 439/1/6 447/1/6
f 446/2/6 438/2/6 447/2/6
f 447/1/6 439/1/6 448/1/6
f 442/2/6 443/2/6 449/2/6
f 449/2/6 443/2/6 450/2/6
f 443/1/6 444/1/6 451/1/6
f 450/2/6 443/2/6 451/2/6
f 445/1/6 446/1/6 451/1/6
f 444/1/6 445/1/6 451/1/6
f 446/2/6 447/2/6 452/2/6
f 451/1/6 446/1/6 452/1/6
f 452/2/6 447/2/6 453/2/6
f 453/2/6 447/2/6 454/2/6
f 450/2/6 451/2/6 455/2/6
f 452/2/6 453/2/6 455/2/6
f 451/2/6 452/2/6 455/2/6
f 455/2/6 453/2/6 456/2/6
f 456/2/6 453/2/6 457/2/6
f 457/2/6 453/2/6 458/2/6
f 456/2/6 457/2/6 459/2/6
f 459/2/6 457/2/6 460/2/6
f 460/2/6 457/2/6 461/2/6
f 461/2/6 457/2/6 462/2/6
f 460/2/6 461/2/6 463/2/6
f 463/2/6 461/2/6 464/2/6
f 464/2/6 461/2/6 465/2/6
f 465/2/6 461/2/6 466/2/6
f 464/2/6 465/2/6 467/2/6
f 467/2/6 465/2/6 468/2/6
