# MagicaVoxel @ Ephtracy

# material
mtllib Deer.mtl
usemtl palette

# normals
vn -1 0 0
vn 1 0 0
vn 0 0 1
vn 0 0 -1
vn 0 -1 0
vn 0 1 0

# texcoords
vt 0.310547 0.5
vt 0.486328 0.5
vt 0.958984 0.5
vt 0.994141 0.5

# verts
v -4 21 9
v -4 21 8
v -4 23 9
v -4 23 8
v -3 21 8
v -3 21 5
v -3 22 8
v -3 22 6
v -3 23 8
v -3 23 6
v -3 24 7
v -3 24 6
v -3 25 8
v -3 25 7
v -3 26 6
v -3 26 5
v -2 17 11
v -2 17 10
v -2 19 11
v -2 19 10
v -2 20 10
v -2 20 9
v -2 21 9
v -2 22 10
v -2 22 9
v -1 0 12
v -1 0 11
v -1 0 2
v -1 0 1
v -1 1 12
v -1 1 11
v -1 1 2
v -1 1 1
v -1 3 12
v -1 3 11
v -1 3 2
v -1 3 1
v -1 6 11
v -1 6 2
v -1 7 1
v -1 7 -0
v -1 11 9
v -1 11 -0
v -1 15 13
v -1 15 12
v -1 16 12
v -1 16 11
v -1 17 12
v -1 17 11
v -1 17 10
v -1 18 13
v -1 18 11
v -1 18 10
v -1 18 9
v -1 19 11
v -1 19 10
v -1 20 13
v -1 20 11
v -1 20 10
v -1 21 12
v -1 21 10
v -1 22 13
v -1 22 12
v 0 7 -0
v 0 7 -1
v 0 10 -0
v 0 10 -1
v 0 15 15
v 0 15 14
v 0 15 13
v 0 17 15
v 0 17 14
v 0 17 13
v 1 0 12
v 1 0 11
v 1 0 2
v 1 0 1
v 1 1 12
v 1 1 11
v 1 1 2
v 1 1 1
v 1 3 12
v 1 3 11
v 1 3 2
v 1 3 1
v 1 6 12
v 1 6 11
v 1 6 2
v 1 6 1
v 1 18 11
v 1 18 10
v 1 20 13
v 1 20 11
v 1 20 10
v 1 20 9
v 1 21 12
v 1 21 9
v 1 22 13
v 1 22 12
v 2 21 10
v 2 21 9
v 2 21 8
v 2 22 10
v 2 22 8
v 3 21 8
v 3 21 5
v 3 22 8
v 3 22 6
v 3 23 8
v 3 23 6
v 3 24 7
v 3 24 6
v 3 25 8
v 3 25 7
v 3 26 6
v 3 26 5
v 4 22 9
v 4 22 8
v 4 23 9
v 4 23 8
v -3 22 9
v -3 22 8
v -3 23 9
v -3 23 8
v -2 21 8
v -2 21 5
v -2 22 8
v -2 22 6
v -2 23 8
v -2 23 6
v -2 24 7
v -2 24 6
v -2 25 8
v -2 25 7
v -2 26 6
v -2 26 5
v -1 21 10
v -1 21 9
v -1 21 8
v -1 22 10
v -1 22 8
v 0 0 12
v 0 0 11
v 0 0 2
v 0 0 1
v 0 1 12
v 0 1 11
v 0 1 2
v 0 1 1
v 0 3 12
v 0 3 11
v 0 3 2
v 0 3 1
v 0 6 12
v 0 6 11
v 0 6 2
v 0 6 1
v 0 18 11
v 0 18 10
v 0 20 13
v 0 20 11
v 0 20 10
v 0 20 9
v 0 21 12
v 0 21 9
v 0 22 13
v 0 22 12
v 1 7 -0
v 1 7 -1
v 1 10 -0
v 1 10 -1
v 1 15 15
v 1 15 14
v 1 15 13
v 1 17 15
v 1 17 14
v 1 17 13
v 2 0 12
v 2 0 11
v 2 0 2
v 2 0 1
v 2 1 12
v 2 1 11
v 2 1 2
v 2 1 1
v 2 3 12
v 2 3 11
v 2 3 2
v 2 3 1
v 2 6 11
v 2 6 2
v 2 7 1
v 2 7 -0
v 2 11 9
v 2 11 -0
v 2 15 13
v 2 15 12
v 2 16 12
v 2 16 11
v 2 17 12
v 2 17 11
v 2 17 10
v 2 18 13
v 2 18 11
v 2 18 10
v 2 18 9
v 2 19 11
v 2 19 10
v 2 20 13
v 2 20 11
v 2 20 10
v 2 21 12
v 2 21 10
v 2 22 13
v 2 22 12
v 3 17 11
v 3 17 10
v 3 19 11
v 3 19 10
v 3 20 10
v 3 20 9
v 3 21 9
v 3 22 10
v 3 22 9
v 4 21 8
v 4 21 5
v 4 22 8
v 4 22 6
v 4 23 8
v 4 23 6
v 4 24 7
v 4 24 6
v 4 25 8
v 4 25 7
v 4 26 6
v 4 26 5
v 5 21 9
v 5 21 8
v 5 23 9
v 5 23 8
v 0 15 15
v 0 17 15
v 1 15 15
v 1 17 15
v -1 15 13
v -1 18 13
v -1 20 13
v -1 22 13
v 0 15 13
v 0 17 13
v 0 20 13
v 0 22 13
v 1 15 13
v 1 17 13
v 1 20 13
v 1 22 13
v 2 15 13
v 2 18 13
v 2 20 13
v 2 22 13
v -1 0 12
v -1 1 12
v -1 3 12
v -1 15 12
v 0 0 12
v 0 1 12
v 0 3 12
v 0 6 12
v 0 15 12
v 1 0 12
v 1 1 12
v 1 3 12
v 1 6 12
v 1 15 12
v 2 0 12
v 2 1 12
v 2 3 12
v 2 15 12
v -2 17 11
v -2 19 11
v -1 17 11
v -1 18 11
v -1 19 11
v -1 20 11
v 0 18 11
v 0 20 11
v 1 18 11
v 1 20 11
v 2 17 11
v 2 18 11
v 2 19 11
v 2 20 11
v 3 17 11
v 3 19 11
v -2 20 10
v -2 22 10
v -1 20 10
v -1 21 10
v -1 22 10
v 2 20 10
v 2 21 10
v 2 22 10
v 3 20 10
v 3 22 10
v -4 21 9
v -4 23 9
v -3 22 9
v -3 23 9
v -2 21 9
v -2 22 9
v 3 21 9
v 3 22 9
v 4 22 9
v 4 23 9
v 5 21 9
v 5 23 9
v -3 23 8
v -3 25 8
v -2 23 8
v -2 25 8
v 3 23 8
v 3 25 8
v 4 23 8
v 4 25 8
v -3 22 6
v -3 23 6
v -3 24 6
v -3 26 6
v -2 22 6
v -2 23 6
v -2 24 6
v -2 26 6
v 3 22 6
v 3 23 6
v 3 24 6
v 3 26 6
v 4 22 6
v 4 23 6
v 4 24 6
v 4 26 6
v -1 0 2
v -1 1 2
v -1 3 2
v -1 6 2
v 0 0 2
v 0 1 2
v 0 3 2
v 0 6 2
v 1 0 2
v 1 1 2
v 1 3 2
v 1 6 2
v 2 0 2
v 2 1 2
v 2 3 2
v 2 6 2
v -1 21 12
v -1 22 12
v 0 21 12
v 0 22 12
v 1 21 12
v 1 22 12
v 2 21 12
v 2 22 12
v -1 0 11
v -1 1 11
v -1 3 11
v -1 6 11
v 0 0 11
v 0 1 11
v 0 3 11
v 0 6 11
v 1 0 11
v 1 1 11
v 1 3 11
v 1 6 11
v 2 0 11
v 2 1 11
v 2 3 11
v 2 6 11
v -2 17 10
v -2 19 10
v -1 17 10
v -1 18 10
v -1 19 10
v -1 20 10
v 0 18 10
v 0 20 10
v 1 18 10
v 1 20 10
v 2 17 10
v 2 18 10
v 2 19 10
v 2 20 10
v 3 17 10
v 3 19 10
v -2 20 9
v -2 21 9
v -1 11 9
v -1 18 9
v -1 21 9
v 0 20 9
v 0 21 9
v 1 20 9
v 1 21 9
v 2 11 9
v 2 18 9
v 2 21 9
v 3 20 9
v 3 21 9
v -4 21 8
v -4 23 8
v -3 21 8
v -3 22 8
v -3 23 8
v -2 21 8
v -2 22 8
v -1 21 8
v -1 22 8
v 2 21 8
v 2 22 8
v 3 21 8
v 3 22 8
v 4 21 8
v 4 22 8
v 4 23 8
v 5 21 8
v 5 23 8
v -3 24 7
v -3 25 7
v -2 24 7
v -2 25 7
v 3 24 7
v 3 25 7
v 4 24 7
v 4 25 7
v -3 21 5
v -3 26 5
v -2 21 5
v -2 26 5
v 3 21 5
v 3 26 5
v 4 21 5
v 4 26 5
v -1 0 1
v -1 1 1
v -1 3 1
v -1 7 1
v 0 0 1
v 0 1 1
v 0 3 1
v 0 6 1
v 0 7 1
v 1 0 1
v 1 1 1
v 1 3 1
v 1 6 1
v 1 7 1
v 2 0 1
v 2 1 1
v 2 3 1
v 2 7 1
v -1 7 -0
v -1 11 -0
v 0 7 -0
v 0 10 -0
v 1 7 -0
v 1 10 -0
v 2 7 -0
v 2 11 -0
v 0 7 -1
v 0 10 -1
v 1 7 -1
v 1 10 -1
v -1 0 12
v 0 0 12
v 1 0 12
v 2 0 12
v -1 0 11
v 0 0 11
v 1 0 11
v 2 0 11
v -1 0 2
v 0 0 2
v 1 0 2
v 2 0 2
v -1 0 1
v 0 0 1
v 1 0 1
v 2 0 1
v 0 6 12
v 1 6 12
v -1 6 11
v 0 6 11
v 1 6 11
v 2 6 11
v -1 6 2
v 0 6 2
v 1 6 2
v 2 6 2
v 0 6 1
v 1 6 1
v -1 7 1
v 0 7 1
v 1 7 1
v 2 7 1
v -1 7 -0
v 0 7 -0
v 1 7 -0
v 2 7 -0
v 0 7 -1
v 1 7 -1
v 0 15 15
v 1 15 15
v 0 15 14
v 1 15 14
v -1 15 13
v 0 15 13
v 1 15 13
v 2 15 13
v -1 15 12
v 0 15 12
v 1 15 12
v 2 15 12
v -2 17 11
v -1 17 11
v 2 17 11
v 3 17 11
v -2 17 10
v -1 17 10
v 2 17 10
v 3 17 10
v -1 20 13
v 0 20 13
v 1 20 13
v 2 20 13
v -1 20 11
v 0 20 11
v 1 20 11
v 2 20 11
v -2 20 10
v -1 20 10
v 0 20 10
v 1 20 10
v 2 20 10
v 3 20 10
v -2 20 9
v 0 20 9
v 1 20 9
v 3 20 9
v -4 21 9
v -2 21 9
v -1 21 9
v 2 21 9
v 3 21 9
v 5 21 9
v -4 21 8
v -3 21 8
v -2 21 8
v -1 21 8
v 2 21 8
v 3 21 8
v 4 21 8
v 5 21 8
v -3 21 5
v -2 21 5
v 3 21 5
v 4 21 5
v -3 23 8
v -2 23 8
v 3 23 8
v 4 23 8
v -3 23 6
v -2 23 6
v 3 23 6
v 4 23 6
v 0 10 -0
v 1 10 -0
v 0 10 -1
v 1 10 -1
v -1 11 9
v 2 11 9
v -1 11 -0
v 2 11 -0
v 0 17 15
v 1 17 15
v 0 17 14
v 1 17 14
v 0 17 13
v 1 17 13
v -1 18 13
v 2 18 13
v -1 18 11
v 0 18 11
v 1 18 11
v 2 18 11
v -1 18 10
v 0 18 10
v 1 18 10
v 2 18 10
v -1 18 9
v 2 18 9
v -2 19 11
v -1 19 11
v 2 19 11
v 3 19 11
v -2 19 10
v -1 19 10
v 2 19 10
v 3 19 10
v -1 21 12
v 0 21 12
v 1 21 12
v 2 21 12
v -1 21 10
v 2 21 10
v -1 21 9
v 0 21 9
v 1 21 9
v 2 21 9
v -1 22 13
v 0 22 13
v 1 22 13
v 2 22 13
v -1 22 12
v 0 22 12
v 1 22 12
v 2 22 12
v -2 22 10
v -1 22 10
v 2 22 10
v 3 22 10
v -3 22 9
v -2 22 9
v 3 22 9
v 4 22 9
v -3 22 8
v -2 22 8
v -1 22 8
v 2 22 8
v 3 22 8
v 4 22 8
v -3 22 6
v -2 22 6
v 3 22 6
v 4 22 6
v -4 23 9
v -3 23 9
v 4 23 9
v 5 23 9
v -4 23 8
v -3 23 8
v 4 23 8
v 5 23 8
v -3 24 7
v -2 24 7
v 3 24 7
v 4 24 7
v -3 24 6
v -2 24 6
v 3 24 6
v 4 24 6
v -3 25 8
v -2 25 8
v 3 25 8
v 4 25 8
v -3 25 7
v -2 25 7
v 3 25 7
v 4 25 7
v -3 26 6
v -2 26 6
v 3 26 6
v 4 26 6
v -3 26 5
v -2 26 5
v 3 26 5
v 4 26 5

# faces
f 3/1/1 2/1/1 1/1/1
f 4/1/1 2/1/1 3/1/1
f 7/1/1 6/1/1 5/1/1
f 8/1/1 6/1/1 7/1/1
f 10/1/1 6/1/1 8/1/1
f 11/1/1 10/1/1 9/1/1
f 12/1/1 6/1/1 10/1/1
f 12/1/1 10/1/1 11/1/1
f 13/1/1 11/1/1 9/1/1
f 14/1/1 11/1/1 13/1/1
f 15/1/1 6/1/1 12/1/1
f 16/1/1 6/1/1 15/1/1
f 19/2/1 18/2/1 17/2/1
f 20/2/1 18/2/1 19/2/1
f 23/1/1 22/1/1 21/1/1
f 24/1/1 23/1/1 21/1/1
f 25/1/1 23/1/1 24/1/1
f 30/4/1 27/4/1 26/4/1
f 31/4/1 27/4/1 30/4/1
f 32/4/1 29/4/1 28/4/1
f 33/4/1 29/4/1 32/4/1
f 34/3/1 31/3/1 30/3/1
f 35/3/1 31/3/1 34/3/1
f 36/3/1 33/3/1 32/3/1
f 37/3/1 33/3/1 36/3/1
f 38/2/1 35/2/1 34/2/1
f 39/2/1 37/2/1 36/2/1
f 40/2/1 37/2/1 39/2/1
f 40/2/1 39/2/1 38/2/1
f 42/2/1 40/2/1 38/2/1
f 42/2/1 41/2/1 40/2/1
f 43/2/1 41/2/1 42/2/1
f 45/2/1 38/2/1 34/2/1
f 45/2/1 42/2/1 38/2/1
f 46/2/1 42/2/1 45/2/1
f 46/2/1 45/2/1 44/2/1
f 47/2/1 42/2/1 46/2/1
f 48/2/1 46/2/1 44/2/1
f 48/4/1 47/4/1 46/4/1
f 49/2/1 42/2/1 47/2/1
f 49/4/1 47/4/1 48/4/1
f 50/2/1 42/2/1 49/2/1
f 51/2/1 48/2/1 44/2/1
f 51/2/1 49/2/1 48/2/1
f 52/2/1 49/2/1 51/2/1
f 53/2/1 42/2/1 50/2/1
f 54/2/1 42/2/1 53/2/1
f 58/1/1 56/1/1 55/1/1
f 59/1/1 56/1/1 58/1/1
f 60/1/1 58/1/1 57/1/1
f 60/1/1 59/1/1 58/1/1
f 61/1/1 59/1/1 60/1/1
f 62/1/1 60/1/1 57/1/1
f 63/1/1 60/1/1 62/1/1
f 66/2/1 65/2/1 64/2/1
f 67/2/1 65/2/1 66/2/1
f 71/4/1 69/4/1 68/4/1
f 72/3/1 70/3/1 69/3/1
f 72/4/1 69/4/1 71/4/1
f 73/3/1 70/3/1 72/3/1
f 78/4/1 75/4/1 74/4/1
f 79/4/1 75/4/1 78/4/1
f 80/4/1 77/4/1 76/4/1
f 81/4/1 77/4/1 80/4/1
f 82/3/1 79/3/1 78/3/1
f 83/3/1 79/3/1 82/3/1
f 84/3/1 81/3/1 80/3/1
f 85/3/1 81/3/1 84/3/1
f 86/2/1 83/2/1 82/2/1
f 87/2/1 83/2/1 86/2/1
f 88/2/1 85/2/1 84/2/1
f 89/2/1 85/2/1 88/2/1
f 93/1/1 91/1/1 90/1/1
f 94/1/1 91/1/1 93/1/1
f 96/1/1 93/1/1 92/1/1
f 96/1/1 95/1/1 94/1/1
f 96/1/1 94/1/1 93/1/1
f 97/1/1 95/1/1 96/1/1
f 98/1/1 96/1/1 92/1/1
f 99/1/1 96/1/1 98/1/1
f 103/1/1 101/1/1 100/1/1
f 103/1/1 102/1/1 101/1/1
f 104/1/1 102/1/1 103/1/1
f 107/1/1 106/1/1 105/1/1
f 108/1/1 106/1/1 107/1/1
f 110/1/1 106/1/1 108/1/1
f 111/1/1 110/1/1 109/1/1
f 112/1/1 106/1/1 110/1/1
f 112/1/1 110/1/1 111/1/1
f 113/1/1 111/1/1 109/1/1
f 114/1/1 111/1/1 113/1/1
f 115/1/1 106/1/1 112/1/1
f 116/1/1 106/1/1 115/1/1
f 119/1/1 118/1/1 117/1/1
f 120/1/1 118/1/1 119/1/1
f 121/1/2 122/1/2 123/1/2
f 123/1/2 122/1/2 124/1/2
f 125/1/2 126/1/2 127/1/2
f 127/1/2 126/1/2 128/1/2
f 128/1/2 126/1/2 130/1/2
f 129/1/2 130/1/2 131/1/2
f 130/1/2 126/1/2 132/1/2
f 131/1/2 130/1/2 132/1/2
f 129/1/2 131/1/2 133/1/2
f 133/1/2 131/1/2 134/1/2
f 132/1/2 126/1/2 135/1/2
f 135/1/2 126/1/2 136/1/2
f 137/1/2 138/1/2 140/1/2
f 138/1/2 139/1/2 140/1/2
f 140/1/2 139/1/2 141/1/2
f 142/4/2 143/4/2 146/4/2
f 146/4/2 143/4/2 147/4/2
f 144/4/2 145/4/2 148/4/2
f 148/4/2 145/4/2 149/4/2
f 146/3/2 147/3/2 150/3/2
f 150/3/2 147/3/2 151/3/2
f 148/3/2 149/3/2 152/3/2
f 152/3/2 149/3/2 153/3/2
f 150/2/2 151/2/2 154/2/2
f 154/2/2 151/2/2 155/2/2
f 152/2/2 153/2/2 156/2/2
f 156/2/2 153/2/2 157/2/2
f 158/1/2 159/1/2 161/1/2
f 161/1/2 159/1/2 162/1/2
f 160/1/2 161/1/2 164/1/2
f 162/1/2 163/1/2 164/1/2
f 161/1/2 162/1/2 164/1/2
f 164/1/2 163/1/2 165/1/2
f 160/1/2 164/1/2 166/1/2
f 166/1/2 164/1/2 167/1/2
f 168/2/2 169/2/2 170/2/2
f 170/2/2 169/2/2 171/2/2
f 172/4/2 173/4/2 175/4/2
f 173/3/2 174/3/2 176/3/2
f 175/4/2 173/4/2 176/4/2
f 176/3/2 174/3/2 177/3/2
f 178/4/2 179/4/2 182/4/2
f 182/4/2 179/4/2 183/4/2
f 180/4/2 181/4/2 184/4/2
f 184/4/2 181/4/2 185/4/2
f 182/3/2 183/3/2 186/3/2
f 186/3/2 183/3/2 187/3/2
f 184/3/2 185/3/2 188/3/2
f 188/3/2 185/3/2 189/3/2
f 186/2/2 187/2/2 190/2/2
f 188/2/2 189/2/2 191/2/2
f 191/2/2 189/2/2 192/2/2
f 190/2/2 191/2/2 192/2/2
f 190/2/2 192/2/2 194/2/2
f 192/2/2 193/2/2 194/2/2
f 194/2/2 193/2/2 195/2/2
f 186/2/2 190/2/2 197/2/2
f 190/2/2 194/2/2 197/2/2
f 197/2/2 194/2/2 198/2/2
f 196/2/2 197/2/2 198/2/2
f 198/2/2 194/2/2 199/2/2
f 196/2/2 198/2/2 200/2/2
f 198/4/2 199/4/2 200/4/2
f 199/2/2 194/2/2 201/2/2
f 200/4/2 199/4/2 201/4/2
f 201/2/2 194/2/2 202/2/2
f 196/2/2 200/2/2 203/2/2
f 200/2/2 201/2/2 203/2/2
f 203/2/2 201/2/2 204/2/2
f 202/2/2 194/2/2 205/2/2
f 205/2/2 194/2/2 206/2/2
f 207/1/2 208/1/2 210/1/2
f 210/1/2 208/1/2 211/1/2
f 209/1/2 210/1/2 212/1/2
f 210/1/2 211/1/2 212/1/2
f 212/1/2 211/1/2 213/1/2
f 209/1/2 212/1/2 214/1/2
f 214/1/2 212/1/2 215/1/2
f 216/2/2 217/2/2 218/2/2
f 218/2/2 217/2/2 219/2/2
f 220/1/2 221/1/2 222/1/2
f 220/1/2 222/1/2 223/1/2
f 223/1/2 222/1/2 224/1/2
f 225/1/2 226/1/2 227/1/2
f 227/1/2 226/1/2 228/1/2
f 228/1/2 226/1/2 230/1/2
f 229/1/2 230/1/2 231/1/2
f 230/1/2 226/1/2 232/1/2
f 231/1/2 230/1/2 232/1/2
f 229/1/2 231/1/2 233/1/2
f 233/1/2 231/1/2 234/1/2
f 232/1/2 226/1/2 235/1/2
f 235/1/2 226/1/2 236/1/2
f 237/1/2 238/1/2 239/1/2
f 239/1/2 238/1/2 240/1/2
f 243/4/3 242/4/3 241/4/3
f 244/4/3 242/4/3 243/4/3
f 249/2/3 246/2/3 245/2/3
f 250/2/3 246/2/3 249/2/3
f 251/1/3 248/1/3 247/1/3
f 252/1/3 248/1/3 251/1/3
f 254/2/3 246/2/3 250/2/3
f 257/2/3 254/2/3 253/2/3
f 258/2/3 246/2/3 254/2/3
f 258/2/3 254/2/3 257/2/3
f 259/1/3 256/1/3 255/1/3
f 260/1/3 256/1/3 259/1/3
f 265/4/3 262/4/3 261/4/3
f 266/3/3 263/3/3 262/3/3
f 266/4/3 262/4/3 265/4/3
f 267/2/3 264/2/3 263/2/3
f 267/3/3 263/3/3 266/3/3
f 268/2/3 264/2/3 267/2/3
f 269/2/3 264/2/3 268/2/3
f 273/3/3 269/3/3 268/3/3
f 274/3/3 269/3/3 273/3/3
f 275/4/3 271/4/3 270/4/3
f 276/3/3 272/3/3 271/3/3
f 276/4/3 271/4/3 275/4/3
f 277/2/3 273/2/3 272/2/3
f 277/3/3 272/3/3 276/3/3
f 277/2/3 274/2/3 273/2/3
f 278/2/3 274/2/3 277/2/3
f 281/2/3 280/2/3 279/2/3
f 282/2/3 280/2/3 281/2/3
f 283/2/3 280/2/3 282/2/3
f 285/1/3 284/1/3 283/1/3
f 285/1/3 283/1/3 282/1/3
f 286/1/3 284/1/3 285/1/3
f 290/1/3 288/1/3 287/1/3
f 291/1/3 288/1/3 290/1/3
f 292/1/3 288/1/3 291/1/3
f 293/2/3 290/2/3 289/2/3
f 293/2/3 291/2/3 290/2/3
f 294/2/3 291/2/3 293/2/3
f 297/1/3 296/1/3 295/1/3
f 298/1/3 296/1/3 297/1/3
f 299/1/3 296/1/3 298/1/3
f 303/1/3 301/1/3 300/1/3
f 303/1/3 302/1/3 301/1/3
f 304/1/3 302/1/3 303/1/3
f 307/1/3 306/1/3 305/1/3
f 308/1/3 306/1/3 307/1/3
f 309/1/3 307/1/3 305/1/3
f 310/1/3 307/1/3 309/1/3
f 313/1/3 312/1/3 311/1/3
f 315/1/3 313/1/3 311/1/3
f 315/1/3 314/1/3 313/1/3
f 316/1/3 314/1/3 315/1/3
f 319/1/3 318/1/3 317/1/3
f 320/1/3 318/1/3 319/1/3
f 323/1/3 322/1/3 321/1/3
f 324/1/3 322/1/3 323/1/3
f 329/1/3 326/1/3 325/1/3
f 330/1/3 326/1/3 329/1/3
f 331/1/3 328/1/3 327/1/3
f 332/1/3 328/1/3 331/1/3
f 337/1/3 334/1/3 333/1/3
f 338/1/3 334/1/3 337/1/3
f 339/1/3 336/1/3 335/1/3
f 340/1/3 336/1/3 339/1/3
f 345/4/3 342/4/3 341/4/3
f 346/3/3 343/3/3 342/3/3
f 346/4/3 342/4/3 345/4/3
f 347/2/3 344/2/3 343/2/3
f 347/3/3 343/3/3 346/3/3
f 348/2/3 344/2/3 347/2/3
f 353/4/3 350/4/3 349/4/3
f 354/3/3 351/3/3 350/3/3
f 354/4/3 350/4/3 353/4/3
f 355/2/3 352/2/3 351/2/3
f 355/3/3 351/3/3 354/3/3
f 356/2/3 352/2/3 355/2/3
f 357/1/4 358/1/4 359/1/4
f 359/1/4 358/1/4 360/1/4
f 361/1/4 362/1/4 363/1/4
f 363/1/4 362/1/4 364/1/4
f 365/4/4 366/4/4 369/4/4
f 366/3/4 367/3/4 370/3/4
f 369/4/4 366/4/4 370/4/4
f 367/2/4 368/2/4 371/2/4
f 370/3/4 367/3/4 371/3/4
f 371/2/4 368/2/4 372/2/4
f 373/4/4 374/4/4 377/4/4
f 374/3/4 375/3/4 378/3/4
f 377/4/4 374/4/4 378/4/4
f 375/2/4 376/2/4 379/2/4
f 378/3/4 375/3/4 379/3/4
f 379/2/4 376/2/4 380/2/4
f 381/2/4 382/2/4 383/2/4
f 383/2/4 382/2/4 384/2/4
f 384/2/4 382/2/4 385/2/4
f 385/1/4 386/1/4 387/1/4
f 384/1/4 385/1/4 387/1/4
f 387/1/4 386/1/4 388/1/4
f 389/1/4 390/1/4 392/1/4
f 392/1/4 390/1/4 393/1/4
f 393/1/4 390/1/4 394/1/4
f 391/2/4 392/2/4 395/2/4
f 392/2/4 393/2/4 395/2/4
f 395/2/4 393/2/4 396/2/4
f 397/1/4 398/1/4 401/1/4
f 397/1/4 401/1/4 402/1/4
f 402/1/4 401/1/4 403/1/4
f 399/2/4 400/2/4 406/2/4
f 406/2/4 400/2/4 407/2/4
f 404/1/4 405/1/4 408/1/4
f 404/1/4 408/1/4 409/1/4
f 409/1/4 408/1/4 410/1/4
f 411/1/4 412/1/4 413/1/4
f 413/1/4 412/1/4 414/1/4
f 414/1/4 412/1/4 415/1/4
f 416/1/4 417/1/4 418/1/4
f 418/1/4 417/1/4 419/1/4
f 420/1/4 421/1/4 422/1/4
f 422/1/4 421/1/4 423/1/4
f 424/1/4 425/1/4 427/1/4
f 425/1/4 426/1/4 427/1/4
f 427/1/4 426/1/4 428/1/4
f 429/1/4 430/1/4 431/1/4
f 431/1/4 430/1/4 432/1/4
f 433/1/4 434/1/4 435/1/4
f 435/1/4 434/1/4 436/1/4
f 437/1/4 438/1/4 439/1/4
f 439/1/4 438/1/4 440/1/4
f 441/1/4 442/1/4 443/1/4
f 443/1/4 442/1/4 444/1/4
f 445/4/4 446/4/4 449/4/4
f 446/3/4 447/3/4 450/3/4
f 449/4/4 446/4/4 450/4/4
f 447/2/4 448/2/4 451/2/4
f 450/3/4 447/3/4 451/3/4
f 451/2/4 448/2/4 452/2/4
f 452/2/4 448/2/4 453/2/4
f 452/3/4 453/3/4 457/3/4
f 457/3/4 453/3/4 458/3/4
f 454/4/4 455/4/4 459/4/4
f 455/3/4 456/3/4 460/3/4
f 459/4/4 455/4/4 460/4/4
f 456/2/4 457/2/4 461/2/4
f 460/3/4 456/3/4 461/3/4
f 457/2/4 458/2/4 461/2/4
f 461/2/4 458/2/4 462/2/4
f 463/2/4 464/2/4 465/2/4
f 465/2/4 464/2/4 466/2/4
f 466/2/4 464/2/4 468/2/4
f 467/2/4 468/2/4 469/2/4
f 468/2/4 464/2/4 470/2/4
f 469/2/4 468/2/4 470/2/4
f 471/2/4 472/2/4 473/2/4
f 473/2/4 472/2/4 474/2/4
f 479/4/5 476/4/5 475/4/5
f 480/4/5 476/4/5 479/4/5
f 481/4/5 478/4/5 477/4/5
f 482/4/5 478/4/5 481/4/5
f 487/4/5 484/4/5 483/4/5
f 488/4/5 484/4/5 487/4/5
f 489/4/5 486/4/5 485/4/5
f 490/4/5 486/4/5 489/4/5
f 494/3/5 492/3/5 491/3/5
f 495/3/5 492/3/5 494/3/5
f 497/2/5 494/2/5 493/2/5
f 498/3/5 495/3/5 494/3/5
f 498/2/5 494/2/5 497/2/5
f 499/2/5 496/2/5 495/2/5
f 499/3/5 495/3/5 498/3/5
f 500/2/5 496/2/5 499/2/5
f 501/3/5 499/3/5 498/3/5
f 502/3/5 499/3/5 501/3/5
f 507/2/5 504/2/5 503/2/5
f 508/3/5 505/3/5 504/3/5
f 508/2/5 504/2/5 507/2/5
f 509/2/5 506/2/5 505/2/5
f 509/3/5 505/3/5 508/3/5
f 510/2/5 506/2/5 509/2/5
f 511/2/5 509/2/5 508/2/5
f 512/2/5 509/2/5 511/2/5
f 515/4/5 514/4/5 513/4/5
f 516/4/5 514/4/5 515/4/5
f 518/3/5 516/3/5 515/3/5
f 519/3/5 516/3/5 518/3/5
f 521/2/5 518/2/5 517/2/5
f 522/3/5 519/3/5 518/3/5
f 522/2/5 518/2/5 521/2/5
f 523/2/5 520/2/5 519/2/5
f 523/3/5 519/3/5 522/3/5
f 524/2/5 520/2/5 523/2/5
f 529/2/5 526/2/5 525/2/5
f 530/2/5 526/2/5 529/2/5
f 531/2/5 528/2/5 527/2/5
f 532/2/5 528/2/5 531/2/5
f 537/1/5 534/1/5 533/1/5
f 538/1/5 534/1/5 537/1/5
f 539/1/5 536/1/5 535/1/5
f 540/1/5 536/1/5 539/1/5
f 547/1/5 542/1/5 541/1/5
f 547/1/5 543/1/5 542/1/5
f 548/1/5 543/1/5 547/1/5
f 549/1/5 545/1/5 544/1/5
f 549/1/5 546/1/5 545/1/5
f 550/1/5 546/1/5 549/1/5
f 557/1/5 552/1/5 551/1/5
f 557/1/5 553/1/5 552/1/5
f 558/1/5 553/1/5 557/1/5
f 559/1/5 553/1/5 558/1/5
f 560/1/5 553/1/5 559/1/5
f 561/1/5 556/1/5 555/1/5
f 561/1/5 555/1/5 554/1/5
f 562/1/5 556/1/5 561/1/5
f 563/1/5 556/1/5 562/1/5
f 564/1/5 556/1/5 563/1/5
f 565/1/5 559/1/5 558/1/5
f 566/1/5 559/1/5 565/1/5
f 567/1/5 563/1/5 562/1/5
f 568/1/5 563/1/5 567/1/5
f 573/1/5 570/1/5 569/1/5
f 574/1/5 570/1/5 573/1/5
f 575/1/5 572/1/5 571/1/5
f 576/1/5 572/1/5 575/1/5
f 577/2/6 578/2/6 579/2/6
f 579/2/6 578/2/6 580/2/6
f 581/2/6 582/2/6 583/2/6
f 583/2/6 582/2/6 584/2/6
f 585/4/6 586/4/6 587/4/6
f 587/4/6 586/4/6 588/4/6
f 587/3/6 588/3/6 589/3/6
f 589/3/6 588/3/6 590/3/6
f 591/2/6 592/2/6 593/2/6
f 593/2/6 592/2/6 594/2/6
f 594/2/6 592/2/6 595/2/6
f 595/2/6 592/2/6 596/2/6
f 594/2/6 595/2/6 598/2/6
f 598/2/6 595/2/6 599/2/6
f 597/2/6 598/2/6 601/2/6
f 599/2/6 600/2/6 601/2/6
f 598/2/6 599/2/6 601/2/6
f 601/2/6 600/2/6 602/2/6
f 603/2/6 604/2/6 607/2/6
f 607/2/6 604/2/6 608/2/6
f 605/2/6 606/2/6 609/2/6
f 609/2/6 606/2/6 610/2/6
f 611/1/6 612/1/6 615/1/6
f 613/1/6 614/1/6 616/1/6
f 615/1/6 612/1/6 617/1/6
f 617/1/6 612/1/6 618/1/6
f 613/1/6 616/1/6 619/1/6
f 619/1/6 616/1/6 620/1/6
f 621/1/6 622/1/6 625/1/6
f 625/1/6 622/1/6 626/1/6
f 623/1/6 624/1/6 627/1/6
f 627/1/6 624/1/6 628/1/6
f 629/1/6 630/1/6 634/1/6
f 631/1/6 632/1/6 635/1/6
f 633/1/6 634/1/6 637/1/6
f 634/1/6 630/1/6 638/1/6
f 637/1/6 634/1/6 638/1/6
f 638/1/6 630/1/6 639/1/6
f 635/1/6 636/1/6 640/1/6
f 631/1/6 635/1/6 640/1/6
f 640/1/6 636/1/6 641/1/6
f 641/1/6 636/1/6 642/1/6
f 637/1/6 638/1/6 643/1/6
f 643/1/6 638/1/6 644/1/6
f 641/1/6 642/1/6 645/1/6
f 645/1/6 642/1/6 646/1/6
f 647/1/6 648/1/6 651/1/6
f 651/1/6 648/1/6 652/1/6
f 649/1/6 650/1/6 653/1/6
f 653/1/6 650/1/6 654/1/6
f 655/1/6 656/1/6 659/1/6
f 659/1/6 656/1/6 660/1/6
f 657/1/6 658/1/6 661/1/6
f 661/1/6 658/1/6 662/1/6
f 663/1/6 664/1/6 667/1/6
f 667/1/6 664/1/6 668/1/6
f 665/1/6 666/1/6 669/1/6
f 669/1/6 666/1/6 670/1/6
f 671/1/6 672/1/6 675/1/6
f 675/1/6 672/1/6 676/1/6
f 673/1/6 674/1/6 677/1/6
f 677/1/6 674/1/6 678/1/6
