# MagicaVoxel @ Ephtracy

# material
mtllib fish.mtl
usemtl palette

# normals
vn -1 0 0
vn 1 0 0
vn 0 0 1
vn 0 0 -1
vn 0 -1 0
vn 0 1 0

# texcoords
vt 0.00195313 0.5
vt 0.279297 0.5
vt 0.306641 0.5
vt 0.876953 0.5
vt 0.896484 0.5
vt 0.908203 0.5
vt 0.916016 0.5
vt 0.966797 0.5

# verts
v -8 7 5
v -8 7 -3
v -8 8 5
v -8 8 -3
v -6 7 6
v -6 7 5
v -6 7 -3
v -6 7 -4
v -6 8 6
v -6 8 5
v -6 8 -3
v -6 8 -4
v -6 9 5
v -6 9 -3
v -5 5 7
v -5 5 -7
v -5 6 9
v -5 6 7
v -5 6 -7
v -5 6 -8
v -5 7 9
v -5 7 6
v -5 7 -4
v -5 7 -8
v -5 8 9
v -5 8 6
v -5 8 5
v -5 8 -4
v -5 8 -7
v -5 9 5
v -5 9 -3
v -5 9 -5
v -5 9 -6
v -5 9 -7
v -5 10 9
v -5 10 -3
v -5 10 -4
v -5 10 -5
v -5 10 -6
v -5 11 9
v -5 11 -8
v -3 6 15
v -3 6 13
v -3 6 11
v -3 6 9
v -3 6 -8
v -3 6 -9
v -3 7 15
v -3 7 14
v -3 7 11
v -3 7 9
v -3 7 -8
v -3 7 -9
v -3 8 11
v -3 8 9
v -3 8 -3
v -3 8 -4
v -3 8 -8
v -3 8 -9
v -3 9 -8
v -3 9 -9
v -3 10 11
v -3 10 9
v -3 10 -3
v -3 10 -4
v -3 11 15
v -3 11 14
v -3 11 11
v -3 11 9
v -3 11 -5
v -3 12 15
v -3 12 13
v -3 12 9
v -3 12 -5
v -2 5 20
v -2 5 17
v -2 6 20
v -2 6 19
v -2 6 18
v -2 6 17
v -2 6 16
v -2 6 12
v -2 6 11
v -2 7 19
v -2 7 18
v -2 7 17
v -2 7 16
v -2 7 15
v -2 7 14
v -2 7 13
v -2 7 12
v -2 7 11
v -2 8 18
v -2 8 17
v -2 8 16
v -2 8 13
v -2 8 11
v -2 10 18
v -2 10 17
v -2 10 16
v -2 10 13
v -2 10 11
v -2 11 19
v -2 11 18
v -2 11 17
v -2 11 16
v -2 11 15
v -2 11 14
v -2 11 13
v -2 11 11
v -2 11 9
v -2 12 20
v -2 12 19
v -2 12 18
v -2 12 17
v -2 12 16
v -2 12 11
v -2 12 9
v -2 12 7
v -2 12 -1
v -2 12 -5
v -2 13 20
v -2 13 17
v -2 13 9
v -2 13 7
v -2 13 5
v -2 13 1
v -2 13 -1
v -2 13 -5
v -2 14 7
v -2 14 5
v -2 14 1
v -2 14 -1
v -2 15 5
v -2 15 1
v 0 6 14
v 0 6 13
v 0 7 14
v 0 7 13
v 0 11 14
v 0 11 13
v 0 12 14
v 0 12 13
v 1 7 -7
v 1 7 -8
v 1 8 -7
v 1 8 -8
v -3 7 -7
v -3 7 -8
v -3 8 -7
v -3 8 -8
v -2 6 14
v -2 6 13
v -2 7 14
v -2 7 13
v -2 11 14
v -2 11 13
v -2 12 14
v -2 12 13
v 0 5 20
v 0 5 17
v 0 6 20
v 0 6 19
v 0 6 18
v 0 6 17
v 0 6 16
v 0 6 12
v 0 6 11
v 0 7 19
v 0 7 18
v 0 7 17
v 0 7 16
v 0 7 15
v 0 7 14
v 0 7 13
v 0 7 12
v 0 7 11
v 0 8 18
v 0 8 17
v 0 8 16
v 0 8 13
v 0 8 11
v 0 10 18
v 0 10 17
v 0 10 16
v 0 10 13
v 0 10 11
v 0 11 19
v 0 11 18
v 0 11 17
v 0 11 16
v 0 11 15
v 0 11 14
v 0 11 13
v 0 11 11
v 0 11 9
v 0 12 20
v 0 12 19
v 0 12 18
v 0 12 17
v 0 12 16
v 0 12 11
v 0 12 9
v 0 12 7
v 0 12 -1
v 0 12 -5
v 0 13 20
v 0 13 17
v 0 13 9
v 0 13 7
v 0 13 5
v 0 13 1
v 0 13 -1
v 0 13 -5
v 0 14 7
v 0 14 5
v 0 14 1
v 0 14 -1
v 0 15 5
v 0 15 1
v 1 6 15
v 1 6 13
v 1 6 11
v 1 6 9
v 1 6 -8
v 1 6 -9
v 1 7 15
v 1 7 14
v 1 7 11
v 1 7 9
v 1 7 -8
v 1 7 -9
v 1 8 11
v 1 8 9
v 1 8 -3
v 1 8 -4
v 1 8 -8
v 1 8 -9
v 1 9 -8
v 1 9 -9
v 1 10 11
v 1 10 9
v 1 10 -3
v 1 10 -4
v 1 11 15
v 1 11 14
v 1 11 11
v 1 11 9
v 1 11 -5
v 1 12 15
v 1 12 13
v 1 12 9
v 1 12 -5
v 3 5 7
v 3 5 -7
v 3 6 9
v 3 6 7
v 3 6 -7
v 3 6 -8
v 3 7 9
v 3 7 6
v 3 7 -4
v 3 7 -8
v 3 8 9
v 3 8 6
v 3 8 5
v 3 8 -4
v 3 8 -7
v 3 9 5
v 3 9 -3
v 3 9 -5
v 3 9 -6
v 3 9 -7
v 3 10 9
v 3 10 -3
v 3 10 -4
v 3 10 -5
v 3 10 -6
v 3 11 9
v 3 11 -8
v 4 7 6
v 4 7 5
v 4 7 -3
v 4 7 -4
v 4 8 6
v 4 8 5
v 4 8 -3
v 4 8 -4
v 4 9 5
v 4 9 -3
v 6 7 5
v 6 7 -3
v 6 8 5
v 6 8 -3
v -2 5 20
v -2 6 20
v -2 12 20
v -2 13 20
v 0 5 20
v 0 6 20
v 0 12 20
v 0 13 20
v -2 6 19
v -2 7 19
v -2 11 19
v -2 12 19
v 0 6 19
v 0 7 19
v 0 11 19
v 0 12 19
v -2 7 18
v -2 8 18
v -2 10 18
v -2 11 18
v 0 7 18
v 0 8 18
v 0 10 18
v 0 11 18
v -2 8 17
v -2 10 17
v 0 8 17
v 0 10 17
v -3 6 15
v -3 7 15
v -3 11 15
v -3 12 15
v -2 7 15
v -2 11 15
v 0 7 15
v 0 11 15
v 1 6 15
v 1 7 15
v 1 11 15
v 1 12 15
v -3 7 14
v -3 11 14
v -2 7 14
v -2 11 14
v 0 7 14
v 0 11 14
v 1 7 14
v 1 11 14
v -2 6 12
v -2 7 12
v 0 6 12
v 0 7 12
v -3 6 11
v -3 7 11
v -3 8 11
v -3 10 11
v -3 11 11
v -2 6 11
v -2 7 11
v -2 8 11
v -2 10 11
v -2 11 11
v -2 12 11
v 0 6 11
v 0 7 11
v 0 8 11
v 0 10 11
v 0 11 11
v 0 12 11
v 1 6 11
v 1 7 11
v 1 8 11
v 1 10 11
v 1 11 11
v -5 6 9
v -5 7 9
v -5 8 9
v -5 10 9
v -5 11 9
v -3 6 9
v -3 7 9
v -3 8 9
v -3 10 9
v -3 11 9
v -3 12 9
v -2 11 9
v -2 12 9
v -2 13 9
v 0 11 9
v 0 12 9
v 0 13 9
v 1 6 9
v 1 7 9
v 1 8 9
v 1 10 9
v 1 11 9
v 1 12 9
v 3 6 9
v 3 7 9
v 3 8 9
v 3 10 9
v 3 11 9
v -5 5 7
v -5 6 7
v -2 13 7
v -2 14 7
v 0 13 7
v 0 14 7
v 3 5 7
v 3 6 7
v -6 7 6
v -6 8 6
v -5 7 6
v -5 8 6
v 3 7 6
v 3 8 6
v 4 7 6
v 4 8 6
v -8 7 5
v -8 8 5
v -6 7 5
v -6 8 5
v -6 9 5
v -5 8 5
v -5 9 5
v -2 14 5
v -2 15 5
v 0 14 5
v 0 15 5
v 3 8 5
v 3 9 5
v 4 7 5
v 4 8 5
v 4 9 5
v 6 7 5
v 6 8 5
v -5 8 -4
v -5 10 -4
v -4 8 -4
v -4 10 -4
v -3 8 -4
v -3 10 -4
v 1 8 -4
v 1 10 -4
v 2 8 -4
v 2 10 -4
v 3 8 -4
v 3 10 -4
v -2 5 17
v -2 6 17
v -2 12 17
v -2 13 17
v 0 5 17
v 0 6 17
v 0 12 17
v 0 13 17
v -2 6 16
v -2 7 16
v -2 11 16
v -2 12 16
v 0 6 16
v 0 7 16
v 0 11 16
v 0 12 16
v -2 6 14
v -2 7 14
v -2 11 14
v -2 12 14
v 0 6 14
v 0 7 14
v 0 11 14
v 0 12 14
v -3 6 13
v -3 12 13
v -2 6 13
v -2 7 13
v -2 8 13
v -2 10 13
v -2 11 13
v -2 12 13
v 0 6 13
v 0 7 13
v 0 8 13
v 0 10 13
v 0 11 13
v 0 12 13
v 1 6 13
v 1 12 13
v -2 14 1
v -2 15 1
v 0 14 1
v 0 15 1
v -2 13 -1
v -2 14 -1
v 0 13 -1
v 0 14 -1
v -8 7 -3
v -8 8 -3
v -6 7 -3
v -6 8 -3
v -6 9 -3
v -5 8 -3
v -5 9 -3
v -5 10 -3
v -4 9 -3
v -4 10 -3
v -3 8 -3
v -3 10 -3
v 1 8 -3
v 1 10 -3
v 2 9 -3
v 2 10 -3
v 3 8 -3
v 3 9 -3
v 3 10 -3
v 4 7 -3
v 4 8 -3
v 4 9 -3
v 6 7 -3
v 6 8 -3
v -6 7 -4
v -6 8 -4
v -5 7 -4
v -5 8 -4
v 3 7 -4
v 3 8 -4
v 4 7 -4
v 4 8 -4
v -3 11 -5
v -3 12 -5
v -2 12 -5
v -2 13 -5
v 0 12 -5
v 0 13 -5
v 1 11 -5
v 1 12 -5
v -5 5 -7
v -5 6 -7
v -3 7 -7
v -3 8 -7
v -2 8 -7
v 0 8 -7
v 1 7 -7
v 1 8 -7
v 3 5 -7
v 3 6 -7
v -5 6 -8
v -5 7 -8
v -5 11 -8
v -3 6 -8
v -3 7 -8
v -3 8 -8
v -3 9 -8
v 1 6 -8
v 1 7 -8
v 1 8 -8
v 1 9 -8
v 3 6 -8
v 3 7 -8
v 3 11 -8
v -3 6 -9
v -3 7 -9
v -3 8 -9
v -3 9 -9
v 1 6 -9
v 1 7 -9
v 1 8 -9
v 1 9 -9
v -2 5 20
v 0 5 20
v -2 5 17
v 0 5 17
v -5 5 7
v 3 5 7
v -5 5 -7
v 3 5 -7
v -2 6 17
v 0 6 17
v -2 6 16
v 0 6 16
v -3 6 15
v 1 6 15
v -2 6 14
v 0 6 14
v -3 6 13
v -2 6 13
v 0 6 13
v 1 6 13
v -2 6 12
v 0 6 12
v -3 6 11
v -2 6 11
v 0 6 11
v 1 6 11
v -5 6 9
v -3 6 9
v 1 6 9
v 3 6 9
v -5 6 7
v 3 6 7
v -5 6 -7
v 3 6 -7
v -5 6 -8
v -3 6 -8
v 1 6 -8
v 3 6 -8
v -3 6 -9
v 1 6 -9
v -2 7 16
v 0 7 16
v -2 7 15
v 0 7 15
v -2 7 14
v 0 7 14
v -2 7 13
v 0 7 13
v -2 7 12
v 0 7 12
v -6 7 6
v -5 7 6
v 3 7 6
v 4 7 6
v -8 7 5
v -6 7 5
v 4 7 5
v 6 7 5
v -8 7 -3
v -6 7 -3
v 4 7 -3
v 6 7 -3
v -6 7 -4
v -5 7 -4
v 3 7 -4
v 4 7 -4
v -3 8 -7
v -2 8 -7
v 0 8 -7
v 1 8 -7
v -3 8 -8
v -2 8 -8
v 0 8 -8
v 1 8 -8
v -3 8 -9
v 1 8 -9
v -2 10 18
v 0 10 18
v -2 10 17
v 0 10 17
v -5 10 -3
v -4 10 -3
v -3 10 -3
v 1 10 -3
v 2 10 -3
v 3 10 -3
v -5 10 -4
v -4 10 -4
v -3 10 -4
v 1 10 -4
v 2 10 -4
v 3 10 -4
v -2 11 19
v 0 11 19
v -2 11 18
v 0 11 18
v -3 11 15
v -2 11 15
v 0 11 15
v 1 11 15
v -3 11 14
v -2 11 14
v 0 11 14
v 1 11 14
v -2 12 20
v 0 12 20
v -2 12 19
v 0 12 19
v -2 6 20
v 0 6 20
v -2 6 19
v 0 6 19
v -2 7 19
v 0 7 19
v -2 7 18
v 0 7 18
v -3 7 15
v -2 7 15
v 0 7 15
v 1 7 15
v -3 7 14
v -2 7 14
v 0 7 14
v 1 7 14
v -3 7 -7
v 1 7 -7
v -3 7 -8
v 1 7 -8
v -3 7 -9
v 1 7 -9
v -2 8 18
v 0 8 18
v -2 8 17
v 0 8 17
v -6 8 6
v -5 8 6
v 3 8 6
v 4 8 6
v -8 8 5
v -6 8 5
v -5 8 5
v 3 8 5
v 4 8 5
v 6 8 5
v -8 8 -3
v -6 8 -3
v -5 8 -3
v -3 8 -3
v 1 8 -3
v 3 8 -3
v 4 8 -3
v 6 8 -3
v -6 8 -4
v -5 8 -4
v -4 8 -4
v -3 8 -4
v 1 8 -4
v 2 8 -4
v 3 8 -4
v 4 8 -4
v -6 9 5
v -5 9 5
v 3 9 5
v 4 9 5
v -6 9 -3
v -5 9 -3
v 3 9 -3
v 4 9 -3
v -3 9 -8
v 1 9 -8
v -3 9 -9
v 1 9 -9
v -2 11 16
v 0 11 16
v -2 11 15
v 0 11 15
v -2 11 14
v 0 11 14
v -2 11 13
v 0 11 13
v -3 11 11
v -2 11 11
v 0 11 11
v 1 11 11
v -5 11 9
v -3 11 9
v -2 11 9
v 0 11 9
v 1 11 9
v 3 11 9
v -3 11 -5
v 1 11 -5
v -5 11 -8
v 3 11 -8
v -2 12 17
v 0 12 17
v -2 12 16
v 0 12 16
v -3 12 15
v 1 12 15
v -2 12 14
v 0 12 14
v -3 12 13
v -2 12 13
v 0 12 13
v 1 12 13
v -2 12 11
v 0 12 11
v -3 12 9
v -2 12 9
v 0 12 9
v 1 12 9
v -2 12 7
v 0 12 7
v -2 12 -1
v 0 12 -1
v -3 12 -5
v -2 12 -5
v 0 12 -5
v 1 12 -5
v -2 13 20
v 0 13 20
v -2 13 17
v 0 13 17
v -2 13 9
v 0 13 9
v -2 13 7
v 0 13 7
v -2 13 -1
v 0 13 -1
v -2 13 -5
v 0 13 -5
v -2 14 7
v 0 14 7
v -2 14 5
v 0 14 5
v -2 14 1
v 0 14 1
v -2 14 -1
v 0 14 -1
v -2 15 5
v 0 15 5
v -2 15 1
v 0 15 1

# faces
f 3/6/1 2/6/1 1/6/1
f 4/6/1 2/6/1 3/6/1
f 9/5/1 6/5/1 5/5/1
f 10/5/1 6/5/1 9/5/1
f 11/5/1 8/5/1 7/5/1
f 12/5/1 8/5/1 11/5/1
f 13/5/1 11/5/1 10/5/1
f 14/5/1 11/5/1 13/5/1
f 18/8/1 16/8/1 15/8/1
f 19/8/1 16/8/1 18/8/1
f 21/8/1 18/8/1 17/8/1
f 21/8/1 20/8/1 19/8/1
f 21/8/1 19/8/1 18/8/1
f 22/8/1 20/8/1 21/8/1
f 23/8/1 20/8/1 22/8/1
f 24/8/1 20/8/1 23/8/1
f 25/6/1 22/6/1 21/6/1
f 26/6/1 22/6/1 25/6/1
f 28/6/1 24/6/1 23/6/1
f 29/6/1 24/6/1 28/6/1
f 30/5/1 27/5/1 26/5/1
f 30/5/1 26/5/1 25/5/1
f 32/5/1 29/5/1 28/5/1
f 33/5/1 29/5/1 32/5/1
f 34/6/1 24/6/1 29/6/1
f 34/5/1 29/5/1 33/5/1
f 35/5/1 31/5/1 30/5/1
f 35/5/1 30/5/1 25/5/1
f 36/5/1 31/5/1 35/5/1
f 37/5/1 32/5/1 28/5/1
f 38/4/1 33/4/1 32/4/1
f 38/5/1 32/5/1 37/5/1
f 39/6/1 34/6/1 33/6/1
f 39/4/1 33/4/1 38/4/1
f 40/6/1 37/6/1 36/6/1
f 40/6/1 38/6/1 37/6/1
f 40/6/1 39/6/1 38/6/1
f 40/6/1 36/6/1 35/6/1
f 41/6/1 34/6/1 39/6/1
f 41/6/1 39/6/1 40/6/1
f 41/6/1 24/6/1 34/6/1
f 48/6/1 43/6/1 42/6/1
f 49/6/1 43/6/1 48/6/1
f 50/8/1 45/8/1 44/8/1
f 51/8/1 45/8/1 50/8/1
f 52/1/1 47/1/1 46/1/1
f 53/1/1 47/1/1 52/1/1
f 54/6/1 51/6/1 50/6/1
f 55/6/1 51/6/1 54/6/1
f 60/1/1 59/1/1 58/1/1
f 61/1/1 59/1/1 60/1/1
f 62/5/1 55/5/1 54/5/1
f 63/5/1 55/5/1 62/5/1
f 64/7/1 57/7/1 56/7/1
f 65/7/1 57/7/1 64/7/1
f 67/6/1 43/6/1 49/6/1
f 68/6/1 63/6/1 62/6/1
f 69/6/1 63/6/1 68/6/1
f 71/6/1 67/6/1 66/6/1
f 72/6/1 43/6/1 67/6/1
f 72/6/1 67/6/1 71/6/1
f 73/6/1 70/6/1 69/6/1
f 74/6/1 70/6/1 73/6/1
f 77/6/1 76/6/1 75/6/1
f 78/6/1 76/6/1 77/6/1
f 79/6/1 76/6/1 78/6/1
f 80/6/1 76/6/1 79/6/1
f 84/6/1 79/6/1 78/6/1
f 85/5/1 80/5/1 79/5/1
f 85/6/1 79/6/1 84/6/1
f 86/6/1 81/6/1 80/6/1
f 86/5/1 80/5/1 85/5/1
f 87/6/1 81/6/1 86/6/1
f 91/8/1 83/8/1 82/8/1
f 92/8/1 83/8/1 91/8/1
f 93/6/1 86/6/1 85/6/1
f 94/5/1 89/5/1 88/5/1
f 94/6/1 86/6/1 93/6/1
f 94/5/1 87/5/1 86/5/1
f 94/5/1 88/5/1 87/5/1
f 95/5/1 89/5/1 94/5/1
f 96/6/1 92/6/1 91/6/1
f 96/6/1 91/6/1 90/6/1
f 97/6/1 92/6/1 96/6/1
f 99/6/1 95/6/1 94/6/1
f 100/5/1 89/5/1 95/5/1
f 100/6/1 95/6/1 99/6/1
f 101/5/1 97/5/1 96/5/1
f 102/5/1 97/5/1 101/5/1
f 104/6/1 99/6/1 98/6/1
f 105/5/1 100/5/1 99/5/1
f 105/6/1 99/6/1 104/6/1
f 106/5/1 89/5/1 100/5/1
f 106/5/1 100/5/1 105/5/1
f 107/5/1 89/5/1 106/5/1
f 108/5/1 89/5/1 107/5/1
f 109/6/1 102/6/1 101/6/1
f 110/6/1 102/6/1 109/6/1
f 113/6/1 104/6/1 103/6/1
f 114/5/1 105/5/1 104/5/1
f 114/6/1 104/6/1 113/6/1
f 115/6/1 106/6/1 105/6/1
f 115/5/1 105/5/1 114/5/1
f 116/6/1 106/6/1 115/6/1
f 117/6/1 111/6/1 110/6/1
f 118/6/1 111/6/1 117/6/1
f 122/6/1 113/6/1 112/6/1
f 122/6/1 114/6/1 113/6/1
f 122/6/1 115/6/1 114/6/1
f 123/6/1 115/6/1 122/6/1
f 124/6/1 119/6/1 118/6/1
f 125/5/1 120/5/1 119/5/1
f 125/6/1 119/6/1 124/6/1
f 126/5/1 120/5/1 125/5/1
f 127/5/1 120/5/1 126/5/1
f 128/6/1 121/6/1 120/6/1
f 128/5/1 120/5/1 127/5/1
f 129/6/1 121/6/1 128/6/1
f 130/6/1 126/6/1 125/6/1
f 131/5/1 127/5/1 126/5/1
f 131/6/1 126/6/1 130/6/1
f 132/6/1 128/6/1 127/6/1
f 132/5/1 127/5/1 131/5/1
f 133/6/1 128/6/1 132/6/1
f 134/6/1 132/6/1 131/6/1
f 135/6/1 132/6/1 134/6/1
f 138/6/1 137/6/1 136/6/1
f 139/6/1 137/6/1 138/6/1
f 142/6/1 141/6/1 140/6/1
f 143/6/1 141/6/1 142/6/1
f 146/6/1 145/6/1 144/6/1
f 147/6/1 145/6/1 146/6/1
f 148/6/2 149/6/2 150/6/2
f 150/6/2 149/6/2 151/6/2
f 152/6/2 153/6/2 154/6/2
f 154/6/2 153/6/2 155/6/2
f 156/6/2 157/6/2 158/6/2
f 158/6/2 157/6/2 159/6/2
f 160/6/2 161/6/2 162/6/2
f 162/6/2 161/6/2 163/6/2
f 163/6/2 161/6/2 164/6/2
f 164/6/2 161/6/2 165/6/2
f 163/6/2 164/6/2 169/6/2
f 164/5/2 165/5/2 170/5/2
f 169/6/2 164/6/2 170/6/2
f 165/6/2 166/6/2 171/6/2
f 170/5/2 165/5/2 171/5/2
f 171/6/2 166/6/2 172/6/2
f 167/8/2 168/8/2 176/8/2
f 176/8/2 168/8/2 177/8/2
f 170/6/2 171/6/2 178/6/2
f 173/5/2 174/5/2 179/5/2
f 178/6/2 171/6/2 179/6/2
f 171/5/2 172/5/2 179/5/2
f 172/5/2 173/5/2 179/5/2
f 179/5/2 174/5/2 180/5/2
f 176/6/2 177/6/2 181/6/2
f 175/6/2 176/6/2 181/6/2
f 181/6/2 177/6/2 182/6/2
f 179/6/2 180/6/2 184/6/2
f 180/5/2 174/5/2 185/5/2
f 184/6/2 180/6/2 185/6/2
f 181/5/2 182/5/2 186/5/2
f 186/5/2 182/5/2 187/5/2
f 183/6/2 184/6/2 189/6/2
f 184/5/2 185/5/2 190/5/2
f 189/6/2 184/6/2 190/6/2
f 185/5/2 174/5/2 191/5/2
f 190/5/2 185/5/2 191/5/2
f 191/5/2 174/5/2 192/5/2
f 192/5/2 174/5/2 193/5/2
f 186/6/2 187/6/2 194/6/2
f 194/6/2 187/6/2 195/6/2
f 188/6/2 189/6/2 198/6/2
f 189/5/2 190/5/2 199/5/2
f 198/6/2 189/6/2 199/6/2
f 190/6/2 191/6/2 200/6/2
f 199/5/2 190/5/2 200/5/2
f 200/6/2 191/6/2 201/6/2
f 195/6/2 196/6/2 202/6/2
f 202/6/2 196/6/2 203/6/2
f 197/6/2 198/6/2 207/6/2
f 198/6/2 199/6/2 207/6/2
f 199/6/2 200/6/2 207/6/2
f 207/6/2 200/6/2 208/6/2
f 203/6/2 204/6/2 209/6/2
f 204/5/2 205/5/2 210/5/2
f 209/6/2 204/6/2 210/6/2
f 210/5/2 205/5/2 211/5/2
f 211/5/2 205/5/2 212/5/2
f 205/6/2 206/6/2 213/6/2
f 212/5/2 205/5/2 213/5/2
f 213/6/2 206/6/2 214/6/2
f 210/6/2 211/6/2 215/6/2
f 211/5/2 212/5/2 216/5/2
f 215/6/2 211/6/2 216/6/2
f 212/6/2 213/6/2 217/6/2
f 216/5/2 212/5/2 217/5/2
f 217/6/2 213/6/2 218/6/2
f 216/6/2 217/6/2 219/6/2
f 219/6/2 217/6/2 220/6/2
f 221/6/2 222/6/2 227/6/2
f 227/6/2 222/6/2 228/6/2
f 223/8/2 224/8/2 229/8/2
f 229/8/2 224/8/2 230/8/2
f 225/1/2 226/1/2 231/1/2
f 231/1/2 226/1/2 232/1/2
f 229/6/2 230/6/2 233/6/2
f 233/6/2 230/6/2 234/6/2
f 237/1/2 238/1/2 239/1/2
f 239/1/2 238/1/2 240/1/2
f 233/5/2 234/5/2 241/5/2
f 241/5/2 234/5/2 242/5/2
f 235/7/2 236/7/2 243/7/2
f 243/7/2 236/7/2 244/7/2
f 228/6/2 222/6/2 246/6/2
f 241/6/2 242/6/2 247/6/2
f 247/6/2 242/6/2 248/6/2
f 245/6/2 246/6/2 250/6/2
f 246/6/2 222/6/2 251/6/2
f 250/6/2 246/6/2 251/6/2
f 248/6/2 249/6/2 252/6/2
f 252/6/2 249/6/2 253/6/2
f 254/8/2 255/8/2 257/8/2
f 257/8/2 255/8/2 258/8/2
f 256/8/2 257/8/2 260/8/2
f 258/8/2 259/8/2 260/8/2
f 257/8/2 258/8/2 260/8/2
f 260/8/2 259/8/2 261/8/2
f 261/8/2 259/8/2 262/8/2
f 262/8/2 259/8/2 263/8/2
f 260/6/2 261/6/2 264/6/2
f 264/6/2 261/6/2 265/6/2
f 262/6/2 263/6/2 267/6/2
f 267/6/2 263/6/2 268/6/2
f 265/5/2 266/5/2 269/5/2
f 264/5/2 265/5/2 269/5/2
f 267/5/2 268/5/2 271/5/2
f 271/5/2 268/5/2 272/5/2
f 268/6/2 263/6/2 273/6/2
f 272/5/2 268/5/2 273/5/2
f 269/5/2 270/5/2 274/5/2
f 264/5/2 269/5/2 274/5/2
f 274/5/2 270/5/2 275/5/2
f 267/5/2 271/5/2 276/5/2
f 271/4/2 272/4/2 277/4/2
f 276/5/2 271/5/2 277/5/2
f 272/6/2 273/6/2 278/6/2
f 277/4/2 272/4/2 278/4/2
f 275/6/2 276/6/2 279/6/2
f 276/6/2 277/6/2 279/6/2
f 277/6/2 278/6/2 279/6/2
f 274/6/2 275/6/2 279/6/2
f 278/6/2 273/6/2 280/6/2
f 279/6/2 278/6/2 280/6/2
f 273/6/2 263/6/2 280/6/2
f 281/5/2 282/5/2 285/5/2
f 285/5/2 282/5/2 286/5/2
f 283/5/2 284/5/2 287/5/2
f 287/5/2 284/5/2 288/5/2
f 286/5/2 287/5/2 289/5/2
f 289/5/2 287/5/2 290/5/2
f 291/6/2 292/6/2 293/6/2
f 293/6/2 292/6/2 294/6/2
f 299/6/3 296/6/3 295/6/3
f 300/6/3 296/6/3 299/6/3
f 301/6/3 298/6/3 297/6/3
f 302/6/3 298/6/3 301/6/3
f 307/6/3 304/6/3 303/6/3
f 308/6/3 304/6/3 307/6/3
f 309/6/3 306/6/3 305/6/3
f 310/6/3 306/6/3 309/6/3
f 315/6/3 312/6/3 311/6/3
f 316/6/3 312/6/3 315/6/3
f 317/6/3 314/6/3 313/6/3
f 318/6/3 314/6/3 317/6/3
f 321/6/3 320/6/3 319/6/3
f 322/6/3 320/6/3 321/6/3
f 327/6/3 324/6/3 323/6/3
f 328/6/3 326/6/3 325/6/3
f 329/6/3 327/6/3 323/6/3
f 330/6/3 326/6/3 328/6/3
f 331/6/3 329/6/3 323/6/3
f 332/6/3 329/6/3 331/6/3
f 333/6/3 326/6/3 330/6/3
f 334/6/3 326/6/3 333/6/3
f 337/6/3 336/6/3 335/6/3
f 338/6/3 336/6/3 337/6/3
f 341/6/3 340/6/3 339/6/3
f 342/6/3 340/6/3 341/6/3
f 345/8/3 344/8/3 343/8/3
f 346/8/3 344/8/3 345/8/3
f 352/8/3 348/8/3 347/8/3
f 353/6/3 349/6/3 348/6/3
f 353/8/3 348/8/3 352/8/3
f 354/5/3 350/5/3 349/5/3
f 354/6/3 349/6/3 353/6/3
f 355/6/3 351/6/3 350/6/3
f 355/5/3 350/5/3 354/5/3
f 356/6/3 351/6/3 355/6/3
f 362/6/3 357/6/3 356/6/3
f 363/6/3 357/6/3 362/6/3
f 364/8/3 359/8/3 358/8/3
f 365/6/3 360/6/3 359/6/3
f 365/8/3 359/8/3 364/8/3
f 366/5/3 361/5/3 360/5/3
f 366/6/3 360/6/3 365/6/3
f 367/6/3 362/6/3 361/6/3
f 367/5/3 361/5/3 366/5/3
f 368/6/3 362/6/3 367/6/3
f 374/8/3 370/8/3 369/8/3
f 375/6/3 371/6/3 370/6/3
f 375/8/3 370/8/3 374/8/3
f 376/5/3 372/5/3 371/5/3
f 376/6/3 371/6/3 375/6/3
f 377/6/3 373/6/3 372/6/3
f 377/5/3 372/5/3 376/5/3
f 378/6/3 373/6/3 377/6/3
f 380/6/3 379/6/3 378/6/3
f 381/6/3 379/6/3 380/6/3
f 384/6/3 382/6/3 381/6/3
f 385/6/3 382/6/3 384/6/3
f 390/6/3 384/6/3 383/6/3
f 391/6/3 384/6/3 390/6/3
f 392/8/3 387/8/3 386/8/3
f 393/6/3 388/6/3 387/6/3
f 393/8/3 387/8/3 392/8/3
f 394/5/3 389/5/3 388/5/3
f 394/6/3 388/6/3 393/6/3
f 395/6/3 390/6/3 389/6/3
f 395/5/3 389/5/3 394/5/3
f 396/6/3 390/6/3 395/6/3
f 401/6/3 400/6/3 399/6/3
f 402/6/3 400/6/3 401/6/3
f 403/8/3 398/8/3 397/8/3
f 404/8/3 398/8/3 403/8/3
f 407/5/3 406/5/3 405/5/3
f 408/5/3 406/5/3 407/5/3
f 411/5/3 410/5/3 409/5/3
f 412/5/3 410/5/3 411/5/3
f 415/6/3 414/6/3 413/6/3
f 416/6/3 414/6/3 415/6/3
f 418/5/3 417/5/3 416/5/3
f 419/5/3 417/5/3 418/5/3
f 422/6/3 421/6/3 420/6/3
f 423/6/3 421/6/3 422/6/3
f 427/5/3 425/5/3 424/5/3
f 428/5/3 425/5/3 427/5/3
f 429/6/3 427/6/3 426/6/3
f 430/6/3 427/6/3 429/6/3
f 433/5/3 432/5/3 431/5/3
f 434/5/3 432/5/3 433/5/3
f 435/7/3 434/7/3 433/7/3
f 436/7/3 434/7/3 435/7/3
f 439/7/3 438/7/3 437/7/3
f 440/7/3 438/7/3 439/7/3
f 441/5/3 440/5/3 439/5/3
f 442/5/3 440/5/3 441/5/3
f 443/6/4 444/6/4 447/6/4
f 447/6/4 444/6/4 448/6/4
f 445/6/4 446/6/4 449/6/4
f 449/6/4 446/6/4 450/6/4
f 451/6/4 452/6/4 455/6/4
f 455/6/4 452/6/4 456/6/4
f 453/6/4 454/6/4 457/6/4
f 457/6/4 454/6/4 458/6/4
f 459/6/4 460/6/4 463/6/4
f 463/6/4 460/6/4 464/6/4
f 461/6/4 462/6/4 465/6/4
f 465/6/4 462/6/4 466/6/4
f 467/6/4 468/6/4 469/6/4
f 469/6/4 468/6/4 470/6/4
f 470/6/4 468/6/4 471/6/4
f 471/6/4 468/6/4 472/6/4
f 472/6/4 468/6/4 473/6/4
f 473/6/4 468/6/4 474/6/4
f 475/6/4 476/6/4 481/6/4
f 479/6/4 480/6/4 481/6/4
f 478/6/4 479/6/4 481/6/4
f 477/6/4 478/6/4 481/6/4
f 476/6/4 477/6/4 481/6/4
f 481/6/4 480/6/4 482/6/4
f 483/6/4 484/6/4 485/6/4
f 485/6/4 484/6/4 486/6/4
f 487/6/4 488/6/4 489/6/4
f 489/6/4 488/6/4 490/6/4
f 491/6/4 492/6/4 493/6/4
f 493/6/4 492/6/4 494/6/4
f 494/5/4 495/5/4 496/5/4
f 496/5/4 495/5/4 497/5/4
f 496/7/4 497/7/4 499/7/4
f 497/5/4 498/5/4 499/5/4
f 499/5/4 498/5/4 500/5/4
f 496/7/4 499/7/4 501/7/4
f 499/7/4 500/7/4 501/7/4
f 501/7/4 500/7/4 502/7/4
f 503/7/4 504/7/4 505/7/4
f 505/7/4 504/7/4 506/7/4
f 503/7/4 505/7/4 507/7/4
f 505/5/4 506/5/4 508/5/4
f 507/7/4 505/7/4 508/7/4
f 508/5/4 506/5/4 509/5/4
f 507/5/4 508/5/4 511/5/4
f 511/5/4 508/5/4 512/5/4
f 510/6/4 511/6/4 513/6/4
f 513/6/4 511/6/4 514/6/4
f 515/5/4 516/5/4 517/5/4
f 517/5/4 516/5/4 518/5/4
f 519/5/4 520/5/4 521/5/4
f 521/5/4 520/5/4 522/5/4
f 523/6/4 524/6/4 525/6/4
f 523/6/4 525/6/4 527/6/4
f 525/6/4 526/6/4 527/6/4
f 527/6/4 526/6/4 528/6/4
f 523/6/4 527/6/4 529/6/4
f 529/6/4 527/6/4 530/6/4
f 533/2/4 534/2/4 535/2/4
f 533/2/4 535/2/4 536/2/4
f 533/2/4 536/2/4 537/2/4
f 537/2/4 536/2/4 538/2/4
f 531/8/4 532/8/4 539/8/4
f 539/8/4 532/8/4 540/8/4
f 541/8/4 542/8/4 544/8/4
f 542/6/4 543/6/4 545/6/4
f 544/8/4 542/8/4 545/8/4
f 545/6/4 543/6/4 546/6/4
f 546/6/4 543/6/4 547/6/4
f 547/6/4 543/6/4 551/6/4
f 548/8/4 549/8/4 552/8/4
f 549/6/4 550/6/4 553/6/4
f 552/8/4 549/8/4 553/8/4
f 550/6/4 551/6/4 553/6/4
f 551/6/4 543/6/4 554/6/4
f 553/6/4 551/6/4 554/6/4
f 555/1/4 556/1/4 559/1/4
f 559/1/4 556/1/4 560/1/4
f 557/1/4 558/1/4 561/1/4
f 561/1/4 558/1/4 562/1/4
f 565/6/5 564/6/5 563/6/5
f 566/6/5 564/6/5 565/6/5
f 569/8/5 568/8/5 567/8/5
f 570/8/5 568/8/5 569/8/5
f 573/6/5 572/6/5 571/6/5
f 574/6/5 572/6/5 573/6/5
f 577/6/5 576/6/5 575/6/5
f 578/6/5 576/6/5 577/6/5
f 579/6/5 577/6/5 575/6/5
f 580/6/5 577/6/5 579/6/5
f 581/6/5 576/6/5 578/6/5
f 582/6/5 576/6/5 581/6/5
f 586/8/5 584/8/5 583/8/5
f 587/8/5 584/8/5 586/8/5
f 590/8/5 586/8/5 585/8/5
f 590/8/5 588/8/5 587/8/5
f 590/8/5 587/8/5 586/8/5
f 591/8/5 588/8/5 590/8/5
f 593/8/5 591/8/5 590/8/5
f 593/8/5 592/8/5 591/8/5
f 593/8/5 590/8/5 589/8/5
f 594/8/5 592/8/5 593/8/5
f 597/8/5 596/8/5 595/8/5
f 598/8/5 596/8/5 597/8/5
f 599/8/5 596/8/5 598/8/5
f 600/8/5 596/8/5 599/8/5
f 601/1/5 599/1/5 598/1/5
f 602/1/5 599/1/5 601/1/5
f 605/5/5 604/5/5 603/5/5
f 606/5/5 604/5/5 605/5/5
f 609/5/5 608/5/5 607/5/5
f 610/5/5 608/5/5 609/5/5
f 611/6/5 610/6/5 609/6/5
f 612/6/5 610/6/5 611/6/5
f 618/5/5 614/5/5 613/5/5
f 619/5/5 616/5/5 615/5/5
f 621/6/5 618/6/5 617/6/5
f 622/5/5 614/5/5 618/5/5
f 622/6/5 618/6/5 621/6/5
f 623/6/5 620/6/5 619/6/5
f 623/5/5 619/5/5 615/5/5
f 624/6/5 620/6/5 623/6/5
f 625/5/5 614/5/5 622/5/5
f 626/5/5 614/5/5 625/5/5
f 627/5/5 623/5/5 615/5/5
f 628/5/5 623/5/5 627/5/5
f 633/5/5 630/5/5 629/5/5
f 634/2/5 631/2/5 630/2/5
f 634/5/5 630/5/5 633/5/5
f 635/5/5 632/5/5 631/5/5
f 635/2/5 631/2/5 634/2/5
f 636/5/5 632/5/5 635/5/5
f 637/1/5 634/1/5 633/1/5
f 637/1/5 635/1/5 634/1/5
f 637/1/5 636/1/5 635/1/5
f 638/1/5 636/1/5 637/1/5
f 641/6/5 640/6/5 639/6/5
f 642/6/5 640/6/5 641/6/5
f 649/6/5 645/6/5 644/6/5
f 649/6/5 644/6/5 643/6/5
f 650/6/5 645/6/5 649/6/5
f 651/6/5 645/6/5 650/6/5
f 652/6/5 648/6/5 647/6/5
f 652/6/5 647/6/5 646/6/5
f 653/6/5 648/6/5 652/6/5
f 654/6/5 648/6/5 653/6/5
f 657/6/5 656/6/5 655/6/5
f 658/6/5 656/6/5 657/6/5
f 663/6/5 660/6/5 659/6/5
f 664/6/5 660/6/5 663/6/5
f 665/6/5 662/6/5 661/6/5
f 666/6/5 662/6/5 665/6/5
f 669/6/5 668/6/5 667/6/5
f 670/6/5 668/6/5 669/6/5
f 671/6/6 672/6/6 673/6/6
f 673/6/6 672/6/6 674/6/6
f 675/6/6 676/6/6 677/6/6
f 677/6/6 676/6/6 678/6/6
f 679/6/6 680/6/6 683/6/6
f 683/6/6 680/6/6 684/6/6
f 681/6/6 682/6/6 685/6/6
f 685/6/6 682/6/6 686/6/6
f 687/8/6 688/8/6 689/8/6
f 689/8/6 688/8/6 690/8/6
f 689/1/6 690/1/6 691/1/6
f 691/1/6 690/1/6 692/1/6
f 693/6/6 694/6/6 695/6/6
f 695/6/6 694/6/6 696/6/6
f 697/5/6 698/5/6 702/5/6
f 702/5/6 698/5/6 703/5/6
f 699/5/6 700/5/6 704/5/6
f 704/5/6 700/5/6 705/5/6
f 701/6/6 702/6/6 707/6/6
f 707/6/6 702/6/6 708/6/6
f 705/6/6 706/6/6 713/6/6
f 713/6/6 706/6/6 714/6/6
f 708/5/6 709/5/6 715/5/6
f 709/7/6 710/7/6 716/7/6
f 715/5/6 709/5/6 716/5/6
f 716/7/6 710/7/6 717/7/6
f 717/7/6 710/7/6 718/7/6
f 711/7/6 712/7/6 719/7/6
f 719/7/6 712/7/6 720/7/6
f 712/5/6 713/5/6 721/5/6
f 720/7/6 712/7/6 721/7/6
f 721/5/6 713/5/6 722/5/6
f 723/5/6 724/5/6 727/5/6
f 727/5/6 724/5/6 728/5/6
f 725/5/6 726/5/6 729/5/6
f 729/5/6 726/5/6 730/5/6
f 731/1/6 732/1/6 733/1/6
f 733/1/6 732/1/6 734/1/6
f 735/5/6 736/5/6 737/5/6
f 737/5/6 736/5/6 738/5/6
f 739/5/6 740/5/6 741/5/6
f 741/5/6 740/5/6 742/5/6
f 741/6/6 742/6/6 744/6/6
f 744/6/6 742/6/6 745/6/6
f 743/6/6 744/6/6 748/6/6
f 748/6/6 744/6/6 749/6/6
f 745/6/6 746/6/6 750/6/6
f 750/6/6 746/6/6 751/6/6
f 747/6/6 748/6/6 753/6/6
f 751/6/6 752/6/6 754/6/6
f 747/6/6 753/6/6 755/6/6
f 753/6/6 754/6/6 755/6/6
f 754/6/6 752/6/6 756/6/6
f 755/6/6 754/6/6 756/6/6
f 757/6/6 758/6/6 759/6/6
f 759/6/6 758/6/6 760/6/6
f 761/6/6 762/6/6 763/6/6
f 763/6/6 762/6/6 764/6/6
f 761/6/6 763/6/6 765/6/6
f 765/6/6 763/6/6 766/6/6
f 764/6/6 762/6/6 767/6/6
f 767/6/6 762/6/6 768/6/6
f 769/6/6 770/6/6 772/6/6
f 772/6/6 770/6/6 773/6/6
f 771/6/6 772/6/6 775/6/6
f 773/6/6 774/6/6 776/6/6
f 771/6/6 775/6/6 777/6/6
f 776/6/6 774/6/6 778/6/6
f 771/6/6 777/6/6 779/6/6
f 779/6/6 777/6/6 780/6/6
f 778/6/6 774/6/6 781/6/6
f 781/6/6 774/6/6 782/6/6
f 783/6/6 784/6/6 785/6/6
f 785/6/6 784/6/6 786/6/6
f 787/6/6 788/6/6 789/6/6
f 789/6/6 788/6/6 790/6/6
f 791/6/6 792/6/6 793/6/6
f 793/6/6 792/6/6 794/6/6
f 795/6/6 796/6/6 797/6/6
f 797/6/6 796/6/6 798/6/6
f 799/6/6 800/6/6 801/6/6
f 801/6/6 800/6/6 802/6/6
f 803/6/6 804/6/6 805/6/6
f 805/6/6 804/6/6 806/6/6
