# Blender v2.78 (sub 0) OBJ File: ''
# www.blender.org
mtllib Log.mtl
o Log.003
v -0.989743 1.999999 -9.380327
v -0.989743 -0.000001 -9.380327
v -1.989743 -0.000001 -9.380327
v 1.010257 1.999999 -9.380327
v 2.010257 -0.000001 -9.380327
v 1.010257 -0.000001 -9.380327
v -1.989743 2.999999 -9.380327
v 2.010257 3.000000 -9.380327
v -1.989743 -0.000001 10.619673
v -0.989743 -0.000001 10.619673
v -0.989744 1.999999 10.619673
v 1.010257 -0.000001 10.619673
v 2.010257 -0.000001 10.619673
v 1.010256 1.999999 10.619673
v -1.989744 2.999999 10.619673
v 2.010256 3.000000 10.619673
v -1.989743 -0.000001 -8.380327
v -1.989743 2.999999 -9.380327
v -1.989743 -0.000001 -9.380327
v -1.989743 2.999999 -8.380327
v -1.989743 1.999999 -7.380328
v -1.989743 2.999999 -7.380328
v -1.989743 1.999999 -4.380328
v -1.989743 2.999999 -4.380328
v -1.989743 0.999999 -3.380328
v -1.989743 1.999999 -3.380328
v -1.989743 0.999999 -0.380328
v -1.989743 1.999999 -0.380328
v -1.989743 0.999999 1.619672
v -1.989743 2.999999 1.619672
v -1.989743 0.999999 2.619672
v -1.989743 2.999999 2.619672
v -1.989743 1.999999 4.619672
v -1.989744 2.999999 4.619672
v -1.989743 1.999999 6.619672
v -1.989744 2.999999 6.619672
v -1.989743 -0.000001 9.619673
v -1.989744 2.999999 9.619673
v -1.989743 -0.000001 10.619673
v -1.989744 2.999999 10.619673
v 1.010257 -0.000001 -8.380327
v 1.010257 1.999999 -9.380327
v 1.010257 -0.000001 -9.380327
v 1.010257 1.999999 -8.380327
v 1.010257 0.999999 -6.380328
v 1.010257 1.999999 -6.380328
v 1.010257 1.999999 -4.380328
v 1.010257 0.999999 -3.380328
v 1.010257 1.999999 -3.380328
v 1.010257 1.999999 -1.380328
v 1.010257 1.999999 2.619672
v 1.010257 0.999999 4.619672
v 1.010257 1.999999 4.619672
v 1.010257 0.999999 5.619672
v 1.010257 1.999999 5.619672
v 1.010256 1.999999 8.619673
v 1.010257 -0.000001 9.619673
v 1.010256 1.999999 9.619673
v 1.010257 -0.000001 10.619673
v 1.010256 1.999999 10.619673
v -0.989743 -0.000001 -9.380327
v -0.989743 1.999999 -9.380327
v -0.989743 -0.000001 -8.380327
v -0.989743 1.999999 -8.380327
v -0.989743 1.999999 -7.380328
v -0.989743 0.999999 -3.380328
v -0.989743 1.999999 -3.380328
v -0.989743 0.999999 -0.380328
v -0.989743 1.999999 -0.380328
v -0.989743 1.999999 0.619672
v -0.989743 0.999999 1.619672
v -0.989743 1.999999 1.619672
v -0.989743 0.999999 2.619672
v -0.989743 1.999999 2.619672
v -0.989743 1.999999 3.619672
v -0.989744 1.999999 5.619672
v -0.989743 -0.000001 9.619673
v -0.989744 1.999999 9.619673
v -0.989743 -0.000001 10.619673
v -0.989744 1.999999 10.619673
v 2.010257 -0.000001 -9.380327
v 2.010257 3.000000 -9.380327
v 2.010257 -0.000001 -8.380327
v 2.010257 3.000000 -8.380327
v 2.010257 0.999999 -6.380328
v 2.010257 3.000000 -6.380328
v 2.010257 1.999999 -4.380328
v 2.010257 3.000000 -4.380328
v 2.010257 0.999999 -3.380328
v 2.010257 1.999999 -3.380328
v 2.010257 1.999999 -1.380328
v 2.010257 3.000000 -1.380328
v 2.010257 1.999999 1.619672
v 2.010257 3.000000 1.619672
v 2.010257 0.999999 4.619672
v 2.010256 3.000000 4.619672
v 2.010257 0.999999 5.619672
v 2.010257 1.999999 5.619672
v 2.010256 1.999999 7.619672
v 2.010256 3.000000 7.619672
v 2.010257 -0.000001 9.619673
v 2.010256 3.000000 9.619673
v 2.010257 -0.000001 10.619673
v 2.010256 3.000000 10.619673
v -0.989743 -0.000001 -9.380327
v -1.989743 -0.000001 -8.380327
v -1.989743 -0.000001 -9.380327
v -0.989743 -0.000001 -8.380327
v -1.989743 -0.000001 9.619673
v -0.989743 -0.000001 9.619673
v -1.989743 -0.000001 10.619673
v -0.989743 -0.000001 10.619673
v 2.010257 -0.000001 -9.380327
v 1.010257 -0.000001 -8.380327
v 1.010257 -0.000001 -9.380327
v 2.010257 -0.000001 -8.380327
v 1.010257 -0.000001 9.619673
v 2.010257 -0.000001 9.619673
v 1.010257 -0.000001 10.619673
v 2.010257 -0.000001 10.619673
v 0.010257 1.999999 -7.380328
v -0.989743 1.999999 -7.380328
v -0.989743 1.999999 -8.380327
v -0.989743 1.999999 -3.380328
v 0.010257 1.999999 -4.380328
v 0.010257 1.999999 -1.380328
v -0.989743 1.999999 -0.380328
v -0.989743 1.999999 0.619672
v 0.010257 1.999999 0.619672
v -0.989743 1.999999 1.619672
v -0.989743 1.999999 2.619672
v 0.010257 1.999999 3.619672
v -0.989743 1.999999 3.619672
v -0.989744 1.999999 5.619672
v 0.010256 1.999999 5.619672
v -0.989744 1.999999 9.619673
v 0.010256 1.999999 8.619673
v 1.010257 1.999999 -9.380327
v -0.989743 1.999999 -9.380327
v 1.010257 1.999999 -8.380327
v 1.010257 1.999999 -6.380328
v 1.010257 1.999999 -4.380328
v 1.010257 1.999999 -3.380328
v 1.010257 1.999999 -1.380328
v 1.010257 1.999999 2.619672
v 1.010257 1.999999 4.619672
v 1.010257 1.999999 5.619672
v 1.010256 1.999999 8.619673
v 1.010256 1.999999 9.619673
v -0.989744 1.999999 10.619673
v 1.010256 1.999999 10.619673
v -1.989743 2.999999 -7.380328
v -1.989743 2.999999 -4.380328
v -0.989743 2.999999 -4.380328
v -1.989743 2.999999 1.619672
v -0.989743 2.999999 -3.380328
v -0.989744 2.999999 0.619672
v -1.989743 2.999999 2.619672
v -0.989744 2.999999 1.619672
v -1.989744 2.999999 4.619672
v -0.989744 2.999999 3.619672
v -1.989744 2.999999 6.619672
v -0.989744 2.999999 4.619672
v -0.989744 2.999999 5.619672
v -1.989744 2.999999 9.619673
v -0.989744 2.999999 6.619672
v -1.989743 2.999999 -8.380327
v 0.010257 2.999999 -7.380328
v 0.010257 2.999999 -4.380328
v 0.010257 2.999999 -1.380328
v 0.010257 2.999999 0.619672
v 0.010256 2.999999 3.619672
v 0.010256 2.999999 5.619672
v 0.010256 2.999999 8.619673
v 1.010257 2.999999 -6.380328
v 1.010257 2.999999 -4.380328
v 1.010257 2.999999 -3.380328
v 1.010257 2.999999 1.619672
v 1.010256 2.999999 2.619672
v 1.010256 2.999999 4.619672
v 1.010256 2.999999 5.619672
v 1.010256 2.999999 7.619672
v 1.010256 2.999999 8.619673
v -1.989743 2.999999 -9.380327
v 2.010257 3.000000 -9.380327
v 2.010257 3.000000 -8.380327
v 2.010257 3.000000 -6.380328
v 2.010257 3.000000 -4.380328
v 2.010257 3.000000 -1.380328
v 2.010257 3.000000 1.619672
v 2.010256 3.000000 4.619672
v 2.010256 3.000000 7.619672
v 2.010256 3.000000 9.619673
v -1.989744 2.999999 10.619673
v 2.010256 3.000000 10.619673
vt 0.2676 0.5000
vt 0.2676 0.5000
vt 0.2676 0.5000
vt 0.2676 0.5000
vt 0.2676 0.5000
vt 0.2676 0.5000
vt 0.2676 0.5000
vt 0.2676 0.5000
vt 0.2676 0.5000
vt 0.2676 0.5000
vt 0.2676 0.5000
vt 0.2676 0.5000
vt 0.2676 0.5000
vt 0.2676 0.5000
vt 0.2676 0.5000
vt 0.2676 0.5000
vt 0.2676 0.5000
vt 0.2676 0.5000
vt 0.2676 0.5000
vt 0.2676 0.5000
vt 0.2441 0.5000
vt 0.2441 0.5000
vt 0.2441 0.5000
vt 0.2441 0.5000
vt 0.2441 0.5000
vt 0.1816 0.5000
vt 0.1816 0.5000
vt 0.1816 0.5000
vt 0.1816 0.5000
vt 0.2441 0.5000
vt 0.2441 0.5000
vt 0.2441 0.5000
vt 0.2441 0.5000
vt 0.1816 0.5000
vt 0.1816 0.5000
vt 0.1816 0.5000
vt 0.2441 0.5000
vt 0.1816 0.5000
vt 0.2441 0.5000
vt 0.2441 0.5000
vt 0.2441 0.5000
vt 0.1816 0.5000
vt 0.1816 0.5000
vt 0.1816 0.5000
vt 0.1816 0.5000
vt 0.2441 0.5000
vt 0.2441 0.5000
vt 0.2441 0.5000
vt 0.2441 0.5000
vt 0.1816 0.5000
vt 0.1816 0.5000
vt 0.1816 0.5000
vt 0.1816 0.5000
vt 0.2441 0.5000
vt 0.2441 0.5000
vt 0.2441 0.5000
vt 0.2676 0.5000
vt 0.2676 0.5000
vt 0.2676 0.5000
vt 0.2676 0.5000
vt 0.2676 0.5000
vt 0.2676 0.5000
vt 0.2676 0.5000
vt 0.2676 0.5000
vt 0.2441 0.5000
vt 0.2441 0.5000
vt 0.2441 0.5000
vt 0.2441 0.5000
vt 0.1816 0.5000
vt 0.1816 0.5000
vt 0.1816 0.5000
vt 0.2441 0.5000
vt 0.1816 0.5000
vt 0.1816 0.5000
vt 0.2441 0.5000
vt 0.2441 0.5000
vt 0.2441 0.5000
vt 0.2441 0.5000
vt 0.2441 0.5000
vt 0.2441 0.5000
vt 0.1816 0.5000
vt 0.1816 0.5000
vt 0.1816 0.5000
vt 0.1816 0.5000
vt 0.2441 0.5000
vt 0.2441 0.5000
vt 0.2441 0.5000
vt 0.2441 0.5000
vt 0.2676 0.5000
vt 0.2676 0.5000
vt 0.2676 0.5000
vt 0.2676 0.5000
vt 0.2676 0.5000
vt 0.2676 0.5000
vt 0.2676 0.5000
vt 0.2676 0.5000
vt 0.2441 0.5000
vt 0.2441 0.5000
vt 0.2441 0.5000
vt 0.2441 0.5000
vt 0.2441 0.5000
vt 0.2441 0.5000
vt 0.1816 0.5000
vt 0.1816 0.5000
vt 0.1816 0.5000
vt 0.1816 0.5000
vt 0.2441 0.5000
vt 0.2441 0.5000
vt 0.2441 0.5000
vt 0.2441 0.5000
vt 0.2441 0.5000
vt 0.1816 0.5000
vt 0.1816 0.5000
vt 0.1816 0.5000
vt 0.1816 0.5000
vt 0.2441 0.5000
vt 0.2441 0.5000
vt 0.2441 0.5000
vt 0.2441 0.5000
vt 0.2441 0.5000
vt 0.2676 0.5000
vt 0.2676 0.5000
vt 0.2676 0.5000
vt 0.2676 0.5000
vt 0.2676 0.5000
vt 0.2676 0.5000
vt 0.2676 0.5000
vt 0.2676 0.5000
vt 0.2441 0.5000
vt 0.2441 0.5000
vt 0.2441 0.5000
vt 0.2441 0.5000
vt 0.1816 0.5000
vt 0.1816 0.5000
vt 0.1816 0.5000
vt 0.1816 0.5000
vt 0.2441 0.5000
vt 0.1816 0.5000
vt 0.2441 0.5000
vt 0.2441 0.5000
vt 0.2441 0.5000
vt 0.1816 0.5000
vt 0.2441 0.5000
vt 0.2441 0.5000
vt 0.2441 0.5000
vt 0.1816 0.5000
vt 0.1816 0.5000
vt 0.1816 0.5000
vt 0.1816 0.5000
vt 0.2441 0.5000
vt 0.2441 0.5000
vt 0.2441 0.5000
vt 0.2441 0.5000
vt 0.1816 0.5000
vt 0.1816 0.5000
vt 0.1816 0.5000
vt 0.1816 0.5000
vt 0.2441 0.5000
vt 0.2441 0.5000
vt 0.1816 0.5000
vt 0.1816 0.5000
vt 0.2441 0.5000
vt 0.2441 0.5000
vt 0.2441 0.5000
vt 0.2676 0.5000
vt 0.2676 0.5000
vt 0.2676 0.5000
vt 0.2676 0.5000
vt 0.2676 0.5000
vt 0.2676 0.5000
vt 0.2676 0.5000
vt 0.2441 0.5000
vt 0.2441 0.5000
vt 0.2441 0.5000
vt 0.2676 0.5000
vt 0.2676 0.5000
vt 0.2676 0.5000
vt 0.2676 0.5000
vt 0.2441 0.5000
vt 0.2676 0.5000
vt 0.2676 0.5000
vt 0.2676 0.5000
vt 0.2676 0.5000
vt 0.2441 0.5000
vt 0.2441 0.5000
vt 0.2441 0.5000
vt 0.2676 0.5000
vt 0.2676 0.5000
vt 0.2676 0.5000
vt 0.2676 0.5000
vt 0.2441 0.5000
vt 0.2676 0.5000
vt 0.2441 0.5000
vt 0.2441 0.5000
vt 0.2441 0.5000
vt 0.1816 0.5000
vt 0.1816 0.5000
vt 0.1816 0.5000
vt 0.1816 0.5000
vt 0.2441 0.5000
vt 0.2441 0.5000
vt 0.2441 0.5000
vt 0.2441 0.5000
vt 0.1816 0.5000
vt 0.1816 0.5000
vt 0.1816 0.5000
vt 0.2441 0.5000
vt 0.1816 0.5000
vt 0.2441 0.5000
vt 0.2441 0.5000
vt 0.2441 0.5000
vt 0.1816 0.5000
vt 0.1816 0.5000
vt 0.1816 0.5000
vt 0.2441 0.5000
vt 0.2441 0.5000
vt 0.2441 0.5000
vt 0.1816 0.5000
vt 0.2441 0.5000
vt 0.2676 0.5000
vt 0.2676 0.5000
vt 0.2676 0.5000
vt 0.2441 0.5000
vt 0.2441 0.5000
vt 0.2676 0.5000
vt 0.2441 0.5000
vt 0.1816 0.5000
vt 0.2441 0.5000
vt 0.2441 0.5000
vt 0.1816 0.5000
vt 0.1816 0.5000
vt 0.1816 0.5000
vt 0.2441 0.5000
vt 0.2441 0.5000
vt 0.1816 0.5000
vt 0.2441 0.5000
vt 0.1816 0.5000
vt 0.1816 0.5000
vt 0.2441 0.5000
vt 0.2441 0.5000
vt 0.1816 0.5000
vt 0.2676 0.5000
vt 0.2676 0.5000
vt 0.2676 0.5000
vt 0.2441 0.5000
vt 0.2676 0.5000
vt 0.1816 0.5000
vt 0.1816 0.5000
vt 0.1816 0.5000
vt 0.2441 0.5000
vt 0.2441 0.5000
vt 0.2441 0.5000
vt 0.2441 0.5000
vt 0.2441 0.5000
vt 0.1816 0.5000
vt 0.1816 0.5000
vt 0.1816 0.5000
vt 0.2441 0.5000
vt 0.2441 0.5000
vt 0.2441 0.5000
vt 0.2441 0.5000
vt 0.1816 0.5000
vt 0.1816 0.5000
vt 0.1816 0.5000
vt 0.2441 0.5000
vt 0.1816 0.5000
vt 0.2441 0.5000
vt 0.2441 0.5000
vt 0.2441 0.5000
vt 0.1816 0.5000
vt 0.2441 0.5000
vt 0.2441 0.5000
vt 0.2441 0.5000
vt 0.1816 0.5000
vt 0.1816 0.5000
vt 0.1816 0.5000
vt 0.2441 0.5000
vt 0.1816 0.5000
vt 0.1816 0.5000
vt 0.2441 0.5000
vt 0.1816 0.5000
vt 0.2441 0.5000
vt 0.1816 0.5000
vt 0.2441 0.5000
vt 0.2441 0.5000
vt 0.1816 0.5000
vt 0.2441 0.5000
vt 0.2441 0.5000
vt 0.2441 0.5000
vt 0.1816 0.5000
vt 0.2441 0.5000
vt 0.2441 0.5000
vt 0.1816 0.5000
vt 0.1816 0.5000
vt 0.1816 0.5000
vt 0.2441 0.5000
vt 0.1816 0.5000
vt 0.2441 0.5000
vt 0.1816 0.5000
vt 0.1816 0.5000
vt 0.2441 0.5000
vt 0.1816 0.5000
vt 0.2441 0.5000
vt 0.1816 0.5000
vt 0.2676 0.5000
vt 0.2676 0.5000
vt 0.2676 0.5000
vt 0.2441 0.5000
vt 0.2676 0.5000
vt 0.1816 0.5000
vt 0.1816 0.5000
vt 0.2441 0.5000
vt 0.2441 0.5000
vt 0.1816 0.5000
vt 0.1816 0.5000
vt 0.2441 0.5000
vt 0.2441 0.5000
vt 0.1816 0.5000
vt 0.2441 0.5000
vt 0.1816 0.5000
vt 0.1816 0.5000
vt 0.2441 0.5000
vt 0.2441 0.5000
vt 0.2441 0.5000
vt 0.1816 0.5000
vt 0.2441 0.5000
vt 0.2676 0.5000
vt 0.2676 0.5000
vt 0.2676 0.5000
vt 0.2676 0.5000
vn 0.0000 0.0000 -1.0000
vn 0.0000 0.0000 1.0000
vn -1.0000 -0.0000 -0.0000
vn 1.0000 0.0000 0.0000
vn 0.0000 -1.0000 0.0000
vn -0.0000 1.0000 0.0000
usemtl palette.003
s 1
f 1/1/1 2/2/1 3/3/1
f 4/4/1 5/5/1 6/6/1
f 7/7/1 1/1/1 3/3/1
f 7/7/1 4/4/1 1/1/1
f 8/8/1 5/5/1 4/4/1
f 8/8/1 4/4/1 7/7/1
f 9/9/2 10/10/2 11/11/2
f 12/12/2 13/13/2 14/14/2
f 9/9/2 11/11/2 15/15/2
f 11/11/2 14/14/2 15/15/2
f 14/14/2 13/13/2 16/16/2
f 15/15/2 14/14/2 16/16/2
f 17/17/3 18/18/3 19/19/3
f 20/20/3 18/18/3 17/17/3
f 21/21/3 20/22/3 17/23/3
f 22/24/3 20/22/3 21/21/3
f 23/25/3 21/21/3 17/23/3
f 23/26/3 22/27/3 21/28/3
f 24/29/3 22/27/3 23/26/3
f 25/30/3 23/25/3 17/23/3
f 25/30/3 24/31/3 23/25/3
f 26/32/3 24/31/3 25/30/3
f 27/33/3 25/30/3 17/23/3
f 27/34/3 26/35/3 25/36/3
f 28/37/3 24/31/3 26/32/3
f 28/38/3 26/35/3 27/34/3
f 29/39/3 27/33/3 17/23/3
f 29/39/3 28/37/3 27/33/3
f 30/40/3 24/31/3 28/37/3
f 30/40/3 28/37/3 29/39/3
f 31/41/3 29/39/3 17/23/3
f 31/42/3 30/43/3 29/44/3
f 32/45/3 30/43/3 31/42/3
f 33/46/3 32/47/3 31/41/3
f 34/48/3 32/47/3 33/46/3
f 35/49/3 33/46/3 31/41/3
f 35/50/3 34/51/3 33/52/3
f 36/53/3 34/51/3 35/50/3
f 37/54/3 31/41/3 17/23/3
f 37/54/3 35/49/3 31/41/3
f 37/54/3 36/55/3 35/49/3
f 38/56/3 36/55/3 37/54/3
f 39/57/3 38/58/3 37/59/3
f 40/60/3 38/58/3 39/57/3
f 41/61/3 42/62/3 43/63/3
f 44/64/3 42/62/3 41/61/3
f 45/65/3 44/66/3 41/67/3
f 46/68/3 44/66/3 45/65/3
f 47/69/3 46/70/3 45/71/3
f 48/72/3 45/65/3 41/67/3
f 48/73/3 47/69/3 45/71/3
f 49/74/3 47/69/3 48/73/3
f 50/75/3 49/76/3 48/72/3
f 51/77/3 50/75/3 48/72/3
f 52/78/3 48/72/3 41/67/3
f 52/78/3 51/77/3 48/72/3
f 53/79/3 51/77/3 52/78/3
f 54/80/3 52/78/3 41/67/3
f 54/81/3 53/82/3 52/83/3
f 55/84/3 53/82/3 54/81/3
f 56/85/3 55/86/3 54/80/3
f 57/87/3 54/80/3 41/67/3
f 57/87/3 56/85/3 54/80/3
f 58/88/3 56/85/3 57/87/3
f 59/89/3 58/90/3 57/91/3
f 60/92/3 58/90/3 59/89/3
f 61/93/4 62/94/4 63/95/4
f 63/95/4 62/94/4 64/96/4
f 63/97/4 64/98/4 65/99/4
f 63/97/4 65/99/4 66/100/4
f 66/100/4 65/99/4 67/101/4
f 63/97/4 66/100/4 68/102/4
f 66/103/4 67/104/4 68/105/4
f 68/105/4 67/104/4 69/106/4
f 68/102/4 69/107/4 70/108/4
f 63/97/4 68/102/4 71/109/4
f 68/102/4 70/108/4 71/109/4
f 71/109/4 70/108/4 72/110/4
f 63/97/4 71/109/4 73/111/4
f 71/112/4 72/113/4 73/114/4
f 73/114/4 72/113/4 74/115/4
f 73/111/4 74/116/4 75/117/4
f 73/111/4 75/117/4 76/118/4
f 63/97/4 73/111/4 77/119/4
f 73/111/4 76/118/4 77/119/4
f 77/119/4 76/118/4 78/120/4
f 77/121/4 78/122/4 79/123/4
f 79/123/4 78/122/4 80/124/4
f 81/125/4 82/126/4 83/127/4
f 83/127/4 82/126/4 84/128/4
f 83/129/4 84/130/4 85/131/4
f 85/131/4 84/130/4 86/132/4
f 85/133/4 86/134/4 87/135/4
f 87/135/4 86/134/4 88/136/4
f 83/129/4 85/131/4 89/137/4
f 85/133/4 87/135/4 89/138/4
f 87/139/4 88/140/4 90/141/4
f 89/138/4 87/135/4 90/142/4
f 89/137/4 90/141/4 91/143/4
f 90/141/4 88/140/4 91/143/4
f 91/143/4 88/140/4 92/144/4
f 89/137/4 91/143/4 93/145/4
f 91/146/4 92/147/4 93/148/4
f 93/148/4 92/147/4 94/149/4
f 83/129/4 89/137/4 95/150/4
f 89/137/4 93/145/4 95/150/4
f 93/145/4 94/151/4 95/150/4
f 95/150/4 94/151/4 96/152/4
f 83/129/4 95/150/4 97/153/4
f 95/154/4 96/155/4 97/156/4
f 97/156/4 96/155/4 98/157/4
f 97/153/4 98/158/4 99/159/4
f 98/157/4 96/155/4 99/160/4
f 99/160/4 96/155/4 100/161/4
f 83/129/4 97/153/4 101/162/4
f 97/153/4 99/159/4 101/162/4
f 99/159/4 100/163/4 101/162/4
f 101/162/4 100/163/4 102/164/4
f 101/165/4 102/166/4 103/167/4
f 103/167/4 102/166/4 104/168/4
f 105/169/5 106/170/5 107/171/5
f 108/172/5 109/173/5 106/174/5
f 108/175/5 106/170/5 105/169/5
f 110/176/5 111/177/5 109/178/5
f 110/179/5 109/173/5 108/172/5
f 112/180/5 111/177/5 110/176/5
f 113/181/5 114/182/5 115/183/5
f 116/184/5 117/185/5 114/186/5
f 116/187/5 114/182/5 113/181/5
f 118/188/5 119/189/5 117/190/5
f 118/191/5 117/185/5 116/184/5
f 120/192/5 119/189/5 118/188/5
f 121/193/5 122/194/5 123/195/5
f 121/196/5 124/197/5 122/198/5
f 125/199/5 124/197/5 121/196/5
f 126/200/5 127/201/5 124/202/5
f 126/200/5 128/203/5 127/201/5
f 129/204/5 130/205/5 128/206/5
f 129/207/5 128/203/5 126/200/5
f 129/204/5 131/208/5 130/205/5
f 132/209/5 133/210/5 131/211/5
f 132/212/5 134/213/5 133/214/5
f 135/215/5 136/216/5 134/217/5
f 135/218/5 134/213/5 132/212/5
f 137/219/5 136/216/5 135/215/5
f 138/220/5 123/221/5 139/222/5
f 140/223/5 125/224/5 121/193/5
f 140/225/5 123/221/5 138/220/5
f 140/223/5 121/193/5 123/195/5
f 141/226/5 125/224/5 140/223/5
f 142/227/5 124/197/5 125/199/5
f 142/228/5 125/224/5 141/226/5
f 143/229/5 126/200/5 124/202/5
f 143/230/5 124/197/5 142/227/5
f 144/231/5 129/204/5 126/232/5
f 144/233/5 126/200/5 143/229/5
f 145/234/5 132/209/5 131/211/5
f 145/235/5 129/204/5 144/231/5
f 145/235/5 131/208/5 129/204/5
f 145/234/5 135/215/5 132/209/5
f 146/236/5 135/215/5 145/234/5
f 147/237/5 137/238/5 135/218/5
f 147/239/5 135/215/5 146/236/5
f 148/240/5 136/216/5 137/219/5
f 148/241/5 137/238/5 147/237/5
f 149/242/5 150/243/5 136/244/5
f 149/245/5 136/216/5 148/240/5
f 151/246/5 150/243/5 149/242/5
f 152/247/6 153/248/6 154/249/6
f 153/250/6 155/251/6 154/252/6
f 154/252/6 155/251/6 156/253/6
f 156/253/6 155/251/6 157/254/6
f 155/255/6 158/256/6 159/257/6
f 157/254/6 155/251/6 159/258/6
f 158/259/6 160/260/6 161/261/6
f 160/262/6 162/263/6 163/264/6
f 161/261/6 160/260/6 163/265/6
f 163/264/6 162/263/6 164/266/6
f 162/267/6 165/268/6 166/269/6
f 164/266/6 162/263/6 166/270/6
f 167/271/6 152/272/6 168/273/6
f 152/247/6 154/249/6 168/274/6
f 154/249/6 156/275/6 168/274/6
f 168/274/6 156/275/6 169/276/6
f 156/253/6 157/254/6 170/277/6
f 157/278/6 159/257/6 171/279/6
f 170/277/6 157/254/6 171/280/6
f 163/264/6 164/266/6 172/281/6
f 158/259/6 161/261/6 172/282/6
f 161/283/6 163/264/6 172/281/6
f 164/284/6 166/269/6 173/285/6
f 172/281/6 164/266/6 173/286/6
f 166/269/6 165/268/6 174/287/6
f 173/285/6 166/269/6 174/287/6
f 168/273/6 169/288/6 175/289/6
f 169/276/6 156/275/6 176/290/6
f 175/289/6 169/288/6 176/291/6
f 156/253/6 170/277/6 177/292/6
f 176/290/6 156/275/6 177/293/6
f 171/279/6 159/257/6 178/294/6
f 159/257/6 158/256/6 178/294/6
f 170/295/6 171/279/6 178/294/6
f 172/282/6 173/285/6 179/296/6
f 178/294/6 158/256/6 179/297/6
f 158/259/6 172/282/6 179/296/6
f 179/296/6 173/285/6 180/298/6
f 173/286/6 174/299/6 181/300/6
f 180/298/6 173/285/6 181/301/6
f 181/300/6 174/299/6 182/302/6
f 174/287/6 165/268/6 183/303/6
f 182/302/6 174/299/6 183/304/6
f 184/305/6 167/306/6 185/307/6
f 168/273/6 175/289/6 186/308/6
f 185/307/6 167/306/6 186/309/6
f 167/271/6 168/273/6 186/308/6
f 175/310/6 176/290/6 187/311/6
f 186/308/6 175/289/6 187/312/6
f 176/291/6 177/292/6 188/313/6
f 187/311/6 176/290/6 188/314/6
f 170/295/6 178/294/6 189/315/6
f 188/313/6 177/292/6 189/316/6
f 177/292/6 170/277/6 189/316/6
f 179/296/6 180/298/6 190/317/6
f 189/315/6 178/294/6 190/318/6
f 178/319/6 179/296/6 190/317/6
f 180/320/6 181/300/6 191/321/6
f 190/317/6 180/298/6 191/322/6
f 181/300/6 182/302/6 191/321/6
f 182/323/6 183/303/6 192/324/6
f 191/321/6 182/302/6 192/325/6
f 183/303/6 165/268/6 193/326/6
f 192/324/6 183/303/6 193/326/6
f 165/327/6 194/328/6 193/329/6
f 193/329/6 194/328/6 195/330/6
